<svg width="587" height="139" viewBox="0 0 587 139" fill="none" xmlns="http://www.w3.org/2000/svg">
<path d="M3.28 4.99H8.23C10.41 4.99 12.04 5.41 13.12 6.25C14.36 7.21 14.98 8.59 14.98 10.39C14.98 12.17 14.23 13.48 12.73 14.32C13.75 14.48 14.62 14.9 15.34 15.58C16.3 16.5 16.78 17.75 16.78 19.33C16.78 21.01 16.21 22.36 15.07 23.38C13.85 24.46 12.16 25 10 25H3.28V4.99ZM7.18 8.17V13.3H8.29C8.49 13.3 8.67 13.3 8.83 13.3C9.01 13.28 9.26 13.22 9.58 13.12C9.92 13.02 10.2 12.89 10.42 12.73C10.66 12.55 10.87 12.29 11.05 11.95C11.23 11.59 11.32 11.17 11.32 10.69C11.32 9.83 11.04 9.2 10.48 8.8C9.92 8.38 9.2 8.17 8.32 8.17H7.18ZM7.18 16.3V21.82H8.86C10.02 21.82 10.91 21.64 11.53 21.28C12.35 20.8 12.76 20.03 12.76 18.97C12.76 17.89 12.27 17.13 11.29 16.69C10.73 16.43 9.84 16.3 8.62 16.3H7.18ZM23.5094 23.32V31.87H19.8494V12.01H23.5094V13.69C24.4894 12.29 25.8994 11.59 27.7394 11.59C29.5394 11.59 31.0194 12.17 32.1794 13.33C33.4794 14.63 34.1294 16.35 34.1294 18.49C34.1294 20.69 33.4494 22.44 32.0894 23.74C30.8894 24.86 29.4194 25.42 27.6794 25.42C25.9394 25.42 24.5494 24.72 23.5094 23.32ZM26.7494 14.83C25.8094 14.83 25.0194 15.12 24.3794 15.7C23.5594 16.4 23.1494 17.33 23.1494 18.49C23.1494 19.67 23.5494 20.61 24.3494 21.31C25.0094 21.89 25.8094 22.18 26.7494 22.18C27.7294 22.18 28.5494 21.87 29.2094 21.25C29.9694 20.55 30.3494 19.63 30.3494 18.49C30.3494 17.37 29.9794 16.46 29.2394 15.76C28.5594 15.14 27.7294 14.83 26.7494 14.83ZM46.3488 20.83L49.7088 21.37C49.5688 21.73 49.3788 22.09 49.1388 22.45C48.9188 22.79 48.5688 23.22 48.0888 23.74C47.6088 24.24 46.9588 24.65 46.1388 24.97C45.3188 25.27 44.3788 25.42 43.3188 25.42C41.2788 25.42 39.6188 24.81 38.3388 23.59C36.9788 22.31 36.2988 20.62 36.2988 18.52C36.2988 16.44 36.9588 14.74 38.2788 13.42C39.5188 12.2 41.1488 11.59 43.1688 11.59C45.3688 11.59 47.0588 12.3 48.2388 13.72C49.2788 14.96 49.7988 16.66 49.7988 18.82V19.12H40.0788C40.0788 20 40.2888 20.73 40.7088 21.31C41.3088 22.13 42.1788 22.54 43.3188 22.54C44.6788 22.54 45.6888 21.97 46.3488 20.83ZM40.1988 16.78H46.3488C46.2088 15.94 45.8388 15.3 45.2388 14.86C44.6588 14.4 43.9988 14.17 43.2588 14.17C42.5388 14.17 41.8788 14.4 41.2788 14.86C40.6988 15.32 40.3388 15.96 40.1988 16.78ZM51.2526 25L53.6226 12.01H56.3226L59.8926 19.48L63.4626 12.01H66.1626L68.5326 25H64.8726L63.7926 17.95L60.5526 25H59.2326L55.9926 17.95L54.9126 25H51.2526ZM69.4809 25L73.3209 20.14C72.4809 20.02 71.7809 19.68 71.2209 19.12C70.5409 18.44 70.2009 17.52 70.2009 16.36C70.2009 15.02 70.7209 13.93 71.7609 13.09C72.6809 12.37 74.0209 12.01 75.7809 12.01H80.9409V25H77.2809V20.44H76.8609L73.6809 25H69.4809ZM77.2809 17.8V14.89H75.6909C75.1309 14.89 74.7209 15.01 74.4609 15.25C74.1409 15.55 73.9809 15.93 73.9809 16.39C73.9809 16.87 74.1409 17.23 74.4609 17.47C74.7409 17.69 75.1509 17.8 75.6909 17.8H77.2809ZM91.4216 12.01H103.722V25H100.062V15.13H95.0816V25H91.4216V12.01ZM110.873 23.32V31.87H107.213V12.01H110.873V13.69C111.853 12.29 113.263 11.59 115.103 11.59C116.903 11.59 118.383 12.17 119.543 13.33C120.843 14.63 121.493 16.35 121.493 18.49C121.493 20.69 120.813 22.44 119.453 23.74C118.253 24.86 116.783 25.42 115.043 25.42C113.303 25.42 111.913 24.72 110.873 23.32ZM114.113 14.83C113.173 14.83 112.383 15.12 111.743 15.7C110.923 16.4 110.513 17.33 110.513 18.49C110.513 19.67 110.913 20.61 111.713 21.31C112.373 21.89 113.173 22.18 114.113 22.18C115.093 22.18 115.913 21.87 116.573 21.25C117.333 20.55 117.713 19.63 117.713 18.49C117.713 17.37 117.343 16.46 116.603 15.76C115.923 15.14 115.093 14.83 114.113 14.83ZM125.852 13.42C127.172 12.2 128.922 11.59 131.102 11.59C133.282 11.59 135.032 12.2 136.352 13.42C137.812 14.74 138.542 16.44 138.542 18.52C138.542 20.58 137.812 22.27 136.352 23.59C135.032 24.81 133.282 25.42 131.102 25.42C128.922 25.42 127.172 24.81 125.852 23.59C124.392 22.27 123.662 20.58 123.662 18.52C123.662 16.44 124.392 14.74 125.852 13.42ZM128.492 21.1C129.192 21.82 130.062 22.18 131.102 22.18C132.142 22.18 133.012 21.82 133.712 21.1C134.412 20.38 134.762 19.52 134.762 18.52C134.762 17.5 134.412 16.63 133.712 15.91C133.012 15.19 132.142 14.83 131.102 14.83C130.062 14.83 129.192 15.19 128.492 15.91C127.792 16.63 127.442 17.5 127.442 18.52C127.442 19.52 127.792 20.38 128.492 21.1ZM148.753 25V20.56C147.713 20.76 146.693 20.86 145.693 20.86C144.113 20.86 142.903 20.46 142.063 19.66C141.283 18.92 140.893 17.9 140.893 16.6V12.01H144.553V15.85C144.553 16.51 144.703 16.98 145.003 17.26C145.343 17.58 145.963 17.74 146.863 17.74C147.463 17.74 148.093 17.68 148.753 17.56V12.01H152.413V25H148.753ZM165.204 15.13H161.604V25H157.944V15.13H154.344V12.01H165.204V15.13ZM176.515 20.83L179.875 21.37C179.735 21.73 179.545 22.09 179.305 22.45C179.085 22.79 178.735 23.22 178.255 23.74C177.775 24.24 177.125 24.65 176.305 24.97C175.485 25.27 174.545 25.42 173.485 25.42C171.445 25.42 169.785 24.81 168.505 23.59C167.145 22.31 166.465 20.62 166.465 18.52C166.465 16.44 167.125 14.74 168.445 13.42C169.685 12.2 171.315 11.59 173.335 11.59C175.535 11.59 177.225 12.3 178.405 13.72C179.445 14.96 179.965 16.66 179.965 18.82V19.12H170.245C170.245 20 170.455 20.73 170.875 21.31C171.475 22.13 172.345 22.54 173.485 22.54C174.845 22.54 175.855 21.97 176.515 20.83ZM170.365 16.78H176.515C176.375 15.94 176.005 15.3 175.405 14.86C174.825 14.4 174.165 14.17 173.425 14.17C172.705 14.17 172.045 14.4 171.445 14.86C170.865 15.32 170.505 15.96 170.365 16.78ZM182.799 25V12.01H186.459V16.6H191.559V12.01H195.219V25H191.559V19.72H186.459V25H182.799ZM198.707 12.01H202.367V20.02L208.367 12.01H212.027V25H208.367V16.99L202.367 25H198.707V12.01ZM214.354 25L218.194 20.14C217.354 20.02 216.654 19.68 216.094 19.12C215.414 18.44 215.074 17.52 215.074 16.36C215.074 15.02 215.594 13.93 216.634 13.09C217.554 12.37 218.894 12.01 220.654 12.01H225.814V25H222.154V20.44H221.734L218.554 25H214.354ZM222.154 17.8V14.89H220.564C220.004 14.89 219.594 15.01 219.334 15.25C219.014 15.55 218.854 15.93 218.854 16.39C218.854 16.87 219.014 17.23 219.334 17.47C219.614 17.69 220.024 17.8 220.564 17.8H222.154Z" fill="white"/>
<rect x="2" y="78" width="579" height="4" rx="2" fill="white"/>
<path d="M5.788 131V120.254H3.772L4.474 118.994H7.12V131H5.788ZM12.4545 131V123.53H13.7505V124.322C14.1945 123.674 14.8125 123.35 15.6045 123.35C16.5045 123.35 17.1825 123.752 17.6385 124.556C18.1545 123.752 18.9045 123.35 19.8885 123.35C21.5085 123.35 22.3185 124.322 22.3185 126.266V131H21.0225V126.464C21.0225 126.104 20.9985 125.804 20.9505 125.564C20.9145 125.312 20.7885 125.072 20.5725 124.844C20.3685 124.616 20.0745 124.502 19.6905 124.502C18.5865 124.502 18.0345 125.282 18.0345 126.842V131H16.7385V126.572C16.7385 125.192 16.2885 124.502 15.3885 124.502C14.2965 124.502 13.7505 125.312 13.7505 126.932V131H12.4545Z" fill="white"/>
<path d="M65.88 121.964H64.548C64.584 121.328 64.77 120.74 65.106 120.2C65.706 119.264 66.636 118.796 67.896 118.796C68.964 118.796 69.792 119.114 70.38 119.75C70.98 120.386 71.28 121.148 71.28 122.036C71.28 123.296 70.764 124.184 69.732 124.7C69.888 124.76 70.038 124.844 70.182 124.952C70.338 125.048 70.524 125.204 70.74 125.42C70.956 125.636 71.13 125.936 71.262 126.32C71.394 126.692 71.46 127.118 71.46 127.598C71.46 128.69 71.106 129.566 70.398 130.226C69.702 130.886 68.826 131.216 67.77 131.216C67.062 131.216 66.402 131.054 65.79 130.73C65.178 130.394 64.722 129.866 64.422 129.146C64.266 128.762 64.176 128.342 64.152 127.886H65.484C65.544 128.378 65.688 128.78 65.916 129.092C66.324 129.692 66.942 129.992 67.77 129.992C68.43 129.992 68.988 129.758 69.444 129.29C69.9 128.81 70.128 128.234 70.128 127.562C70.128 126.578 69.732 125.906 68.94 125.546C68.544 125.354 68.088 125.27 67.572 125.294V124.106C68.088 124.142 68.544 124.058 68.94 123.854C69.612 123.506 69.948 122.912 69.948 122.072C69.948 121.484 69.78 120.998 69.444 120.614C69.108 120.218 68.592 120.02 67.896 120.02C67.224 120.02 66.708 120.248 66.348 120.704C66.072 121.064 65.916 121.484 65.88 121.964ZM74.4545 131V123.53H75.7505V124.322C76.1945 123.674 76.8125 123.35 77.6045 123.35C78.5045 123.35 79.1825 123.752 79.6385 124.556C80.1545 123.752 80.9045 123.35 81.8885 123.35C83.5085 123.35 84.3185 124.322 84.3185 126.266V131H83.0225V126.464C83.0225 126.104 82.9985 125.804 82.9505 125.564C82.9145 125.312 82.7885 125.072 82.5725 124.844C82.3685 124.616 82.0745 124.502 81.6905 124.502C80.5865 124.502 80.0345 125.282 80.0345 126.842V131H78.7385V126.572C78.7385 125.192 78.2885 124.502 77.3885 124.502C76.2965 124.502 75.7505 125.312 75.7505 126.932V131H74.4545Z" fill="white"/>
<path d="M133.622 118.994V120.218H129.77L128.996 122.81C129.2 122.762 129.452 122.738 129.752 122.738C130.94 122.738 131.894 123.134 132.614 123.926C133.346 124.718 133.712 125.708 133.712 126.896C133.712 128.192 133.286 129.236 132.434 130.028C131.594 130.82 130.562 131.216 129.338 131.216C128.306 131.216 127.412 130.904 126.656 130.28C126.224 129.908 125.876 129.5 125.612 129.056L126.674 128.3C126.854 128.66 127.124 128.984 127.484 129.272C128.072 129.752 128.72 129.992 129.428 129.992C130.268 129.992 130.97 129.692 131.534 129.092C132.098 128.492 132.38 127.766 132.38 126.914C132.38 126.05 132.098 125.342 131.534 124.79C130.982 124.238 130.28 123.962 129.428 123.962C128.672 123.962 127.898 124.238 127.106 124.79L128.852 118.994H133.622ZM136.454 131V123.53H137.75V124.322C138.194 123.674 138.812 123.35 139.604 123.35C140.504 123.35 141.182 123.752 141.638 124.556C142.154 123.752 142.904 123.35 143.888 123.35C145.508 123.35 146.318 124.322 146.318 126.266V131H145.022V126.464C145.022 126.104 144.998 125.804 144.95 125.564C144.914 125.312 144.788 125.072 144.572 124.844C144.368 124.616 144.074 124.502 143.69 124.502C142.586 124.502 142.034 125.282 142.034 126.842V131H140.738V126.572C140.738 125.192 140.288 124.502 139.388 124.502C138.296 124.502 137.75 125.312 137.75 126.932V131H136.454Z" fill="white"/>
<path d="M231.788 131V120.254H229.772L230.474 118.994H233.12V131H231.788ZM244.278 129.416C243.45 130.616 242.424 131.216 241.2 131.216C239.976 131.216 238.95 130.616 238.122 129.416C237.318 128.252 236.916 126.782 236.916 125.006C236.916 123.23 237.318 121.76 238.122 120.596C238.95 119.396 239.976 118.796 241.2 118.796C242.424 118.796 243.45 119.396 244.278 120.596C245.082 121.76 245.484 123.23 245.484 125.006C245.484 126.782 245.082 128.252 244.278 129.416ZM243.27 121.352C242.718 120.464 242.028 120.02 241.2 120.02C240.372 120.02 239.682 120.464 239.13 121.352C238.542 122.288 238.248 123.506 238.248 125.006C238.248 126.506 238.542 127.724 239.13 128.66C239.682 129.548 240.372 129.992 241.2 129.992C242.028 129.992 242.718 129.548 243.27 128.66C243.858 127.724 244.152 126.506 244.152 125.006C244.152 123.506 243.858 122.288 243.27 121.352ZM247.542 131V123.53H248.838V124.322C249.282 123.674 249.9 123.35 250.692 123.35C251.592 123.35 252.27 123.752 252.726 124.556C253.242 123.752 253.992 123.35 254.976 123.35C256.596 123.35 257.406 124.322 257.406 126.266V131H256.11V126.464C256.11 126.104 256.086 125.804 256.038 125.564C256.002 125.312 255.876 125.072 255.66 124.844C255.456 124.616 255.162 124.502 254.778 124.502C253.674 124.502 253.122 125.282 253.122 126.842V131H251.826V126.572C251.826 125.192 251.376 124.502 250.476 124.502C249.384 124.502 248.838 125.312 248.838 126.932V131H247.542Z" fill="white"/>
<path d="M343.788 131V120.254H341.772L342.474 118.994H345.12V131H343.788ZM355.602 118.994V120.218H351.75L350.976 122.81C351.18 122.762 351.432 122.738 351.732 122.738C352.92 122.738 353.874 123.134 354.594 123.926C355.326 124.718 355.692 125.708 355.692 126.896C355.692 128.192 355.266 129.236 354.414 130.028C353.574 130.82 352.542 131.216 351.318 131.216C350.286 131.216 349.392 130.904 348.636 130.28C348.204 129.908 347.856 129.5 347.592 129.056L348.654 128.3C348.834 128.66 349.104 128.984 349.464 129.272C350.052 129.752 350.7 129.992 351.408 129.992C352.248 129.992 352.95 129.692 353.514 129.092C354.078 128.492 354.36 127.766 354.36 126.914C354.36 126.05 354.078 125.342 353.514 124.79C352.962 124.238 352.26 123.962 351.408 123.962C350.652 123.962 349.878 124.238 349.086 124.79L350.832 118.994H355.602ZM358.435 131V123.53H359.731V124.322C360.175 123.674 360.793 123.35 361.585 123.35C362.485 123.35 363.163 123.752 363.619 124.556C364.135 123.752 364.885 123.35 365.869 123.35C367.489 123.35 368.299 124.322 368.299 126.266V131H367.003V126.464C367.003 126.104 366.979 125.804 366.931 125.564C366.895 125.312 366.769 125.072 366.553 124.844C366.349 124.616 366.055 124.502 365.671 124.502C364.567 124.502 364.015 125.282 364.015 126.842V131H362.719V126.572C362.719 125.192 362.269 124.502 361.369 124.502C360.277 124.502 359.731 125.312 359.731 126.932V131H358.435Z" fill="white"/>
<path d="M458.658 131H450.9L455.274 125.942C456.018 125.066 456.486 124.484 456.678 124.196C457.122 123.56 457.344 122.948 457.344 122.36C457.344 121.676 457.122 121.118 456.678 120.686C456.234 120.242 455.658 120.02 454.95 120.02C454.086 120.02 453.42 120.374 452.952 121.082C452.7 121.466 452.568 121.94 452.556 122.504H451.224C451.272 121.484 451.572 120.656 452.124 120.02C452.844 119.204 453.792 118.796 454.968 118.796C456.036 118.796 456.918 119.138 457.614 119.822C458.322 120.494 458.676 121.346 458.676 122.378C458.676 123.182 458.358 124.04 457.722 124.952C457.398 125.396 456.852 126.062 456.084 126.95L453.582 129.776H458.658V131ZM467.963 129.416C467.135 130.616 466.109 131.216 464.885 131.216C463.661 131.216 462.635 130.616 461.807 129.416C461.003 128.252 460.601 126.782 460.601 125.006C460.601 123.23 461.003 121.76 461.807 120.596C462.635 119.396 463.661 118.796 464.885 118.796C466.109 118.796 467.135 119.396 467.963 120.596C468.767 121.76 469.169 123.23 469.169 125.006C469.169 126.782 468.767 128.252 467.963 129.416ZM466.955 121.352C466.403 120.464 465.713 120.02 464.885 120.02C464.057 120.02 463.367 120.464 462.815 121.352C462.227 122.288 461.933 123.506 461.933 125.006C461.933 126.506 462.227 127.724 462.815 128.66C463.367 129.548 464.057 129.992 464.885 129.992C465.713 129.992 466.403 129.548 466.955 128.66C467.543 127.724 467.837 126.506 467.837 125.006C467.837 123.506 467.543 122.288 466.955 121.352ZM471.228 131V123.53H472.524V124.322C472.968 123.674 473.586 123.35 474.378 123.35C475.278 123.35 475.956 123.752 476.412 124.556C476.928 123.752 477.678 123.35 478.662 123.35C480.282 123.35 481.092 124.322 481.092 126.266V131H479.796V126.464C479.796 126.104 479.772 125.804 479.724 125.564C479.688 125.312 479.562 125.072 479.346 124.844C479.142 124.616 478.848 124.502 478.464 124.502C477.36 124.502 476.808 125.282 476.808 126.842V131H475.512V126.572C475.512 125.192 475.062 124.502 474.162 124.502C473.07 124.502 472.524 125.312 472.524 126.932V131H471.228Z" fill="white"/>
<path d="M574.72 127.16C574.373 127.72 573.913 128.213 573.34 128.64C572.78 129.053 572.14 129.26 571.42 129.26C570.527 129.26 569.793 128.973 569.22 128.4C568.66 127.827 568.38 127.087 568.38 126.18C568.38 125.3 568.66 124.573 569.22 124C569.793 123.427 570.527 123.14 571.42 123.14C572.1 123.14 572.72 123.347 573.28 123.76C573.84 124.16 574.3 124.653 574.66 125.24C575.007 124.68 575.46 124.193 576.02 123.78C576.58 123.353 577.233 123.14 577.98 123.14C578.86 123.14 579.58 123.427 580.14 124C580.7 124.573 580.98 125.313 580.98 126.22C580.98 127.113 580.7 127.847 580.14 128.42C579.58 128.98 578.86 129.26 577.98 129.26C577.247 129.26 576.6 129.053 576.04 128.64C575.48 128.213 575.04 127.72 574.72 127.16ZM577.78 124.42C577.287 124.42 576.833 124.607 576.42 124.98C576.007 125.34 575.667 125.747 575.4 126.2C575.667 126.707 576.02 127.133 576.46 127.48C576.913 127.813 577.36 127.98 577.8 127.98C578.267 127.98 578.667 127.82 579 127.5C579.333 127.167 579.5 126.733 579.5 126.2C579.5 125.707 579.34 125.287 579.02 124.94C578.7 124.593 578.287 124.42 577.78 124.42ZM571.58 127.98C572.087 127.98 572.547 127.8 572.96 127.44C573.373 127.067 573.707 126.653 573.96 126.2C573.707 125.707 573.36 125.287 572.92 124.94C572.493 124.593 572.04 124.42 571.56 124.42C571.053 124.42 570.64 124.593 570.32 124.94C570.013 125.287 569.86 125.713 569.86 126.22C569.86 126.78 570.033 127.213 570.38 127.52C570.74 127.827 571.14 127.98 571.58 127.98Z" fill="white"/>
<circle cx="12" cy="80" r="12" fill="#A6A7B0"/>
<circle cx="575" cy="80" r="12" fill="#A6A7B0"/>
<rect x="73" y="69" width="2" height="22" fill="white"/>
<rect x="135" y="69" width="2" height="22" fill="white"/>
<rect x="237" y="69" width="2" height="22" fill="white"/>
<rect x="349" y="69" width="2" height="22" fill="white"/>
<rect x="461" y="69" width="2" height="22" fill="white"/>
</svg>
