<svg width="19" height="18" viewBox="0 0 19 18" fill="none" xmlns="http://www.w3.org/2000/svg">
<path opacity="0.6" d="M14.2531 2.53201V0.782588C14.2529 0.696482 14.2779 0.612122 14.3252 0.539402C14.3724 0.466683 14.4398 0.40862 14.5196 0.372025C14.5995 0.33543 14.6883 0.321821 14.7757 0.332792C14.8632 0.343764 14.9456 0.378863 15.0134 0.433971L18.8333 3.54255C18.9065 3.60217 18.9591 3.68238 18.984 3.77225C19.0088 3.86213 19.0047 3.9573 18.9722 4.0448C18.9396 4.1323 18.8803 4.20788 18.8022 4.26124C18.7241 4.3146 18.631 4.34316 18.5357 4.34301H0.345459V2.53201H14.2531ZM0.345459 15.209H18.889V17.02H0.345459V15.209ZM0.345459 8.87051H18.889V10.6815H0.345459V8.87051Z" fill="#A6A7B0"/>
</svg>
