<svg width="10" height="5" viewBox="0 0 10 5" fill="none" xmlns="http://www.w3.org/2000/svg">
<path d="M4.704 3.11561C4.46133 3.50761 4.13933 3.85295 3.738 4.15161C3.346 4.44095 2.898 4.58561 2.394 4.58561C1.76867 4.58561 1.25533 4.38495 0.854 3.98361C0.462 3.58228 0.266 3.06428 0.266 2.42961C0.266 1.81361 0.462 1.30495 0.854 0.903613C1.25533 0.50228 1.76867 0.301613 2.394 0.301613C2.87 0.301613 3.304 0.44628 3.696 0.735613C4.088 1.01561 4.41 1.36095 4.662 1.77161C4.90467 1.37961 5.222 1.03895 5.614 0.749613C6.006 0.450946 6.46333 0.301613 6.986 0.301613C7.602 0.301613 8.106 0.50228 8.498 0.903613C8.89 1.30495 9.086 1.82295 9.086 2.45761C9.086 3.08295 8.89 3.59628 8.498 3.99761C8.106 4.38961 7.602 4.58561 6.986 4.58561C6.47267 4.58561 6.02 4.44095 5.628 4.15161C5.236 3.85295 4.928 3.50761 4.704 3.11561ZM6.846 1.19761C6.50067 1.19761 6.18333 1.32828 5.894 1.58961C5.60467 1.84161 5.36667 2.12628 5.18 2.44361C5.36667 2.79828 5.614 3.09695 5.922 3.33961C6.23933 3.57295 6.552 3.68961 6.86 3.68961C7.18667 3.68961 7.46667 3.57761 7.7 3.35361C7.93333 3.12028 8.05 2.81695 8.05 2.44361C8.05 2.09828 7.938 1.80428 7.714 1.56161C7.49 1.31895 7.20067 1.19761 6.846 1.19761ZM2.506 3.68961C2.86067 3.68961 3.18267 3.56361 3.472 3.31161C3.76133 3.05028 3.99467 2.76095 4.172 2.44361C3.99467 2.09828 3.752 1.80428 3.444 1.56161C3.14533 1.31895 2.828 1.19761 2.492 1.19761C2.13733 1.19761 1.848 1.31895 1.624 1.56161C1.40933 1.80428 1.302 2.10295 1.302 2.45761C1.302 2.84961 1.42333 3.15295 1.666 3.36761C1.918 3.58228 2.198 3.68961 2.506 3.68961Z" fill="white"/>
</svg>
