<svg width="15" height="13" viewBox="0 0 15 13" fill="none" xmlns="http://www.w3.org/2000/svg">
<path d="M12.9545 12.3384C12.9545 12.5138 12.8827 12.6821 12.7548 12.8062C12.627 12.9303 12.4536 13 12.2727 13H2.72727C2.54644 13 2.37302 12.9303 2.24515 12.8062C2.11729 12.6821 2.04545 12.5138 2.04545 12.3384V6.38367H0L7.04114 0.172261C7.16667 0.0614229 7.33028 0 7.5 0C7.66972 0 7.83333 0.0614229 7.95886 0.172261L15 6.38367H12.9545V12.3384ZM7.5 10.3535L9.79023 8.13104C9.93268 7.99281 10.0457 7.8287 10.1228 7.64808C10.1999 7.46746 10.2396 7.27388 10.2396 7.07839C10.2396 6.88289 10.1999 6.68931 10.1228 6.50869C10.0457 6.32808 9.93268 6.16396 9.79023 6.02573C9.64777 5.88749 9.47865 5.77783 9.29253 5.70302C9.1064 5.62821 8.90692 5.5897 8.70545 5.5897C8.50399 5.5897 8.30451 5.62821 8.11838 5.70302C7.93225 5.77783 7.76314 5.88749 7.62068 6.02573L7.5 6.14284L7.37932 6.02573C7.23686 5.88749 7.06775 5.77783 6.88162 5.70302C6.69549 5.62821 6.49601 5.5897 6.29455 5.5897C6.09308 5.5897 5.8936 5.62821 5.70747 5.70302C5.52135 5.77783 5.35223 5.88749 5.20977 6.02573C5.06732 6.16396 4.95432 6.32808 4.87722 6.50869C4.80013 6.68931 4.76045 6.88289 4.76045 7.07839C4.76045 7.27388 4.80013 7.46746 4.87722 7.64808C4.95432 7.8287 5.06732 7.99281 5.20977 8.13104L7.5 10.3535Z" fill="#F9E312"/>
</svg>
