<svg width="15" height="15" viewBox="0 0 15 15" fill="none" xmlns="http://www.w3.org/2000/svg">
<g clip-path="url(#clip0_397_1391)">
<path d="M4.58688 6.30315L7.49988 3.39022L10.4144 6.30465L12.1094 4.60965L7.49988 0L2.89195 4.60815L4.58688 6.30315ZM0 7.49977L1.69505 5.80471L3.38999 7.49966L1.69495 9.1947L0 7.49977ZM4.58688 8.69685L7.49988 11.6098L10.4143 8.69543L12.1102 10.3895L12.1094 10.3904L7.49988 15L2.8918 10.392L2.8894 10.3896L4.58688 8.69685ZM11.61 7.5007L13.3051 5.80565L15 7.50059L13.305 9.19565L11.61 7.5007Z" fill="#F9E312"/>
<path d="M9.21883 7.49903H9.21958L7.49961 5.77905L6.22851 7.05015H6.22843L6.08241 7.19625L5.78121 7.49753L5.77881 7.49985L5.78121 7.50233L7.49961 9.2208L9.21958 7.50083L9.2204 7.49985L9.21883 7.49903Z" fill="#F9E312"/>
</g>
<defs>
<clipPath id="clip0_397_1391">
<rect width="15" height="15" fill="white"/>
</clipPath>
</defs>
</svg>
