<svg width="17" height="10" viewBox="0 0 17 10" fill="none" xmlns="http://www.w3.org/2000/svg">
<path d="M16.3827 6.317H16.3837L15.2644 1.7305C14.918 0.729 13.9299 0 12.75 0C11.8841 0 11.1217 0.396 10.6372 1H6.36331C5.87828 0.396 5.11594 0 4.25 0C3.07009 0 2.08197 0.729 1.73559 1.7305L0.61625 6.3165H0.617312C0.563125 6.5365 0.53125 6.7645 0.53125 7C0.53125 8.657 1.95819 10 3.71875 10C5.10584 10 6.28309 9.1645 6.72084 8H10.2792C10.7174 9.1645 11.8942 10 13.2812 10C15.0418 10 16.4688 8.657 16.4688 7C16.4688 6.7645 16.4369 6.5365 16.3827 6.317ZM5.3125 5H4.78125V5.5C4.78125 5.776 4.54378 6 4.25 6C3.95622 6 3.71875 5.776 3.71875 5.5V5H3.1875C2.89372 5 2.65625 4.776 2.65625 4.5C2.65625 4.224 2.89372 4 3.1875 4H3.71875V3.5C3.71875 3.224 3.95622 3 4.25 3C4.54378 3 4.78125 3.224 4.78125 3.5V4H5.3125C5.60628 4 5.84375 4.224 5.84375 4.5C5.84375 4.776 5.60628 5 5.3125 5ZM12.2188 5.5C11.9255 5.5 11.6875 5.276 11.6875 5C11.6875 4.724 11.9255 4.5 12.2188 4.5C12.512 4.5 12.75 4.724 12.75 5C12.75 5.276 12.512 5.5 12.2188 5.5ZM12.2188 4C11.9255 4 11.6875 3.776 11.6875 3.5C11.6875 3.224 11.9255 3 12.2188 3C12.512 3 12.75 3.224 12.75 3.5C12.75 3.776 12.512 4 12.2188 4ZM13.8125 5.5C13.5192 5.5 13.2812 5.276 13.2812 5C13.2812 4.724 13.5192 4.5 13.8125 4.5C14.1058 4.5 14.3438 4.724 14.3438 5C14.3438 5.276 14.1058 5.5 13.8125 5.5ZM13.8125 4C13.5192 4 13.2812 3.776 13.2812 3.5C13.2812 3.224 13.5192 3 13.8125 3C14.1058 3 14.3438 3.224 14.3438 3.5C14.3438 3.776 14.1058 4 13.8125 4Z" fill="#F9E312"/>
</svg>
