<svg width="15" height="13" viewBox="0 0 15 13" fill="none" xmlns="http://www.w3.org/2000/svg">
<path d="M2.58582 9.71569C4.28433 9.74876 5.75623 10.0027 6.84243 10.4502C6.86097 10.4578 6.88059 10.4616 6.90004 10.4616C6.92959 10.4616 6.95898 10.4529 6.98421 10.436C7.02618 10.408 7.05134 10.3608 7.05134 10.3103L7.05193 2.19083C7.05193 2.12887 7.01414 2.07315 6.95656 2.05026L2.64467 0.334449C2.59814 0.31591 2.54535 0.321665 2.50385 0.349816C2.46235 0.378 2.4375 0.424878 2.4375 0.475023V9.56445C2.4375 9.64685 2.50345 9.71407 2.58582 9.71569Z" fill="#F9E312"/>
<path d="M14.939 1.77651C14.9007 1.74799 14.8512 1.73925 14.8054 1.7529L13.2803 2.20884C13.2163 2.228 13.1724 2.28692 13.1724 2.35377V10.1975C13.1724 10.1975 13.1791 10.3212 13.0489 10.3212C12.8997 10.3212 12.8017 10.3212 12.8017 10.3212C11.5714 10.3212 9.28518 10.4489 7.79561 11.3042L7.49997 11.4735L7.20436 11.3042C5.71476 10.4489 3.42854 10.3212 2.19828 10.3212C2.19828 10.3212 1.94634 10.3212 1.88279 10.3212C1.82397 10.3212 1.82758 10.2505 1.82758 10.2506V2.35377C1.82758 2.28692 1.78368 2.228 1.71964 2.20884L0.194606 1.7529C0.148786 1.73925 0.0992319 1.74799 0.0609078 1.77651C0.0225838 1.80504 0 1.85002 0 1.8978V11.3876C0 11.4303 0.0180733 11.471 0.0496781 11.4997C0.0813141 11.5284 0.123558 11.5424 0.16605 11.5382C0.619313 11.4937 1.32793 11.4408 2.12966 11.4408C3.89051 11.4408 5.30561 11.6979 6.22261 12.1847C6.35734 12.2553 7.13844 12.6763 7.50003 12.6763C7.86162 12.6763 8.64269 12.2554 8.77738 12.1847C9.69442 11.6979 11.1095 11.4408 12.8704 11.4408C13.672 11.4408 14.3807 11.4937 14.8339 11.5382C14.8765 11.5424 14.9187 11.5284 14.9504 11.4997C14.982 11.471 15 11.4303 15 11.3876V1.8978C15 1.85002 14.9774 1.80504 14.939 1.77651Z" fill="#F9E312"/>
<path d="M8.0159 10.436C8.04116 10.4529 8.07056 10.4616 8.10008 10.4616C8.11955 10.4616 8.13915 10.4578 8.15772 10.4502C9.24388 10.0027 10.7158 9.74872 12.4143 9.71568C12.4967 9.71406 12.5627 9.64684 12.5627 9.56447V0.475014C12.5627 0.424838 12.5378 0.37796 12.4963 0.349808C12.4548 0.321687 12.402 0.315901 12.3555 0.334441L8.04359 2.05025C7.98601 2.07315 7.94824 2.12886 7.94824 2.19082L7.94883 10.3103C7.94877 10.3608 7.97397 10.408 8.0159 10.436Z" fill="#F9E312"/>
</svg>
