<svg width="13" height="13" viewBox="0 0 13 13" fill="none" xmlns="http://www.w3.org/2000/svg">
<path d="M12.3 10.7045L8.88937 4.39467V0.635744C8.88937 0.281983 8.59343 0 8.23994 0H4.75865C4.40489 0 4.11378 0.281983 4.11378 0.635744V4.39467L0.700285 10.7045C0.439943 11.1856 0.453046 11.7698 0.733041 12.2401C1.01304 12.7098 1.5209 13 2.06779 13H10.9305C11.4774 13 11.9864 12.7098 12.2664 12.2401C12.5461 11.7698 12.5604 11.1856 12.3 10.7045ZM7.06299 8.06472C7.36862 8.06472 7.61615 8.31224 7.61615 8.61787C7.61615 8.92321 7.36805 9.17101 7.06299 9.17101C6.75765 9.17101 6.50984 8.92321 6.50984 8.61787C6.50984 8.3131 6.75736 8.06472 7.06299 8.06472ZM5.50749 4.73874C5.81312 4.73874 6.06065 4.98655 6.06065 5.29217C6.06065 5.59751 5.81312 5.84531 5.50749 5.84531C5.20186 5.84531 4.95434 5.59751 4.95434 5.29217C4.95462 4.98655 5.20186 4.73874 5.50749 4.73874ZM5.50749 6.6699C6.00254 6.6699 6.40416 7.07151 6.40416 7.56627C6.40416 8.0613 6.00254 8.46263 5.50749 8.46263C5.01216 8.46263 4.61082 8.0613 4.61082 7.56627C4.61082 7.07123 5.01216 6.6699 5.50749 6.6699ZM10.6568 11.2685C10.5417 11.4645 10.3312 11.5801 10.1048 11.5801H2.89354C2.66681 11.5801 2.45659 11.4645 2.34152 11.2685C2.22645 11.0725 2.22331 10.8333 2.33354 10.6345L3.20031 9.07644C3.32393 8.85371 3.56775 8.7261 3.82125 8.75031C4.97228 8.85997 6.26602 9.84464 7.42217 9.80077C8.04141 9.77713 8.61621 9.55154 9.16367 9.24991C9.47272 9.07901 9.86152 9.19095 10.033 9.4997L10.6651 10.6339C10.7747 10.833 10.7719 11.0728 10.6568 11.2685Z" fill="#F9E312"/>
</svg>
