<svg width="14" height="14" viewBox="0 0 14 14" fill="none" xmlns="http://www.w3.org/2000/svg">
<path d="M1.98921 8.49023L5.48171 11.9827C4.36281 12.4419 3.10811 12.4419 1.98921 11.9827C1.53008 10.8638 1.53008 9.60913 1.98921 8.49023ZM9.31777 10.6379L9.18413 12.7661L8.22325 13.727L0.24496 5.74869L1.20584 4.78781L3.33405 4.65417L6.22868 1.75955C7.96545 0.0227743 10.692 -0.206602 12.9828 0.989145C14.1785 3.27991 13.9492 6.00649 12.2124 7.74326L9.31777 10.6379ZM8.22325 5.74869C8.48775 6.01319 8.84648 6.16178 9.22053 6.16178C9.59459 6.16178 9.95332 6.01319 10.2178 5.74869C10.4823 5.4842 10.6309 5.12546 10.6309 4.75141C10.6309 4.37735 10.4823 4.01862 10.2178 3.75412C9.95332 3.48962 9.59459 3.34103 9.22054 3.34103C8.84648 3.34103 8.48775 3.48962 8.22325 3.75412C7.95875 4.01862 7.81016 4.37735 7.81016 4.75141C7.81016 5.12546 7.95875 5.4842 8.22325 5.74869Z" fill="#F9E312"/>
</svg>
