<svg width="12" height="14" viewBox="0 0 12 14" fill="none" xmlns="http://www.w3.org/2000/svg">
<path d="M0.522 1.162L6 0L11.478 1.162C11.626 1.19341 11.7584 1.27207 11.8533 1.38498C11.9482 1.4979 12 1.63833 12 1.78309V8.13845C12 8.76701 11.8373 9.38584 11.5266 9.94001C11.2158 10.4942 10.7666 10.9665 10.2187 11.3152L6 14L1.78133 11.3152C1.23352 10.9666 0.784307 10.4943 0.473565 9.94029C0.162824 9.38624 0.000157571 8.76754 0 8.13909V1.78309C2.60252e-05 1.63833 0.0517586 1.4979 0.14666 1.38498C0.241561 1.27207 0.373958 1.19341 0.522 1.162ZM6.66667 5.72727V2.54545L3.33333 7H5.33333V10.1818L8.66667 5.72727H6.66667Z" fill="#F9E312"/>
</svg>
