<svg width="11" height="15" viewBox="0 0 11 15" fill="none" xmlns="http://www.w3.org/2000/svg">
<path d="M6.1903 6.45605H4.78125L5.22691 9.73968H5.74464L6.1903 6.45605Z" fill="#F9E312"/>
<path d="M8.06079 10.697H2.93896V11.9603H8.06079V10.697Z" fill="#F9E312"/>
<path d="M5.50009 0C2.62482 0 0.293945 2.33087 0.293945 5.20615C0.293945 7.15044 1.35993 8.84553 2.93918 9.73956H4.26087L3.68525 5.49849H7.28668L6.71107 9.73956H8.06104C9.64028 8.84553 10.7062 7.15044 10.7062 5.20615C10.7062 2.33087 8.37536 0 5.50009 0Z" fill="#F9E312"/>
<path d="M5.49994 14.9999C6.75059 14.9999 7.79124 14.1032 8.0155 12.9177H2.98438C3.20864 14.1032 4.24929 14.9999 5.49994 14.9999Z" fill="#F9E312"/>
</svg>
