<svg width="5" height="7" viewBox="0 0 5 7" fill="none" xmlns="http://www.w3.org/2000/svg">
<path d="M4.80791 1.65009L3.93327 2.00786C3.86216 1.8886 3.7555 1.78425 3.61328 1.69481C3.41417 1.57556 3.15818 1.51593 2.8453 1.51593C2.51108 1.51593 2.24798 1.58301 2.05598 1.71717C1.91377 1.81655 1.84266 1.94326 1.84266 2.0973C1.84266 2.26624 1.9351 2.40537 2.11998 2.51469C2.2622 2.59916 2.4862 2.68363 2.79197 2.76811L3.32529 2.91717C3.86572 3.07121 4.26037 3.24512 4.50926 3.43891C4.83636 3.69233 4.99991 4.00537 4.99991 4.37804C4.99991 4.82525 4.79369 5.20289 4.38126 5.51096C4.05416 5.75444 3.66305 5.89854 3.20796 5.94326V6.69606H2.41864V5.96562C1.8711 5.93581 1.40889 5.77183 1.03201 5.4737C0.683575 5.2004 0.484469 4.87742 0.434692 4.50475L1.512 4.34078C1.512 4.57929 1.61155 4.79047 1.81066 4.97432C2.03821 5.17307 2.34753 5.27245 2.73863 5.27245C3.07996 5.27245 3.36084 5.19295 3.58128 5.03394C3.80172 4.87991 3.91194 4.68115 3.91194 4.43767C3.91194 4.22401 3.80883 4.04264 3.60261 3.89357C3.4675 3.79419 3.22929 3.69233 2.88796 3.58798L2.20531 3.38674C1.79288 3.26251 1.45867 3.11096 1.20267 2.93208C0.904014 2.71842 0.754684 2.465 0.754684 2.17183C0.754684 1.77432 0.936013 1.45382 1.29867 1.21034C1.60444 1.00661 1.97776 0.882391 2.41864 0.83767V0.174316H3.20796V0.830217C3.54928 0.850093 3.8586 0.93208 4.13593 1.07618C4.42748 1.23519 4.65147 1.42649 4.80791 1.65009Z" fill="white"/>
</svg>
