<svg width="9" height="13" viewBox="0 0 9 13" fill="none" xmlns="http://www.w3.org/2000/svg">
<path d="M8.3949 3.00191L6.77681 3.66378C6.64526 3.44316 6.44793 3.25011 6.18483 3.08465C5.81648 2.86403 5.34289 2.75372 4.76406 2.75372C4.14577 2.75372 3.65902 2.87782 3.30383 3.12601C3.04073 3.30987 2.90918 3.54427 2.90918 3.82924C2.90918 4.14179 3.08019 4.39918 3.42223 4.60142C3.68534 4.75769 4.09972 4.91396 4.6654 5.07024L5.65204 5.34601C6.65184 5.63098 7.38195 5.95272 7.84239 6.31123C8.44753 6.78005 8.7501 7.35918 8.7501 8.04862C8.7501 8.87595 8.36859 9.57459 7.60559 10.1445C7.00045 10.595 6.27691 10.8615 5.43498 10.9443V12.3369H3.97475V10.9856C2.9618 10.9305 2.10671 10.6271 1.40948 10.0756C0.764876 9.56999 0.39653 8.97247 0.304443 8.28303L2.29746 7.97968C2.29746 8.42092 2.48163 8.8116 2.84998 9.15173C3.27095 9.51943 3.8432 9.70328 4.56673 9.70328C5.19818 9.70328 5.71782 9.5562 6.12563 9.26204C6.53344 8.97707 6.73735 8.60937 6.73735 8.15893C6.73735 7.76365 6.5466 7.42813 6.16509 7.15235C5.91514 6.9685 5.47444 6.78005 4.84299 6.58701L3.58009 6.21471C2.81709 5.9849 2.1988 5.70452 1.72521 5.37359C1.17269 4.97831 0.896428 4.50949 0.896428 3.96713C0.896428 3.23173 1.23189 2.63881 1.9028 2.18837C2.46848 1.81148 3.15913 1.58167 3.97475 1.49893V0.271729H5.43498V1.48514C6.06643 1.52191 6.63868 1.67359 7.15173 1.94018C7.6911 2.23434 8.10549 2.58825 8.3949 3.00191Z" fill="white"/>
</svg>
