<svg width="8" height="7" viewBox="0 0 8 7" fill="none" xmlns="http://www.w3.org/2000/svg">
<path d="M4.08767 0.21582C5.89918 0.21582 7.3676 1.68425 7.3676 3.49575C7.3676 5.30726 5.89918 6.77569 4.08767 6.77569C2.27617 6.77569 0.807739 5.30726 0.807739 3.49575C0.807739 1.68425 2.27617 0.21582 4.08767 0.21582ZM4.63542 4.80773H3.53992L3.08729 5.42993L3.269 5.98949C3.53326 6.07603 3.8096 6.11999 4.08767 6.1197C4.37335 6.1197 4.64854 6.07378 4.90634 5.98949L5.08772 5.42993L4.63509 4.80773H4.63542ZM1.88815 3.12578L1.46438 3.43311L1.46373 3.49575C1.46373 4.06318 1.64379 4.5883 1.94981 5.01764H2.57628L3.01021 4.42069L2.67304 3.38095L1.88815 3.12578ZM6.28719 3.12578L5.50231 3.38095L5.16513 4.42069L5.59874 5.01764H6.2252C6.54232 4.5736 6.71241 4.0414 6.71162 3.49575L6.71063 3.43311L6.28719 3.12578ZM4.83878 0.981029L4.41566 1.28934V2.1149L5.29928 2.75678L6.03366 2.51833L6.21536 1.95976C5.87675 1.49102 5.39302 1.14701 4.8391 0.981029H4.83878ZM3.33591 0.981029C2.78194 1.1471 2.29821 1.49122 1.95965 1.96009L2.14136 2.51833L2.87574 2.75678L3.75968 2.1149V1.28934L3.33624 0.981029H3.33591Z" fill="white"/>
</svg>
