<svg width="6" height="7" viewBox="0 0 6 7" fill="none" xmlns="http://www.w3.org/2000/svg">
<path d="M1.20426 0.871826H4.41131C4.45657 0.871826 4.50121 0.882496 4.54169 0.902991C4.58217 0.923485 4.61739 0.953242 4.64455 0.989904L5.43173 2.0526V6.48051C5.43173 6.5588 5.40101 6.63389 5.34634 6.68924C5.29166 6.7446 5.2175 6.7757 5.14018 6.7757H0.475387C0.398064 6.7757 0.323907 6.7446 0.269231 6.68924C0.214555 6.63389 0.183838 6.5588 0.183838 6.48051V2.0526L0.971022 0.989904C0.998179 0.953242 1.03339 0.923485 1.07388 0.902991C1.11436 0.882496 1.159 0.871826 1.20426 0.871826ZM4.70286 2.0526L4.26553 1.46221H1.35004L0.912712 2.0526H4.70286ZM1.93314 3.23338H1.35004V3.82377C1.35004 4.21522 1.50362 4.59064 1.777 4.86743C2.05038 5.14423 2.42117 5.29974 2.80778 5.29974C3.1944 5.29974 3.56519 5.14423 3.83857 4.86743C4.11195 4.59064 4.26553 4.21522 4.26553 3.82377V3.23338H3.68243V3.82377C3.68243 4.05864 3.59028 4.28389 3.42625 4.44997C3.26223 4.61605 3.03976 4.70935 2.80778 4.70935C2.57581 4.70935 2.35334 4.61605 2.18931 4.44997C2.02529 4.28389 1.93314 4.05864 1.93314 3.82377V3.23338Z" fill="white"/>
</svg>
