<svg width="8" height="9" viewBox="0 0 8 9" fill="none" xmlns="http://www.w3.org/2000/svg">
<path d="M1.55556 0H6.44444C6.51344 0 6.58149 0.0162652 6.64321 0.0475077C6.70492 0.0787502 6.7586 0.124112 6.8 0.18L8 1.8V8.55C8 8.66935 7.95318 8.78381 7.86983 8.8682C7.78648 8.95259 7.67343 9 7.55556 9H0.444444C0.32657 9 0.213524 8.95259 0.130175 8.8682C0.0468252 8.78381 0 8.66935 0 8.55V1.8L1.2 0.18C1.2414 0.124112 1.29508 0.0787502 1.35679 0.0475077C1.41851 0.0162652 1.48656 0 1.55556 0ZM6.88889 1.8L6.22222 0.9H1.77778L1.11111 1.8H6.88889ZM2.66667 3.6H1.77778V4.5C1.77778 5.09674 2.0119 5.66903 2.42865 6.09099C2.8454 6.51295 3.41063 6.75 4 6.75C4.58937 6.75 5.1546 6.51295 5.57135 6.09099C5.9881 5.66903 6.22222 5.09674 6.22222 4.5V3.6H5.33333V4.5C5.33333 4.85804 5.19286 5.20142 4.94281 5.45459C4.69276 5.70777 4.35362 5.85 4 5.85C3.64638 5.85 3.30724 5.70777 3.05719 5.45459C2.80714 5.20142 2.66667 4.85804 2.66667 4.5V3.6Z" fill="white"/>
</svg>
