<svg width="21" height="17" viewBox="0 0 21 17" fill="none" xmlns="http://www.w3.org/2000/svg">
<path d="M10 11.5H8C6.3596 11.4994 4.75023 11.9471 3.34588 12.7949C1.94152 13.6427 0.795601 14.8582 0.0320014 16.31C0.010538 16.0405 -0.000137283 15.7703 1.33261e-06 15.5C1.33261e-06 9.977 4.477 5.5 10 5.5V0L20.5 8.5L10 17V11.5ZM8 9.5H12V12.808L17.321 8.5L12 4.192V7.5H10C8.85025 7.49871 7.71379 7.74582 6.66839 8.22442C5.62299 8.70302 4.69332 9.40182 3.943 10.273C5.23432 9.76122 6.61096 9.49892 8 9.5Z" fill="#8F93A4"/>
</svg>
