<svg width="24" height="24" viewBox="0 0 24 24" fill="none" xmlns="http://www.w3.org/2000/svg">
<path d="M14.6 16L21 16C21.5304 16 22.0391 15.7893 22.4142 15.4142C22.7893 15.0391 23 14.5304 23 14L23 11.896C23.0003 11.6346 22.9493 11.3758 22.85 11.134L19.754 3.62C19.6787 3.43675 19.5507 3.27999 19.3862 3.16961C19.2217 3.05923 19.0281 3.0002 18.83 3L2 3C1.73478 3 1.48043 3.10535 1.29289 3.29289C1.10535 3.48043 0.999998 3.73478 0.999998 4L0.999997 14C0.999997 14.2652 1.10535 14.5196 1.29289 14.7071C1.48043 14.8946 1.73478 15 2 15L5.482 15C5.64209 15 5.79986 15.0384 5.94203 15.112C6.0842 15.1856 6.20662 15.2922 6.299 15.423L11.752 23.149C11.8209 23.2467 11.9226 23.3164 12.0385 23.3456C12.1545 23.3748 12.277 23.3614 12.384 23.308L14.198 22.4C14.7085 22.1448 15.1163 21.7227 15.3537 21.2037C15.5911 20.6847 15.6438 20.1001 15.503 19.547L14.6 16ZM7 13.412L7 5L18.16 5L21 11.896L21 14L14.6 14C14.2954 14 13.9948 14.0697 13.7212 14.2035C13.4476 14.3374 13.2082 14.532 13.0213 14.7725C12.8343 15.013 12.7048 15.293 12.6425 15.5912C12.5802 15.8893 12.5869 16.1978 12.662 16.493L13.565 20.041C13.5933 20.1517 13.5828 20.2687 13.5353 20.3726C13.4878 20.4765 13.4062 20.561 13.304 20.612L12.643 20.942L7.933 14.27C7.683 13.916 7.363 13.626 7 13.412ZM5 13L3 13L3 5L5 5L5 13Z" fill="#8F93A4"/>
</svg>
