<svg width="92" height="39" viewBox="0 0 92 39" fill="none" xmlns="http://www.w3.org/2000/svg">
<path d="M17.3102 4.98899C17.0039 4.67802 16.8477 4.18227 16.8418 3.50172C16.8418 2.82178 16.9802 2.32483 17.2801 2.01446C17.5799 1.70409 18.0767 1.5498 18.7723 1.5498C19.4678 1.5498 19.9681 1.70409 20.2751 2.01446C20.582 2.32483 20.7364 2.82178 20.7435 3.50172C20.7506 4.18167 20.6033 4.67862 20.3053 4.98899C20.0072 5.29936 19.5068 5.45544 18.8113 5.45544C18.1158 5.45544 17.6172 5.29936 17.3102 4.98899ZM17.2765 18.1967L17.1612 6.65386H20.4862L20.6016 18.1967H17.2765Z" fill="white"/>
<path d="M26.186 6.65403H29.1793L29.2094 9.76131H26.2179L26.2605 13.6669C26.2605 14.1705 26.3788 14.5335 26.6154 14.7559C26.852 14.9784 27.2334 15.089 27.7598 15.0878H29.4898L29.5199 18.1969H27.6977C26.0417 18.1969 24.8375 17.871 24.0852 17.2191C23.3329 16.5673 22.9497 15.5244 22.9355 14.0903L22.8893 9.76131H21.3368L21.3066 6.65403H22.8592L22.8326 4.16748H26.1594L26.186 6.65403Z" fill="white"/>
<path d="M30.5594 18.1972L30.3926 1.55029H33.7123L33.7726 7.6321C34.519 6.83196 35.6759 6.43189 37.2432 6.43189C38.8401 6.43189 40.0082 6.85408 40.7475 7.69848C41.4868 8.54288 41.8659 9.89678 41.8848 11.7602L41.9505 18.1972H38.6307L38.5651 11.7602C38.558 10.99 38.3675 10.4272 37.9937 10.072C37.62 9.71678 37.0492 9.53738 36.2815 9.53379C35.4086 9.53379 34.7787 9.75864 34.3919 10.2083C34.0051 10.6581 33.8164 11.3948 33.8259 12.4186L33.8844 18.19L30.5594 18.1972Z" fill="white"/>
<path d="M44.4229 7.85252C45.3597 6.90527 46.8779 6.43164 48.9775 6.43164C51.0771 6.43164 52.6042 6.90527 53.5588 7.85252C54.5134 8.79978 55.0013 10.3241 55.0226 12.4255C55.0439 14.527 54.5861 16.0513 53.6493 16.9986C52.7125 17.9458 51.1948 18.4188 49.0964 18.4176C46.998 18.4165 45.4709 17.9434 44.5151 16.9986C43.5594 16.0513 43.0708 14.527 43.0495 12.4255C43.0282 10.3241 43.486 8.79978 44.4229 7.85252ZM46.3746 12.4255C46.3852 13.4326 46.6035 14.1652 47.0293 14.6232C47.4552 15.0813 48.1335 15.3104 49.0645 15.3104C49.9966 15.3104 50.6708 15.0813 51.0872 14.6232C51.5036 14.1652 51.707 13.4326 51.6975 12.4255C51.6869 11.4029 51.4687 10.6662 51.0428 10.2153C50.617 9.76438 49.9386 9.53952 49.0077 9.54072C48.0768 9.54072 47.4031 9.76557 46.9867 10.2153C46.5704 10.665 46.3663 11.4017 46.3746 12.4255Z" fill="white"/>
<path d="M55.0039 6.65411H58.5525L61.4056 14.2447L66.4074 0H69.9561L63.3308 18.197H59.5603L55.0039 6.65411Z" fill="white"/>
<path d="M68.9813 16.9862C68.035 16.0293 67.5506 14.5092 67.5281 12.4257C67.5057 10.3422 67.9599 8.82148 68.8908 7.86346C69.8206 6.90663 71.3275 6.42822 73.4118 6.42822C75.496 6.42822 77.0083 6.90185 77.9487 7.84911C78.8891 8.79636 79.3699 10.3207 79.3912 12.4221C79.3912 12.6613 79.38 13.016 79.3575 13.486H70.9526C71.2045 14.8495 72.0692 15.5306 73.5466 15.5294C74.6562 15.5294 75.4067 15.1592 75.7982 14.4189H79.2333C78.9671 15.8996 78.3497 16.9353 77.3809 17.5262C76.4121 18.117 75.1287 18.416 73.5306 18.4232C71.4476 18.4196 69.9312 17.9406 68.9813 16.9862ZM73.4845 9.31843C72.0946 9.31843 71.2578 9.89551 70.9739 11.0497H76.0289C75.7225 9.89432 74.8744 9.31723 73.4845 9.31843Z" fill="white"/>
<path d="M15.7577 11.8979C15.6374 11.1425 15.3625 10.4207 14.9507 9.7788C14.5389 9.13688 13.9991 8.58889 13.3659 8.16988L13.5203 7.81107C15.1686 4.06151 12.5976 0.0607965 8.53268 0.0590025C6.22962 0.0578065 3.92715 0.0578065 1.62527 0.0590025H1.00426C1.46558 1.1749 1.90739 2.20109 2.30661 3.24164C2.34246 3.37687 2.42361 3.49533 2.53622 3.5768C2.64883 3.65827 2.78591 3.6977 2.92407 3.68835H4.06673C5.12245 3.68835 6.17816 3.68835 7.23566 3.68835H7.2463C7.36518 3.68835 7.48406 3.70809 7.60116 3.71706C6.77554 4.22138 5.90606 4.64834 5.00357 4.99262C4.18916 5.27788 3.80591 5.75689 3.72606 6.61623C3.67638 7.15445 3.62315 7.26927 3.27006 7.29079C3.17425 7.29079 3.06247 7.29079 2.9152 7.29079H0.466645C0.473063 7.37413 0.485516 7.45688 0.503905 7.53837C0.887157 8.5251 1.27041 9.50823 1.67673 10.477L1.70867 10.556L1.75657 10.6708C1.80673 10.749 1.8742 10.8144 1.95365 10.8617C2.0331 10.909 2.12235 10.937 2.21434 10.9435C2.60469 10.9435 2.99327 10.9435 3.38362 10.9435C4.16787 10.9435 4.95389 10.9435 5.73991 10.9435C5.8925 10.9435 6.04686 10.9596 6.20123 10.9686C5.83229 11.2048 5.44547 11.4112 5.04438 11.5857C4.65869 11.797 4.25703 11.977 3.84317 12.124C2.81939 12.4128 2.26403 13.0353 2.2587 14.1297C2.27407 14.2126 2.26009 14.2983 2.21921 14.3717C2.17833 14.4452 2.11316 14.5018 2.03514 14.5316C1.94033 14.5663 1.83947 14.5809 1.73883 14.5746C1.18347 14.5513 0.628107 14.5746 0 14.5746C0.454225 15.7031 0.887157 16.7275 1.28106 17.7824C1.3128 17.9176 1.39287 18.0362 1.50587 18.1154C1.61887 18.1945 1.75682 18.2286 1.89319 18.2111C4.79065 18.195 7.68811 18.2111 10.5873 18.1986C13.7793 18.1699 16.3113 15.0787 15.7577 11.8979ZM7.88505 3.9754C7.90635 3.86955 8.03232 3.71347 8.12281 3.70271C8.2133 3.69194 8.26831 3.69194 8.33928 3.68835C8.98868 3.65785 9.5813 3.80676 10.0267 4.37009C10.2448 4.62304 10.3834 4.93598 10.4248 5.26895C10.4662 5.60192 10.4085 5.93982 10.2591 6.23948C10.1274 6.54728 9.91077 6.81017 9.63509 6.99663C9.35942 7.1831 9.03641 7.28523 8.70479 7.29079C8.64446 7.29079 8.58591 7.29079 8.52736 7.29079H8.37477C8.00571 7.29079 7.6331 7.29079 7.21791 7.29079C7.45212 6.09955 7.65972 5.03927 7.88505 3.9754ZM10.8606 14.467C10.0355 14.5172 9.20869 14.5262 8.37654 14.5208C7.54439 14.5154 6.6732 14.4975 5.80201 14.4975C5.90669 13.97 6.00783 13.4641 6.10542 12.9564C6.21365 12.3984 6.32543 11.8405 6.42302 11.279C6.42394 11.231 6.43478 11.1837 6.45483 11.1402C6.47488 11.0967 6.50371 11.0579 6.53946 11.0263C6.57521 10.9947 6.6171 10.971 6.66244 10.9567C6.70777 10.9425 6.75556 10.938 6.80272 10.9435H6.82401C7.21081 10.9435 7.59584 10.9435 7.98264 10.9435H8.37477C9.08449 10.9435 9.7818 10.9435 10.4862 10.9524C10.9216 10.9615 11.3385 11.1321 11.6575 11.4319C11.9765 11.7316 12.1753 12.1395 12.2162 12.5778C12.3084 13.4354 11.7229 14.4149 10.8606 14.467Z" fill="white"/>
<g opacity="0.5">
<path opacity="0.5" d="M31.2069 25.454L31.1874 25.436L31.1696 25.454H31.1199V25.5042L26.3861 30.2925C26.1686 30.5119 25.9961 30.7725 25.8786 31.0594C25.7611 31.3464 25.7008 31.654 25.7012 31.9646V35.2477C25.7007 35.3265 25.7234 35.4036 25.7664 35.4693C25.8095 35.535 25.8709 35.5862 25.9429 35.6165C26.0149 35.6467 26.0941 35.6545 26.1705 35.639C26.2469 35.6235 26.317 35.5853 26.3719 35.5293L32.6831 29.1479H91.0226C91.2358 29.1479 91.4402 29.0623 91.591 28.9099C91.7417 28.7575 91.8264 28.5508 91.8264 28.3352V26.2667C91.8264 26.0511 91.7417 25.8444 91.591 25.692C91.4402 25.5396 91.2358 25.454 91.0226 25.454H31.2069Z" fill="#F9E312"/>
</g>
<path d="M20.658 25.436H1.09623C1.01158 25.4358 0.927722 25.4525 0.849473 25.4851C0.771224 25.5178 0.700129 25.5657 0.640274 25.6263C0.58042 25.6868 0.532986 25.7587 0.500701 25.8378C0.468416 25.9169 0.451917 26.0017 0.452151 26.0873V28.4787C0.452151 28.6515 0.520009 28.8171 0.640796 28.9392C0.761584 29.0614 0.925408 29.13 1.09623 29.13H20.1293V38.3155H23.7755V25.436H20.658Z" fill="#F9E312"/>
<path d="M91.9963 17.953L91.9342 11.76C91.9176 9.90015 91.5385 8.54624 90.7969 7.69826C90.0552 6.85027 88.8883 6.42808 87.2961 6.43166C85.7312 6.43166 84.5749 6.83174 83.8274 7.63188L83.8185 6.65413H80.4863L80.6034 18.1952H83.9249L83.8664 12.4256C83.8575 11.403 84.0438 10.6674 84.4218 10.2153C84.7997 9.7632 85.4349 9.54074 86.322 9.54074C87.1051 9.54074 87.6794 9.72015 88.0449 10.079C88.4104 10.4378 88.5973 11.0005 88.6056 11.7671L88.6677 17.9602H88.6553V18.2993H91.9963V17.953Z" fill="white"/>
</svg>
