<svg width="108" height="45" viewBox="0 0 108 45" fill="none" xmlns="http://www.w3.org/2000/svg">
<path d="M20.3206 5.85688C19.961 5.49183 19.7777 4.90986 19.7708 4.11096C19.7708 3.31277 19.9332 2.72939 20.2852 2.36505C20.6372 2.0007 21.2204 1.81958 22.0369 1.81958C22.8534 1.81958 23.4408 2.0007 23.8011 2.36505C24.1615 2.72939 24.3427 3.31277 24.351 4.11096C24.3594 4.90916 24.1865 5.49253 23.8366 5.85688C23.4866 6.22123 22.8993 6.40445 22.0828 6.40445C21.2663 6.40445 20.681 6.22123 20.3206 5.85688ZM20.2811 21.3616L20.1457 7.8113H24.049L24.1844 21.3616H20.2811Z" fill="white"/>
<path d="M30.7394 7.81132H34.2533L34.2887 11.459H30.7769L30.8269 16.0439C30.8269 16.635 30.9658 17.0611 31.2435 17.3222C31.5212 17.5834 31.969 17.7133 32.587 17.7119H34.6178L34.6532 21.3617H32.5141C30.57 21.3617 29.1564 20.9791 28.2733 20.2139C27.3901 19.4487 26.9402 18.2243 26.9236 16.5409L26.8694 11.459H25.0469L25.0115 7.81132H26.834L26.8028 4.89233H30.7082L30.7394 7.81132Z" fill="white"/>
<path d="M35.8735 21.3616L35.6777 1.81958H39.5748L39.6456 8.9591C40.5218 8.0198 41.8799 7.55015 43.7198 7.55015C45.5944 7.55015 46.9656 8.04577 47.8335 9.03702C48.7014 10.0283 49.1464 11.6176 49.1686 13.8051L49.2457 21.3616H45.3486L45.2715 13.8051C45.2632 12.9009 45.0396 12.2403 44.6008 11.8233C44.162 11.4063 43.492 11.1957 42.5909 11.1915C41.5661 11.1915 40.8266 11.4555 40.3726 11.9834C39.9185 12.5113 39.697 13.3762 39.7081 14.578L39.7769 21.3532L35.8735 21.3616Z" fill="white"/>
<path d="M52.1494 9.21829C53.2491 8.10629 55.0314 7.55029 57.4962 7.55029C59.9609 7.55029 61.7536 8.10629 62.8742 9.21829C63.9948 10.3303 64.5676 12.1197 64.5926 14.5866C64.6176 17.0535 64.0802 18.8429 62.9804 19.9549C61.8806 21.0669 60.0991 21.6222 57.6357 21.6208C55.1723 21.6194 53.3797 21.0641 52.2577 19.9549C51.1357 18.8429 50.5622 17.0535 50.5372 14.5866C50.5122 12.1197 51.0496 10.3303 52.1494 9.21829ZM54.4405 14.5866C54.453 15.7688 54.7092 16.6288 55.2091 17.1665C55.709 17.7043 56.5054 17.9731 57.5982 17.9731C58.6924 17.9731 59.4839 17.7043 59.9727 17.1665C60.4615 16.6288 60.7003 15.7688 60.6892 14.5866C60.6767 13.3862 60.4205 12.5213 59.9206 11.992C59.4207 11.4626 58.6244 11.1987 57.5316 11.2001C56.4387 11.2001 55.6479 11.464 55.1591 11.992C54.6704 12.5199 54.4308 13.3848 54.4405 14.5866Z" fill="white"/>
<path d="M64.5696 7.81134H68.7354L72.0846 16.722L77.9563 0H82.1221L74.3446 21.3617H69.9184L64.5696 7.81134Z" fill="white"/>
<path d="M80.9785 19.94C79.8677 18.8168 79.299 17.0323 79.2727 14.5864C79.2463 12.1406 79.7795 10.3554 80.8723 9.23074C81.9638 8.10751 83.7328 7.5459 86.1795 7.5459C88.6262 7.5459 90.4016 8.1019 91.5055 9.21389C92.6094 10.3259 93.1739 12.1153 93.1989 14.5822C93.1989 14.863 93.1857 15.2793 93.1593 15.8311H83.2926C83.5884 17.4317 84.6035 18.2313 86.3378 18.2299C87.6403 18.2299 88.5214 17.7954 88.981 16.9263H93.0135C92.7011 18.6644 91.9762 19.8803 90.839 20.5739C89.7017 21.2675 88.1951 21.6185 86.3191 21.627C83.8738 21.6227 82.0936 21.0604 80.9785 19.94ZM86.2649 10.9387C84.6333 10.9387 83.6509 11.6162 83.3176 12.9711H89.2518C88.8921 11.6148 87.8965 10.9373 86.2649 10.9387Z" fill="white"/>
<path d="M18.4982 13.9672C18.3569 13.0804 18.0343 12.2332 17.5508 11.4796C17.0674 10.726 16.4337 10.0828 15.6904 9.59087L15.8716 9.16966C17.8066 4.76801 14.7885 0.0715185 10.0166 0.0694124C7.31303 0.0680084 4.61013 0.0680084 1.90793 0.0694124H1.17892C1.72047 1.37938 2.23911 2.58404 2.70776 3.80555C2.74984 3.9643 2.84511 4.10336 2.9773 4.199C3.1095 4.29464 3.27042 4.34092 3.4326 4.32995H4.77399C6.01331 4.32995 7.25263 4.32995 8.49403 4.32995H8.50653C8.64608 4.32995 8.78564 4.35312 8.92311 4.36365C7.9539 4.95568 6.9332 5.4569 5.87375 5.86105C4.91771 6.19592 4.4678 6.75823 4.37407 7.76703C4.31575 8.39885 4.25326 8.53363 3.83877 8.55891C3.72629 8.55891 3.59507 8.55891 3.42219 8.55891H0.5478C0.555335 8.65674 0.569954 8.75387 0.591541 8.84954C1.04145 10.0079 1.49135 11.162 1.96833 12.2993L2.00582 12.3919L2.06206 12.5267C2.12094 12.6186 2.20014 12.6953 2.29341 12.7509C2.38668 12.8064 2.49145 12.8393 2.59945 12.8468C3.05768 12.8468 3.51384 12.8468 3.97207 12.8468C4.89271 12.8468 5.81543 12.8468 6.73815 12.8468C6.91728 12.8468 7.09849 12.8658 7.27971 12.8763C6.84661 13.1536 6.39251 13.3959 5.92166 13.6008C5.4689 13.8488 4.99738 14.0601 4.51154 14.2326C3.30971 14.5717 2.65777 15.3025 2.65152 16.5872C2.66956 16.6845 2.65315 16.7851 2.60516 16.8713C2.55717 16.9576 2.48067 17.024 2.38908 17.0589C2.27777 17.0997 2.15938 17.1169 2.04123 17.1095C1.38929 17.0821 0.737343 17.1095 0 17.1095C0.53322 18.4342 1.04145 19.6367 1.50385 20.8751C1.54111 21.0339 1.63511 21.1731 1.76776 21.266C1.90041 21.3589 2.06235 21.399 2.22245 21.3784C5.62381 21.3595 9.02517 21.3784 12.4286 21.3637C16.1757 21.33 19.148 17.7013 18.4982 13.9672ZM9.25637 4.66692C9.28136 4.54267 9.42925 4.35944 9.53548 4.3468C9.6417 4.33417 9.70627 4.33417 9.78959 4.32995C10.5519 4.29415 11.2476 4.46895 11.7704 5.13025C12.0265 5.42719 12.1892 5.79456 12.2378 6.18544C12.2864 6.57632 12.2187 6.97298 12.0433 7.32476C11.8887 7.68609 11.6344 7.99469 11.3108 8.21359C10.9871 8.43248 10.608 8.55237 10.2187 8.55891C10.1478 8.55891 10.0791 8.55891 10.0104 8.55891H9.83125C9.39801 8.55891 8.9606 8.55891 8.4732 8.55891C8.74814 7.16049 8.99184 5.91581 9.25637 4.66692ZM12.7494 16.9831C11.7808 17.0421 10.8102 17.0526 9.83333 17.0463C8.85645 17.04 7.83375 17.0189 6.81105 17.0189C6.93395 16.3997 7.05267 15.8058 7.16723 15.2098C7.29429 14.5548 7.42551 13.8999 7.54007 13.2407C7.54115 13.1843 7.55387 13.1288 7.57741 13.0777C7.60095 13.0267 7.63479 12.9811 7.67676 12.944C7.71873 12.9069 7.7679 12.8791 7.82112 12.8624C7.87434 12.8457 7.93044 12.8404 7.98581 12.8468H8.0108C8.46487 12.8468 8.91686 12.8468 9.37093 12.8468H9.83125C10.6644 12.8468 11.483 12.8468 12.3099 12.8574C12.821 12.868 13.3104 13.0683 13.6848 13.4202C14.0593 13.772 14.2928 14.2508 14.3407 14.7654C14.449 15.7721 13.7617 16.922 12.7494 16.9831Z" fill="white"/>
<g opacity="0.5">
<path opacity="0.5" d="M36.6339 29.8807L36.611 29.8596L36.5901 29.8807H36.5318V29.9397L30.9747 35.5607C30.7194 35.8182 30.5169 36.1242 30.379 36.461C30.241 36.7979 30.1702 37.1589 30.1707 37.5235V41.3776C30.1701 41.4701 30.1967 41.5607 30.2473 41.6378C30.2978 41.7149 30.3699 41.7751 30.4544 41.8105C30.5389 41.846 30.6319 41.8552 30.7216 41.837C30.8113 41.8188 30.8936 41.774 30.958 41.7083L38.3668 34.217H106.852C107.103 34.217 107.343 34.1165 107.52 33.9376C107.696 33.7587 107.796 33.516 107.796 33.263V30.8347C107.796 30.5817 107.696 30.339 107.52 30.1601C107.343 29.9812 107.103 29.8807 106.852 29.8807H36.6339Z" fill="#F9E312"/>
</g>
<path d="M24.2512 29.8596H1.28734C1.18797 29.8593 1.08953 29.8789 0.997675 29.9173C0.905817 29.9556 0.822358 30.0119 0.752093 30.0829C0.681829 30.154 0.626147 30.2384 0.588247 30.3312C0.550347 30.4241 0.530978 30.5236 0.531253 30.6241V33.4315C0.531253 33.6342 0.610912 33.8287 0.752706 33.9721C0.894501 34.1154 1.08682 34.196 1.28734 34.196H23.6305V44.979H27.9109V29.8596H24.2512Z" fill="#F9E312"/>
<path d="M107.996 21.0751L107.923 13.8051C107.903 11.6218 107.458 10.0324 106.588 9.03695C105.717 8.04149 104.347 7.54586 102.478 7.55008C100.641 7.55008 99.2838 8.01973 98.4062 8.95902L98.3958 7.81123H94.4841L94.6216 21.3595H98.5208L98.452 14.5864C98.4416 13.3859 98.6603 12.5225 99.104 11.9917C99.5476 11.461 100.293 11.1999 101.335 11.1999C102.254 11.1999 102.928 11.4105 103.357 11.8317C103.786 12.2529 104.006 12.9135 104.015 13.8135L104.088 21.0836H104.074V21.4816H107.996V21.0751Z" fill="white"/>
</svg>
