<svg width="119" height="29" fill="none" xmlns="http://www.w3.org/2000/svg"><path d="M38.646 4.244c0 .835-.256 1.503-.76 2.002-.58.591-1.336.889-2.261.889-.885 0-1.64-.303-2.26-.899-.62-.605-.93-1.347-.93-2.236 0-.889.31-1.631.93-2.231.62-.602 1.375-.904 2.26-.904.44 0 .86.089 1.26.254.4.166.726.391.961.668l-.535.528c-.411-.474-.97-.708-1.686-.708-.645 0-1.205.22-1.68.664-.47.445-.705 1.021-.705 1.729 0 .707.235 1.289.705 1.734a2.399 2.399 0 0 0 1.68.663c.685 0 1.26-.225 1.715-.668.3-.294.47-.699.515-1.217h-2.23V3.79H38.6c.036.156.046.307.046.454ZM43.367 1.739h-2.795v1.9h2.52v.722h-2.52v1.9h2.795v.737H39.78V1.003h3.586v.736ZM46.698 6.998h-.791v-5.26h-1.715v-.735h4.221v.736h-1.715v5.259ZM51.468 6.998V1.003h.79v5.995h-.79ZM55.76 6.998h-.785v-5.26h-1.72v-.735h4.226v.736H55.76v5.259ZM65.472 6.226c-.605.606-1.355.909-2.25.909-.9 0-1.65-.303-2.256-.909C60.36 5.621 60.06 4.88 60.06 4s.301-1.621.906-2.226c.605-.607 1.355-.909 2.256-.909.89 0 1.64.302 2.245.914.61.61.91 1.347.91 2.221 0 .879-.3 1.621-.905 2.226Zm-3.921-.502c.456.448 1.01.673 1.67.673.656 0 1.216-.225 1.666-.673.455-.449.685-1.025.685-1.724 0-.699-.23-1.275-.685-1.724-.45-.449-1.01-.674-1.665-.674-.661 0-1.215.225-1.671.674-.455.449-.685 1.025-.685 1.724 0 .699.23 1.275.685 1.724ZM67.487 6.998V1.003h.96l2.986 4.662h.035l-.035-1.152v-3.51h.79v5.995H71.4l-3.127-4.893h-.034l.034 1.158v3.735h-.785Z" fill="#fff" stroke="#fff" stroke-width=".123" stroke-miterlimit="10"/><path d="M59.866 15.752c-2.406 0-4.371 1.788-4.371 4.254 0 2.446 1.965 4.253 4.37 4.253 2.412 0 4.377-1.807 4.377-4.253 0-2.466-1.965-4.254-4.376-4.254Zm0 6.832c-1.32 0-2.456-1.064-2.456-2.578 0-1.534 1.136-2.579 2.456-2.579s2.46 1.045 2.46 2.58c0 1.513-1.14 2.577-2.46 2.577Zm-9.537-6.832c-2.41 0-4.371 1.788-4.371 4.254 0 2.446 1.96 4.253 4.37 4.253s4.372-1.807 4.372-4.253c0-2.466-1.962-4.254-4.371-4.254Zm0 6.832c-1.321 0-2.46-1.064-2.46-2.578 0-1.534 1.139-2.579 2.46-2.579 1.32 0 2.456 1.045 2.456 2.58 0 1.513-1.136 2.577-2.456 2.577ZM38.98 17.056v1.808h4.421c-.129 1.01-.475 1.752-1.005 2.27-.645.625-1.65 1.318-3.416 1.318-2.72 0-4.85-2.143-4.85-4.8 0-2.656 2.13-4.8 4.85-4.8 1.472 0 2.542.562 3.332 1.29l1.304-1.275c-1.105-1.03-2.574-1.82-4.636-1.82-3.73 0-6.866 2.963-6.866 6.605 0 3.643 3.136 6.607 6.866 6.607 2.017 0 3.532-.645 4.722-1.855 1.22-1.192 1.6-2.867 1.6-4.22 0-.42-.035-.805-.1-1.128H38.98Zm46.406 1.401c-.36-.95-1.47-2.705-3.73-2.705-2.242 0-4.107 1.724-4.107 4.254 0 2.383 1.846 4.253 4.321 4.253a4.342 4.342 0 0 0 3.631-1.885l-1.485-.967c-.496.708-1.17 1.177-2.146 1.177-.969 0-1.664-.434-2.11-1.29l5.827-2.353-.201-.484Zm-5.94 1.417a2.359 2.359 0 0 1 2.274-2.48c.76 0 1.406.37 1.621.902l-3.896 1.578ZM74.71 24h1.915V11.5H74.71V24Zm-3.137-7.3h-.064c-.43-.498-1.251-.948-2.29-.948-2.182 0-4.177 1.87-4.177 4.268 0 2.384 1.995 4.239 4.176 4.239 1.04 0 1.86-.454 2.29-.967h.065v.61c0 1.627-.89 2.5-2.325 2.5-1.17 0-1.896-.825-2.196-1.518l-1.666.678c.48 1.128 1.752 2.515 3.862 2.515 2.245 0 4.14-1.29 4.14-4.428V16.01h-1.815v.689Zm-2.19 5.884c-1.32 0-2.426-1.08-2.426-2.564 0-1.499 1.105-2.593 2.425-2.593 1.301 0 2.326 1.094 2.326 2.593 0 1.485-1.025 2.564-2.326 2.564ZM94.352 11.5h-4.58V24h1.91v-4.736h2.67c2.121 0 4.202-1.5 4.202-3.883 0-2.382-2.086-3.881-4.202-3.881Zm.05 6.025h-2.72v-4.286h2.72a2.195 2.195 0 0 1 2.24 2.142c0 .968-.814 2.144-2.24 2.144Zm11.808-1.796c-1.38 0-2.815.595-3.406 1.913l1.696.694c.364-.694 1.035-.919 1.745-.919.991 0 1.996.582 2.011 1.608v.131c-.346-.195-1.086-.484-1.996-.484-1.826 0-3.686.982-3.686 2.813 0 1.675 1.495 2.754 3.176 2.754 1.286 0 1.995-.567 2.441-1.225h.065v.966h1.845v-4.795c0-2.216-1.695-3.456-3.891-3.456Zm-.23 6.85c-.625 0-1.496-.303-1.496-1.06 0-.967 1.086-1.338 2.026-1.338.841 0 1.235.181 1.746.42-.15 1.158-1.17 1.978-2.276 1.978Zm10.842-6.577-2.195 5.42h-.066l-2.27-5.42h-2.06l3.411 7.573-1.946 4.214h1.996l5.256-11.787h-2.126ZM99.605 24h1.915V11.5h-1.915V24Z" fill="#fff"/><path d="M.767 1.539c-.3.307-.475.786-.475 1.406V25.06c0 .62.175 1.099.475 1.406l.075.068 12.693-12.388v-.292L.841 1.466l-.075.073Z" fill="url(#a)"/><path d="m17.76 18.278-4.225-4.132v-.292l4.231-4.131.095.053 5.01 2.784c1.43.79 1.43 2.09 0 2.885l-5.01 2.779-.1.054Z" fill="url(#b)"/><path d="M17.86 18.224 13.536 14 .768 26.466c.475.488 1.25.547 2.13.06l14.963-8.302" fill="url(#c)"/><path d="M17.86 9.776 2.899 1.475c-.88-.483-1.655-.424-2.13.064L13.535 14l4.326-4.224Z" fill="url(#d)"/><defs><linearGradient id="a" x1="12.408" y1="25.291" x2="-4.37" y2="8.106" gradientUnits="userSpaceOnUse"><stop stop-color="#00A0FF"/><stop offset=".007" stop-color="#00A1FF"/><stop offset=".26" stop-color="#00BEFF"/><stop offset=".512" stop-color="#00D2FF"/><stop offset=".76" stop-color="#00DFFF"/><stop offset="1" stop-color="#00E3FF"/></linearGradient><linearGradient id="b" x1="24.734" y1="13.999" x2="-.049" y2="13.999" gradientUnits="userSpaceOnUse"><stop stop-color="#FFE000"/><stop offset=".409" stop-color="#FFBD00"/><stop offset=".775" stop-color="orange"/><stop offset="1" stop-color="#FF9C00"/></linearGradient><linearGradient id="c" x1="15.508" y1="11.704" x2="-7.243" y2="-11.599" gradientUnits="userSpaceOnUse"><stop stop-color="#FF3A44"/><stop offset="1" stop-color="#C31162"/></linearGradient><linearGradient id="d" x1="-2.446" y1="33.824" x2="7.714" y2="23.418" gradientUnits="userSpaceOnUse"><stop stop-color="#32A071"/><stop offset=".069" stop-color="#2DA771"/><stop offset=".476" stop-color="#15CF74"/><stop offset=".801" stop-color="#06E775"/><stop offset="1" stop-color="#00F076"/></linearGradient></defs></svg>