

<svg xmlns="http://www.w3.org/2000/svg">

	<symbol width="9" height="6" viewBox="0 0 9 6" fill="none" id="arrow">
		<path d="M4.5 3.81846L7.45683 0.592736C7.74895 0.27405 8.25136 0.274049 8.54348 0.592735C8.80178 0.874522 8.80178 1.30702 8.54348 1.5888L5.23716 5.1958C4.84083 5.62818 4.15917 5.62818 3.76284 5.1958L0.456518 1.5888C0.198221 1.30702 0.198221 0.874522 0.456518 0.592735C0.748638 0.274049 1.25105 0.274049 1.54317 0.592735L4.5 3.81846Z" fill="white" />
	</symbol>

	<symbol width="92" height="39" viewBox="0 0 92 39" fill="none" id="logo">
		<path d="M17.3102 4.98899C17.0039 4.67802 16.8477 4.18227 16.8418 3.50172C16.8418 2.82178 16.9802 2.32483 17.2801 2.01446C17.5799 1.70409 18.0767 1.5498 18.7723 1.5498C19.4678 1.5498 19.9681 1.70409 20.2751 2.01446C20.582 2.32483 20.7364 2.82178 20.7435 3.50172C20.7506 4.18167 20.6033 4.67862 20.3053 4.98899C20.0072 5.29936 19.5068 5.45544 18.8113 5.45544C18.1158 5.45544 17.6172 5.29936 17.3102 4.98899ZM17.2765 18.1967L17.1612 6.65386H20.4862L20.6016 18.1967H17.2765Z" fill="white" />
		<path d="M26.186 6.65403H29.1793L29.2094 9.76131H26.2179L26.2605 13.6669C26.2605 14.1705 26.3788 14.5335 26.6154 14.7559C26.852 14.9784 27.2334 15.089 27.7598 15.0878H29.4898L29.5199 18.1969H27.6977C26.0417 18.1969 24.8375 17.871 24.0852 17.2191C23.3329 16.5673 22.9497 15.5244 22.9355 14.0903L22.8893 9.76131H21.3368L21.3066 6.65403H22.8592L22.8326 4.16748H26.1594L26.186 6.65403Z" fill="white" />
		<path d="M30.5594 18.1972L30.3926 1.55029H33.7123L33.7726 7.6321C34.519 6.83196 35.6759 6.43189 37.2432 6.43189C38.8401 6.43189 40.0082 6.85408 40.7475 7.69848C41.4868 8.54288 41.8659 9.89678 41.8848 11.7602L41.9505 18.1972H38.6307L38.5651 11.7602C38.558 10.99 38.3675 10.4272 37.9937 10.072C37.62 9.71678 37.0492 9.53738 36.2815 9.53379C35.4086 9.53379 34.7787 9.75864 34.3919 10.2083C34.0051 10.6581 33.8164 11.3948 33.8259 12.4186L33.8844 18.19L30.5594 18.1972Z" fill="white" />
		<path d="M44.4229 7.85252C45.3597 6.90527 46.8779 6.43164 48.9775 6.43164C51.0771 6.43164 52.6042 6.90527 53.5588 7.85252C54.5134 8.79978 55.0013 10.3241 55.0226 12.4255C55.0439 14.527 54.5861 16.0513 53.6493 16.9986C52.7125 17.9458 51.1948 18.4188 49.0964 18.4176C46.998 18.4165 45.4709 17.9434 44.5151 16.9986C43.5594 16.0513 43.0708 14.527 43.0495 12.4255C43.0282 10.3241 43.486 8.79978 44.4229 7.85252ZM46.3746 12.4255C46.3852 13.4326 46.6035 14.1652 47.0293 14.6232C47.4552 15.0813 48.1335 15.3104 49.0645 15.3104C49.9966 15.3104 50.6708 15.0813 51.0872 14.6232C51.5036 14.1652 51.707 13.4326 51.6975 12.4255C51.6869 11.4029 51.4687 10.6662 51.0428 10.2153C50.617 9.76438 49.9386 9.53952 49.0077 9.54072C48.0768 9.54072 47.4031 9.76557 46.9867 10.2153C46.5704 10.665 46.3663 11.4017 46.3746 12.4255Z" fill="white" />
		<path d="M55.0039 6.65411H58.5525L61.4056 14.2447L66.4074 0H69.9561L63.3308 18.197H59.5603L55.0039 6.65411Z" fill="white" />
		<path d="M68.9813 16.9862C68.035 16.0293 67.5506 14.5092 67.5281 12.4257C67.5057 10.3422 67.9599 8.82148 68.8908 7.86346C69.8206 6.90663 71.3275 6.42822 73.4118 6.42822C75.496 6.42822 77.0083 6.90185 77.9487 7.84911C78.8891 8.79636 79.3699 10.3207 79.3912 12.4221C79.3912 12.6613 79.38 13.016 79.3575 13.486H70.9526C71.2045 14.8495 72.0692 15.5306 73.5466 15.5294C74.6562 15.5294 75.4067 15.1592 75.7982 14.4189H79.2333C78.9671 15.8996 78.3497 16.9353 77.3809 17.5262C76.4121 18.117 75.1287 18.416 73.5306 18.4232C71.4476 18.4196 69.9312 17.9406 68.9813 16.9862ZM73.4845 9.31843C72.0946 9.31843 71.2578 9.89551 70.9739 11.0497H76.0289C75.7225 9.89432 74.8744 9.31723 73.4845 9.31843Z" fill="white" />
		<path d="M15.7577 11.8979C15.6374 11.1425 15.3625 10.4207 14.9507 9.7788C14.5389 9.13688 13.9991 8.58889 13.3659 8.16988L13.5203 7.81107C15.1686 4.06151 12.5976 0.0607965 8.53268 0.0590025C6.22962 0.0578065 3.92715 0.0578065 1.62527 0.0590025H1.00426C1.46558 1.1749 1.90739 2.20109 2.30661 3.24164C2.34246 3.37687 2.42361 3.49533 2.53622 3.5768C2.64883 3.65827 2.78591 3.6977 2.92407 3.68835H4.06673C5.12245 3.68835 6.17816 3.68835 7.23566 3.68835H7.2463C7.36518 3.68835 7.48406 3.70809 7.60116 3.71706C6.77554 4.22138 5.90606 4.64834 5.00357 4.99262C4.18916 5.27788 3.80591 5.75689 3.72606 6.61623C3.67638 7.15445 3.62315 7.26927 3.27006 7.29079C3.17425 7.29079 3.06247 7.29079 2.9152 7.29079H0.466645C0.473063 7.37413 0.485516 7.45688 0.503905 7.53837C0.887157 8.5251 1.27041 9.50823 1.67673 10.477L1.70867 10.556L1.75657 10.6708C1.80673 10.749 1.8742 10.8144 1.95365 10.8617C2.0331 10.909 2.12235 10.937 2.21434 10.9435C2.60469 10.9435 2.99327 10.9435 3.38362 10.9435C4.16787 10.9435 4.95389 10.9435 5.73991 10.9435C5.8925 10.9435 6.04686 10.9596 6.20123 10.9686C5.83229 11.2048 5.44547 11.4112 5.04438 11.5857C4.65869 11.797 4.25703 11.977 3.84317 12.124C2.81939 12.4128 2.26403 13.0353 2.2587 14.1297C2.27407 14.2126 2.26009 14.2983 2.21921 14.3717C2.17833 14.4452 2.11316 14.5018 2.03514 14.5316C1.94033 14.5663 1.83947 14.5809 1.73883 14.5746C1.18347 14.5513 0.628107 14.5746 0 14.5746C0.454225 15.7031 0.887157 16.7275 1.28106 17.7824C1.3128 17.9176 1.39287 18.0362 1.50587 18.1154C1.61887 18.1945 1.75682 18.2286 1.89319 18.2111C4.79065 18.195 7.68811 18.2111 10.5873 18.1986C13.7793 18.1699 16.3113 15.0787 15.7577 11.8979ZM7.88505 3.9754C7.90635 3.86955 8.03232 3.71347 8.12281 3.70271C8.2133 3.69194 8.26831 3.69194 8.33928 3.68835C8.98868 3.65785 9.5813 3.80676 10.0267 4.37009C10.2448 4.62304 10.3834 4.93598 10.4248 5.26895C10.4662 5.60192 10.4085 5.93982 10.2591 6.23948C10.1274 6.54728 9.91077 6.81017 9.63509 6.99663C9.35942 7.1831 9.03641 7.28523 8.70479 7.29079C8.64446 7.29079 8.58591 7.29079 8.52736 7.29079H8.37477C8.00571 7.29079 7.6331 7.29079 7.21791 7.29079C7.45212 6.09955 7.65972 5.03927 7.88505 3.9754ZM10.8606 14.467C10.0355 14.5172 9.20869 14.5262 8.37654 14.5208C7.54439 14.5154 6.6732 14.4975 5.80201 14.4975C5.90669 13.97 6.00783 13.4641 6.10542 12.9564C6.21365 12.3984 6.32543 11.8405 6.42302 11.279C6.42394 11.231 6.43478 11.1837 6.45483 11.1402C6.47488 11.0967 6.50371 11.0579 6.53946 11.0263C6.57521 10.9947 6.6171 10.971 6.66244 10.9567C6.70777 10.9425 6.75556 10.938 6.80272 10.9435H6.82401C7.21081 10.9435 7.59584 10.9435 7.98264 10.9435H8.37477C9.08449 10.9435 9.7818 10.9435 10.4862 10.9524C10.9216 10.9615 11.3385 11.1321 11.6575 11.4319C11.9765 11.7316 12.1753 12.1395 12.2162 12.5778C12.3084 13.4354 11.7229 14.4149 10.8606 14.467Z" fill="white" />
		<g opacity="0.5">
			<path opacity="0.5" d="M31.2069 25.454L31.1874 25.436L31.1696 25.454H31.1199V25.5042L26.3861 30.2925C26.1686 30.5119 25.9961 30.7725 25.8786 31.0594C25.7611 31.3464 25.7008 31.654 25.7012 31.9646V35.2477C25.7007 35.3265 25.7234 35.4036 25.7664 35.4693C25.8095 35.535 25.8709 35.5862 25.9429 35.6165C26.0149 35.6467 26.0941 35.6545 26.1705 35.639C26.2469 35.6235 26.317 35.5853 26.3719 35.5293L32.6831 29.1479H91.0226C91.2358 29.1479 91.4402 29.0623 91.591 28.9099C91.7417 28.7575 91.8264 28.5508 91.8264 28.3352V26.2667C91.8264 26.0511 91.7417 25.8444 91.591 25.692C91.4402 25.5396 91.2358 25.454 91.0226 25.454H31.2069Z" fill="#F9E312" />
		</g>
		<path d="M20.658 25.436H1.09623C1.01158 25.4358 0.927722 25.4525 0.849473 25.4851C0.771224 25.5178 0.700129 25.5657 0.640274 25.6263C0.58042 25.6868 0.532986 25.7587 0.500701 25.8378C0.468416 25.9169 0.451917 26.0017 0.452151 26.0873V28.4787C0.452151 28.6515 0.520009 28.8171 0.640796 28.9392C0.761584 29.0614 0.925408 29.13 1.09623 29.13H20.1293V38.3155H23.7755V25.436H20.658Z" fill="#F9E312" />
		<path d="M91.9963 17.953L91.9342 11.76C91.9176 9.90015 91.5385 8.54624 90.7969 7.69826C90.0552 6.85027 88.8883 6.42808 87.2961 6.43166C85.7312 6.43166 84.5749 6.83174 83.8274 7.63188L83.8185 6.65413H80.4863L80.6034 18.1952H83.9249L83.8664 12.4256C83.8575 11.403 84.0438 10.6674 84.4218 10.2153C84.7997 9.7632 85.4349 9.54074 86.322 9.54074C87.1051 9.54074 87.6794 9.72015 88.0449 10.079C88.4104 10.4378 88.5973 11.0005 88.6056 11.7671L88.6677 17.9602H88.6553V18.2993H91.9963V17.953Z" fill="white" />
	</symbol>

	<symbol width="40" height="39" viewBox="0 0 40 39" fill="none" id="discord">
			<g opacity="0.5" filter="url(#filter0_b_397_3584)">
				<path d="M39.6143 19.4614C39.6143 30.2097 30.9011 38.9229 20.1528 38.9229C9.40459 38.9229 0.691406 30.2097 0.691406 19.4614C0.691406 8.71318 9.40459 0 20.1528 0C30.9011 0 39.6143 8.71318 39.6143 19.4614Z" fill="white" fill-opacity="0.2" />
			</g>
			<path d="M26.858 10.7041H13.4463C12.3153 10.7041 11.3945 11.5993 11.3945 12.7086V25.8646C11.3945 26.9739 12.3153 27.8691 13.4463 27.8691H24.7962L24.2658 26.0689L25.5469 27.2269L26.7579 28.3167L28.9098 30.1655V12.7086C28.9098 11.5993 27.989 10.7041 26.858 10.7041ZM22.9947 23.4124C22.9947 23.4124 22.6343 22.994 22.3341 22.6242C23.6452 22.2642 24.1457 21.4663 24.1457 21.4663C23.7353 21.729 23.345 21.9139 22.9947 22.0404C22.4942 22.2447 22.0138 22.381 21.5434 22.4588C20.5826 22.634 19.7018 22.5853 18.9511 22.4491C18.3806 22.342 17.8902 22.1863 17.4798 22.0307C17.2496 21.9431 16.9994 21.836 16.7492 21.6998C16.7192 21.6804 16.6892 21.6706 16.6591 21.6512C16.6391 21.6414 16.6291 21.6317 16.6191 21.622C16.4389 21.5247 16.3388 21.4565 16.3388 21.4565C16.3388 21.4565 16.8193 22.235 18.0904 22.6048C17.7901 22.9745 17.4198 23.4124 17.4198 23.4124C15.2079 23.3443 14.3671 21.9333 14.3671 21.9333C14.3671 18.8001 15.8084 16.2603 15.8084 16.2603C17.2496 15.2094 18.6208 15.2386 18.6208 15.2386L18.7209 15.3554C16.9194 15.8614 16.0886 16.6301 16.0886 16.6301C16.0886 16.6301 16.3088 16.5133 16.6791 16.3479C17.7501 15.8906 18.6008 15.7641 18.9511 15.7349C19.0112 15.7252 19.0612 15.7154 19.1213 15.7154C19.7318 15.6376 20.4224 15.6181 21.143 15.696C22.0939 15.803 23.1148 16.0755 24.1557 16.6301C24.1557 16.6301 23.365 15.9003 21.6635 15.3943L21.8036 15.2386C21.8036 15.2386 23.1748 15.2094 24.6161 16.2603C24.6161 16.2603 26.0573 18.8001 26.0573 21.9333C26.0573 21.9333 25.2066 23.3443 22.9947 23.4124ZM18.3406 18.8682C17.7701 18.8682 17.3197 19.3547 17.3197 19.9483C17.3197 20.5419 17.7801 21.0284 18.3406 21.0284C18.9111 21.0284 19.3615 20.5419 19.3615 19.9483C19.3715 19.3547 18.9111 18.8682 18.3406 18.8682ZM21.9938 18.8682C21.4233 18.8682 20.9729 19.3547 20.9729 19.9483C20.9729 20.5419 21.4333 21.0284 21.9938 21.0284C22.5643 21.0284 23.0147 20.5419 23.0147 19.9483C23.0147 19.3547 22.5643 18.8682 21.9938 18.8682Z" fill="white" />
			<defs>
				<filter id="filter0_b_397_3584" x="-3.30859" y="-4" width="46.9229" height="46.9229" filterUnits="userSpaceOnUse" color-interpolation-filters="sRGB">
					<feFlood flood-opacity="0" result="BackgroundImageFix" />
					<feGaussianBlur in="BackgroundImage" stdDeviation="2" />
					<feComposite in2="SourceAlpha" operator="in" result="effect1_backgroundBlur_397_3584" />
					<feBlend mode="normal" in="SourceGraphic" in2="effect1_backgroundBlur_397_3584" result="shape" />
				</filter>
			</defs>
	</symbol>

	<symbol width="40" height="39" viewBox="0 0 40 39" fill="none" id="facebook">
		<g opacity="0.5" filter="url(#filter0_b_397_3581)">
				<circle cx="20.23" cy="19.4614" r="19.4614" fill="white" fill-opacity="0.2" />
			</g>
			<path d="M28.9875 13.4468C28.9875 11.9898 27.7019 10.7041 26.2448 10.7041H15.1881C13.731 10.7041 12.4453 11.9898 12.4453 13.4468V24.5036C12.4453 25.9606 13.731 27.2463 15.1881 27.2463H20.7593V20.9894H18.7022V18.2467H20.7593V17.1324C20.7593 15.2468 22.1307 13.6183 23.8449 13.6183H26.0734V16.361H23.8449C23.5877 16.361 23.3306 16.6182 23.3306 17.1324V18.2467H26.0734V20.9894H23.3306V27.2463H26.2448C27.7019 27.2463 28.9875 25.9606 28.9875 24.5036V13.4468Z" fill="white" />
			<defs>
				<filter id="filter0_b_397_3581" x="-3.23145" y="-4" width="46.9229" height="46.9229" filterUnits="userSpaceOnUse" color-interpolation-filters="sRGB">
					<feFlood flood-opacity="0" result="BackgroundImageFix" />
					<feGaussianBlur in="BackgroundImage" stdDeviation="2" />
					<feComposite in2="SourceAlpha" operator="in" result="effect1_backgroundBlur_397_3581" />
					<feBlend mode="normal" in="SourceGraphic" in2="effect1_backgroundBlur_397_3581" result="shape" />
				</filter>
			</defs>
	</symbol>

	<symbol width="40" height="39" viewBox="0 0 40 39" fill="none" id="inst">
			<g opacity="0.5" filter="url(#filter0_b_397_3578)">
				<circle cx="20.3071" cy="19.4614" r="19.4614" fill="white" fill-opacity="0.2" />
			</g>
			<path d="M26.7106 11.6768H14.8765C13.5404 11.6768 12.5225 12.6947 12.5225 14.0308V25.8649C12.5225 27.201 13.5404 28.219 14.8765 28.219H26.7106C28.0467 28.219 29.0647 27.201 29.0647 25.8649V14.0308C29.0647 12.6947 28.0467 11.6768 26.7106 11.6768ZM20.7936 24.9105C23.5294 24.9105 25.7562 22.7473 25.7562 20.1387C25.7562 19.6934 25.6926 19.1844 25.5654 18.8026H26.9651V25.5468C26.9651 25.8649 26.7106 26.183 26.3288 26.183H15.2583C14.9402 26.183 14.6221 25.9285 14.6221 25.5468V18.739H16.0854C15.9582 19.1844 15.8945 19.6297 15.8945 20.0751C15.8309 22.7473 18.0577 24.9105 20.7936 24.9105ZM20.7936 23.0018C19.0121 23.0018 17.6124 21.6021 17.6124 19.8842C17.6124 18.1664 19.0121 16.7667 20.7936 16.7667C22.575 16.7667 23.9748 18.1664 23.9748 19.8842C23.9748 21.6657 22.575 23.0018 20.7936 23.0018ZM26.9015 16.1941C26.9015 16.5758 26.5833 16.8939 26.2016 16.8939H24.4201C24.0384 16.8939 23.7203 16.5758 23.7203 16.1941V14.4762C23.7203 14.0945 24.0384 13.7763 24.4201 13.7763H26.2016C26.5833 13.7763 26.9015 14.0945 26.9015 14.4762V16.1941Z" fill="white" />
			<defs>
				<filter id="filter0_b_397_3578" x="-3.1543" y="-4" width="46.9229" height="46.9229" filterUnits="userSpaceOnUse" color-interpolation-filters="sRGB">
					<feFlood flood-opacity="0" result="BackgroundImageFix" />
					<feGaussianBlur in="BackgroundImage" stdDeviation="2" />
					<feComposite in2="SourceAlpha" operator="in" result="effect1_backgroundBlur_397_3578" />
					<feBlend mode="normal" in="SourceGraphic" in2="effect1_backgroundBlur_397_3578" result="shape" />
				</filter>
			</defs>
	</symbol>

	<symbol width="39" height="39" viewBox="0 0 39 39" fill="none" id="telegramm">
			<g opacity="0.5" filter="url(#filter0_b_397_3572)">
				<circle cx="19.4614" cy="19.4614" r="19.4614" fill="white" fill-opacity="0.2" />
			</g>
			<path d="M9.09907 19.8253L13.5734 21.4937L15.3175 27.1055C15.3934 27.4847 15.8484 27.5605 16.1517 27.333L18.6543 25.2855C18.8818 25.058 19.261 25.058 19.5643 25.2855L24.0386 28.5464C24.3419 28.7739 24.7969 28.6222 24.8728 28.243L28.2095 12.3177C28.2853 11.9385 27.9062 11.5593 27.527 11.711L9.09907 18.8395C8.64406 18.9912 8.64406 19.6737 9.09907 19.8253ZM15.09 20.6595L23.8869 15.2752C24.0386 15.1994 24.1902 15.4269 24.0386 15.5027L16.8342 22.2521C16.6067 22.4796 16.3792 22.7829 16.3792 23.1621L16.1517 24.9821C16.1517 25.2096 15.7726 25.2855 15.6967 24.9821L14.7867 21.6454C14.5592 21.2662 14.7109 20.8112 15.09 20.6595Z" fill="white" />
			<defs>
				<filter id="filter0_b_397_3572" x="-4" y="-4" width="46.9229" height="46.9229" filterUnits="userSpaceOnUse" color-interpolation-filters="sRGB">
					<feFlood flood-opacity="0" result="BackgroundImageFix" />
					<feGaussianBlur in="BackgroundImage" stdDeviation="2" />
					<feComposite in2="SourceAlpha" operator="in" result="effect1_backgroundBlur_397_3572" />
					<feBlend mode="normal" in="SourceGraphic" in2="effect1_backgroundBlur_397_3572" result="shape" />
				</filter>
			</defs>
	</symbol>

	<symbol width="40" height="39" viewBox="0 0 40 39" fill="none" id="youtube">
			<g opacity="0.5" filter="url(#filter0_b_397_3575)">
				<circle cx="20.3843" cy="19.4614" r="19.4614" fill="white" fill-opacity="0.2" />
			</g>
			<path d="M28.8631 18.4039C28.8631 18.0264 28.8002 17.5861 28.8002 17.0829C28.7373 16.5796 28.6744 16.0764 28.6115 15.636C28.4857 15.1328 28.2969 14.7554 27.9195 14.4408C27.605 14.1263 27.1646 13.9376 26.7243 13.8747C25.2775 13.6859 23.1387 13.623 20.245 13.623C17.3514 13.623 15.1497 13.6859 13.7657 13.8747C13.3254 13.9376 12.8851 14.1263 12.5705 14.4408C12.256 14.7554 12.0044 15.1328 11.8786 15.636C11.7528 16.0764 11.6899 16.5167 11.6899 17.0829C11.627 17.5861 11.627 18.0264 11.627 18.4039C11.627 18.7813 11.627 19.2216 11.627 19.8507C11.627 20.4798 11.627 20.983 11.627 21.2975C11.627 21.675 11.6899 22.1153 11.6899 22.6186C11.7528 23.1218 11.8157 23.625 11.8786 24.0654C12.0044 24.5686 12.1931 24.9461 12.5705 25.2606C12.8851 25.5751 13.3254 25.7638 13.7657 25.8267C15.2126 26.0155 17.3514 26.0784 20.245 26.0784C23.1387 26.0784 25.3404 26.0155 26.7243 25.8267C27.1646 25.7638 27.605 25.5751 27.9195 25.2606C28.234 24.9461 28.4857 24.5686 28.6115 24.0654C28.7373 23.625 28.8002 23.1847 28.8002 22.6186C28.8631 22.1153 28.8631 21.675 28.8631 21.2975C28.8631 20.9201 28.8631 20.4798 28.8631 19.8507C28.8631 19.2216 28.8631 18.7184 28.8631 18.4039ZM23.579 20.354L18.6095 23.4363C18.5466 23.4992 18.4208 23.5621 18.295 23.5621C18.1691 23.5621 18.1062 23.5621 17.9804 23.4992C17.7917 23.3734 17.6659 23.1847 17.6659 22.9331V16.7054C17.6659 16.4538 17.7917 16.2651 17.9804 16.1393C18.1691 16.0135 18.4208 16.0135 18.6095 16.1393L23.579 19.2216C23.7677 19.3475 23.8936 19.5362 23.8936 19.7249C23.8936 19.9136 23.7677 20.2281 23.579 20.354Z" fill="white" />
			<defs>
				<filter id="filter0_b_397_3575" x="-3.07715" y="-4" width="46.9229" height="46.9229" filterUnits="userSpaceOnUse" color-interpolation-filters="sRGB">
					<feFlood flood-opacity="0" result="BackgroundImageFix" />
					<feGaussianBlur in="BackgroundImage" stdDeviation="2" />
					<feComposite in2="SourceAlpha" operator="in" result="effect1_backgroundBlur_397_3575" />
					<feBlend mode="normal" in="SourceGraphic" in2="effect1_backgroundBlur_397_3575" result="shape" />
				</filter>
			</defs>
	</symbol>


	<symbol width="16" height="17" viewBox="0 0 16 17" fill="none" id="home">
			<path d="M16 16.0925C16 16.3332 15.9064 16.564 15.7397 16.7342C15.573 16.9044 15.3469 17 15.1111 17H0.888889C0.653141 17 0.427049 16.9044 0.26035 16.7342C0.0936507 16.564 2.13965e-07 16.3332 2.13965e-07 16.0925V6.55463C-9.37633e-05 6.41633 0.0307708 6.27985 0.0902365 6.1556C0.149702 6.03134 0.236196 5.92261 0.343111 5.8377L7.45422 0.191206C7.61026 0.0672817 7.80231 0 8 0C8.19769 0 8.38974 0.0672817 8.54578 0.191206L15.6569 5.8377C15.7638 5.92261 15.8503 6.03134 15.9098 6.1556C15.9692 6.27985 16.0001 6.41633 16 6.55463V16.0925Z" fill="#8F93A4" />
	</symbol>

	<symbol width="18" height="18" viewBox="0 0 18 18" fill="none" id="search">
			<path d="M14.2049 12.952L18 16.7462L16.7462 18L12.952 14.2049C11.5402 15.3366 9.78419 15.9522 7.9748 15.9496C3.57271 15.9496 0 12.3769 0 7.9748C0 3.57271 3.57271 0 7.9748 0C12.3769 0 15.9496 3.57271 15.9496 7.9748C15.9522 9.78419 15.3366 11.5402 14.2049 12.952Z" fill="#8F93A4" />
	</symbol>

	<symbol width="19" height="18" viewBox="0 0 19 18" fill="none" id="profile">
			<path d="M9.75007 0.345215C4.85103 0.345215 0.875 4.13191 0.875 8.79766C0.875 13.4634 4.85103 17.2501 9.75007 17.2501C14.6491 17.2501 18.6251 13.4634 18.6251 8.79766C18.6251 4.13191 14.6491 0.345215 9.75007 0.345215ZM9.75007 2.88095C11.2233 2.88095 12.4126 4.01358 12.4126 5.41669C12.4126 6.81979 11.2233 7.95242 9.75007 7.95242C8.27681 7.95242 7.08755 6.81979 7.08755 5.41669C7.08755 4.01358 8.27681 2.88095 9.75007 2.88095ZM9.75007 14.8834C7.5313 14.8834 5.56991 13.8015 4.42503 12.1617C4.45165 10.4797 7.97506 9.55838 9.75007 9.55838C11.5162 9.55838 15.0485 10.4797 15.0751 12.1617C13.9302 13.8015 11.9688 14.8834 9.75007 14.8834Z" fill="#8F93A4" />
	</symbol>

	<symbol width="22" height="13" viewBox="0 0 22 13" fill="none" id="menu">
			<path d="M0 0.733333C0 0.328324 0.328325 0 0.733333 0H21.2667C21.6717 0 22 0.328325 22 0.733333V0.825C22 1.23001 21.6717 1.55833 21.2667 1.55833H0.733334C0.328325 1.55833 0 1.23001 0 0.825V0.733333ZM0 6.1875C0 5.78249 0.328325 5.45417 0.733333 5.45417H21.2667C21.6717 5.45417 22 5.78249 22 6.1875V6.27917C22 6.68418 21.6717 7.0125 21.2667 7.0125H0.733334C0.328325 7.0125 0 6.68418 0 6.27917V6.1875ZM0 11.6417C0 11.2367 0.328325 10.9083 0.733333 10.9083H21.2667C21.6717 10.9083 22 11.2367 22 11.6417V11.7333C22 12.1383 21.6717 12.4667 21.2667 12.4667H0.733334C0.328325 12.4667 0 12.1383 0 11.7333V11.6417Z" fill="#8F93A4" />
	</symbol>

	<symbol width="10" height="10" viewBox="0 0 10 10" fill="none" id="brig">
			<path d="M6.91117 0.616212C6.1161 0.199513 5.25461 0.0264256 4.41782 0.0611853C5.32792 1.50151 5.46875 3.36838 4.62162 4.98473C3.77448 6.60108 2.15918 7.54754 0.456898 7.61872C0.904457 8.32661 1.537 8.93655 2.33207 9.35324C4.74349 10.6171 7.7263 9.6857 8.99013 7.27428C10.254 4.86286 9.32259 1.88004 6.91117 0.616212Z" fill="#4D4F61" />
	</symbol>

	<symbol width="18" height="18" viewBox="0 0 18 18" fill="none" id="onof">
			<path d="M8.84912 7.07028L14.7526 1.16681C15.1431 0.776284 15.7763 0.776282 16.1668 1.16681L16.9561 1.95612C17.3466 2.34664 17.3466 2.97981 16.9561 3.37033L11.0526 9.2738L16.9561 15.1773C17.3466 15.5678 17.3466 16.201 16.9561 16.5915L16.1668 17.3808C15.7763 17.7713 15.1431 17.7713 14.7526 17.3808L8.84912 11.4773L2.94565 17.3808C2.55513 17.7713 1.92196 17.7713 1.53144 17.3808L0.742123 16.5915C0.351598 16.201 0.351599 15.5678 0.742123 15.1773L6.64559 9.2738L0.742124 3.37033C0.3516 2.97981 0.351599 2.34664 0.742123 1.95612L1.53144 1.16681C1.92196 0.776282 2.55512 0.776282 2.94565 1.16681L8.84912 7.07028Z" fill="#8F93A4" />
	</symbol>

	<symbol></symbol>

	<symbol></symbol>

	<symbol></symbol>
</svg>
