<svg xmlns="http://www.w3.org/2000/svg">

	<symbol width="9" height="6" viewBox="0 0 9 6" fill="none" id="arrow">
		<path d="M4.5 3.81846L7.45683 0.592736C7.74895 0.27405 8.25136 0.274049 8.54348 0.592735C8.80178 0.874522 8.80178 1.30702 8.54348 1.5888L5.23716 5.1958C4.84083 5.62818 4.15917 5.62818 3.76284 5.1958L0.456518 1.5888C0.198221 1.30702 0.198221 0.874522 0.456518 0.592735C0.748638 0.274049 1.25105 0.274049 1.54317 0.592735L4.5 3.81846Z" fill="white" />
	</symbol>

	<symbol width="92" height="39" viewBox="0 0 92 39" fill="none" id="logo">
		<path d="M17.3102 4.98899C17.0039 4.67802 16.8477 4.18227 16.8418 3.50172C16.8418 2.82178 16.9802 2.32483 17.2801 2.01446C17.5799 1.70409 18.0767 1.5498 18.7723 1.5498C19.4678 1.5498 19.9681 1.70409 20.2751 2.01446C20.582 2.32483 20.7364 2.82178 20.7435 3.50172C20.7506 4.18167 20.6033 4.67862 20.3053 4.98899C20.0072 5.29936 19.5068 5.45544 18.8113 5.45544C18.1158 5.45544 17.6172 5.29936 17.3102 4.98899ZM17.2765 18.1967L17.1612 6.65386H20.4862L20.6016 18.1967H17.2765Z" fill="white" />
		<path d="M26.186 6.65403H29.1793L29.2094 9.76131H26.2179L26.2605 13.6669C26.2605 14.1705 26.3788 14.5335 26.6154 14.7559C26.852 14.9784 27.2334 15.089 27.7598 15.0878H29.4898L29.5199 18.1969H27.6977C26.0417 18.1969 24.8375 17.871 24.0852 17.2191C23.3329 16.5673 22.9497 15.5244 22.9355 14.0903L22.8893 9.76131H21.3368L21.3066 6.65403H22.8592L22.8326 4.16748H26.1594L26.186 6.65403Z" fill="white" />
		<path d="M30.5594 18.1972L30.3926 1.55029H33.7123L33.7726 7.6321C34.519 6.83196 35.6759 6.43189 37.2432 6.43189C38.8401 6.43189 40.0082 6.85408 40.7475 7.69848C41.4868 8.54288 41.8659 9.89678 41.8848 11.7602L41.9505 18.1972H38.6307L38.5651 11.7602C38.558 10.99 38.3675 10.4272 37.9937 10.072C37.62 9.71678 37.0492 9.53738 36.2815 9.53379C35.4086 9.53379 34.7787 9.75864 34.3919 10.2083C34.0051 10.6581 33.8164 11.3948 33.8259 12.4186L33.8844 18.19L30.5594 18.1972Z" fill="white" />
		<path d="M44.4229 7.85252C45.3597 6.90527 46.8779 6.43164 48.9775 6.43164C51.0771 6.43164 52.6042 6.90527 53.5588 7.85252C54.5134 8.79978 55.0013 10.3241 55.0226 12.4255C55.0439 14.527 54.5861 16.0513 53.6493 16.9986C52.7125 17.9458 51.1948 18.4188 49.0964 18.4176C46.998 18.4165 45.4709 17.9434 44.5151 16.9986C43.5594 16.0513 43.0708 14.527 43.0495 12.4255C43.0282 10.3241 43.486 8.79978 44.4229 7.85252ZM46.3746 12.4255C46.3852 13.4326 46.6035 14.1652 47.0293 14.6232C47.4552 15.0813 48.1335 15.3104 49.0645 15.3104C49.9966 15.3104 50.6708 15.0813 51.0872 14.6232C51.5036 14.1652 51.707 13.4326 51.6975 12.4255C51.6869 11.4029 51.4687 10.6662 51.0428 10.2153C50.617 9.76438 49.9386 9.53952 49.0077 9.54072C48.0768 9.54072 47.4031 9.76557 46.9867 10.2153C46.5704 10.665 46.3663 11.4017 46.3746 12.4255Z" fill="white" />
		<path d="M55.0039 6.65411H58.5525L61.4056 14.2447L66.4074 0H69.9561L63.3308 18.197H59.5603L55.0039 6.65411Z" fill="white" />
		<path d="M68.9813 16.9862C68.035 16.0293 67.5506 14.5092 67.5281 12.4257C67.5057 10.3422 67.9599 8.82148 68.8908 7.86346C69.8206 6.90663 71.3275 6.42822 73.4118 6.42822C75.496 6.42822 77.0083 6.90185 77.9487 7.84911C78.8891 8.79636 79.3699 10.3207 79.3912 12.4221C79.3912 12.6613 79.38 13.016 79.3575 13.486H70.9526C71.2045 14.8495 72.0692 15.5306 73.5466 15.5294C74.6562 15.5294 75.4067 15.1592 75.7982 14.4189H79.2333C78.9671 15.8996 78.3497 16.9353 77.3809 17.5262C76.4121 18.117 75.1287 18.416 73.5306 18.4232C71.4476 18.4196 69.9312 17.9406 68.9813 16.9862ZM73.4845 9.31843C72.0946 9.31843 71.2578 9.89551 70.9739 11.0497H76.0289C75.7225 9.89432 74.8744 9.31723 73.4845 9.31843Z" fill="white" />
		<path d="M15.7577 11.8979C15.6374 11.1425 15.3625 10.4207 14.9507 9.7788C14.5389 9.13688 13.9991 8.58889 13.3659 8.16988L13.5203 7.81107C15.1686 4.06151 12.5976 0.0607965 8.53268 0.0590025C6.22962 0.0578065 3.92715 0.0578065 1.62527 0.0590025H1.00426C1.46558 1.1749 1.90739 2.20109 2.30661 3.24164C2.34246 3.37687 2.42361 3.49533 2.53622 3.5768C2.64883 3.65827 2.78591 3.6977 2.92407 3.68835H4.06673C5.12245 3.68835 6.17816 3.68835 7.23566 3.68835H7.2463C7.36518 3.68835 7.48406 3.70809 7.60116 3.71706C6.77554 4.22138 5.90606 4.64834 5.00357 4.99262C4.18916 5.27788 3.80591 5.75689 3.72606 6.61623C3.67638 7.15445 3.62315 7.26927 3.27006 7.29079C3.17425 7.29079 3.06247 7.29079 2.9152 7.29079H0.466645C0.473063 7.37413 0.485516 7.45688 0.503905 7.53837C0.887157 8.5251 1.27041 9.50823 1.67673 10.477L1.70867 10.556L1.75657 10.6708C1.80673 10.749 1.8742 10.8144 1.95365 10.8617C2.0331 10.909 2.12235 10.937 2.21434 10.9435C2.60469 10.9435 2.99327 10.9435 3.38362 10.9435C4.16787 10.9435 4.95389 10.9435 5.73991 10.9435C5.8925 10.9435 6.04686 10.9596 6.20123 10.9686C5.83229 11.2048 5.44547 11.4112 5.04438 11.5857C4.65869 11.797 4.25703 11.977 3.84317 12.124C2.81939 12.4128 2.26403 13.0353 2.2587 14.1297C2.27407 14.2126 2.26009 14.2983 2.21921 14.3717C2.17833 14.4452 2.11316 14.5018 2.03514 14.5316C1.94033 14.5663 1.83947 14.5809 1.73883 14.5746C1.18347 14.5513 0.628107 14.5746 0 14.5746C0.454225 15.7031 0.887157 16.7275 1.28106 17.7824C1.3128 17.9176 1.39287 18.0362 1.50587 18.1154C1.61887 18.1945 1.75682 18.2286 1.89319 18.2111C4.79065 18.195 7.68811 18.2111 10.5873 18.1986C13.7793 18.1699 16.3113 15.0787 15.7577 11.8979ZM7.88505 3.9754C7.90635 3.86955 8.03232 3.71347 8.12281 3.70271C8.2133 3.69194 8.26831 3.69194 8.33928 3.68835C8.98868 3.65785 9.5813 3.80676 10.0267 4.37009C10.2448 4.62304 10.3834 4.93598 10.4248 5.26895C10.4662 5.60192 10.4085 5.93982 10.2591 6.23948C10.1274 6.54728 9.91077 6.81017 9.63509 6.99663C9.35942 7.1831 9.03641 7.28523 8.70479 7.29079C8.64446 7.29079 8.58591 7.29079 8.52736 7.29079H8.37477C8.00571 7.29079 7.6331 7.29079 7.21791 7.29079C7.45212 6.09955 7.65972 5.03927 7.88505 3.9754ZM10.8606 14.467C10.0355 14.5172 9.20869 14.5262 8.37654 14.5208C7.54439 14.5154 6.6732 14.4975 5.80201 14.4975C5.90669 13.97 6.00783 13.4641 6.10542 12.9564C6.21365 12.3984 6.32543 11.8405 6.42302 11.279C6.42394 11.231 6.43478 11.1837 6.45483 11.1402C6.47488 11.0967 6.50371 11.0579 6.53946 11.0263C6.57521 10.9947 6.6171 10.971 6.66244 10.9567C6.70777 10.9425 6.75556 10.938 6.80272 10.9435H6.82401C7.21081 10.9435 7.59584 10.9435 7.98264 10.9435H8.37477C9.08449 10.9435 9.7818 10.9435 10.4862 10.9524C10.9216 10.9615 11.3385 11.1321 11.6575 11.4319C11.9765 11.7316 12.1753 12.1395 12.2162 12.5778C12.3084 13.4354 11.7229 14.4149 10.8606 14.467Z" fill="white" />
		<g opacity="0.5">
			<path opacity="0.5" d="M31.2069 25.454L31.1874 25.436L31.1696 25.454H31.1199V25.5042L26.3861 30.2925C26.1686 30.5119 25.9961 30.7725 25.8786 31.0594C25.7611 31.3464 25.7008 31.654 25.7012 31.9646V35.2477C25.7007 35.3265 25.7234 35.4036 25.7664 35.4693C25.8095 35.535 25.8709 35.5862 25.9429 35.6165C26.0149 35.6467 26.0941 35.6545 26.1705 35.639C26.2469 35.6235 26.317 35.5853 26.3719 35.5293L32.6831 29.1479H91.0226C91.2358 29.1479 91.4402 29.0623 91.591 28.9099C91.7417 28.7575 91.8264 28.5508 91.8264 28.3352V26.2667C91.8264 26.0511 91.7417 25.8444 91.591 25.692C91.4402 25.5396 91.2358 25.454 91.0226 25.454H31.2069Z" fill="#F9E312" />
		</g>
		<path d="M20.658 25.436H1.09623C1.01158 25.4358 0.927722 25.4525 0.849473 25.4851C0.771224 25.5178 0.700129 25.5657 0.640274 25.6263C0.58042 25.6868 0.532986 25.7587 0.500701 25.8378C0.468416 25.9169 0.451917 26.0017 0.452151 26.0873V28.4787C0.452151 28.6515 0.520009 28.8171 0.640796 28.9392C0.761584 29.0614 0.925408 29.13 1.09623 29.13H20.1293V38.3155H23.7755V25.436H20.658Z" fill="#F9E312" />
		<path d="M91.9963 17.953L91.9342 11.76C91.9176 9.90015 91.5385 8.54624 90.7969 7.69826C90.0552 6.85027 88.8883 6.42808 87.2961 6.43166C85.7312 6.43166 84.5749 6.83174 83.8274 7.63188L83.8185 6.65413H80.4863L80.6034 18.1952H83.9249L83.8664 12.4256C83.8575 11.403 84.0438 10.6674 84.4218 10.2153C84.7997 9.7632 85.4349 9.54074 86.322 9.54074C87.1051 9.54074 87.6794 9.72015 88.0449 10.079C88.4104 10.4378 88.5973 11.0005 88.6056 11.7671L88.6677 17.9602H88.6553V18.2993H91.9963V17.953Z" fill="white" />
	</symbol>

	<symbol width="40" height="39" viewBox="0 0 40 39" fill="none" id="discord">
		<g opacity="0.5" filter="url(#filter0_b_397_3584)">
			<path d="M39.6143 19.4614C39.6143 30.2097 30.9011 38.9229 20.1528 38.9229C9.40459 38.9229 0.691406 30.2097 0.691406 19.4614C0.691406 8.71318 9.40459 0 20.1528 0C30.9011 0 39.6143 8.71318 39.6143 19.4614Z" fill="white" fill-opacity="0.2" />
		</g>
		<path d="M26.858 10.7041H13.4463C12.3153 10.7041 11.3945 11.5993 11.3945 12.7086V25.8646C11.3945 26.9739 12.3153 27.8691 13.4463 27.8691H24.7962L24.2658 26.0689L25.5469 27.2269L26.7579 28.3167L28.9098 30.1655V12.7086C28.9098 11.5993 27.989 10.7041 26.858 10.7041ZM22.9947 23.4124C22.9947 23.4124 22.6343 22.994 22.3341 22.6242C23.6452 22.2642 24.1457 21.4663 24.1457 21.4663C23.7353 21.729 23.345 21.9139 22.9947 22.0404C22.4942 22.2447 22.0138 22.381 21.5434 22.4588C20.5826 22.634 19.7018 22.5853 18.9511 22.4491C18.3806 22.342 17.8902 22.1863 17.4798 22.0307C17.2496 21.9431 16.9994 21.836 16.7492 21.6998C16.7192 21.6804 16.6892 21.6706 16.6591 21.6512C16.6391 21.6414 16.6291 21.6317 16.6191 21.622C16.4389 21.5247 16.3388 21.4565 16.3388 21.4565C16.3388 21.4565 16.8193 22.235 18.0904 22.6048C17.7901 22.9745 17.4198 23.4124 17.4198 23.4124C15.2079 23.3443 14.3671 21.9333 14.3671 21.9333C14.3671 18.8001 15.8084 16.2603 15.8084 16.2603C17.2496 15.2094 18.6208 15.2386 18.6208 15.2386L18.7209 15.3554C16.9194 15.8614 16.0886 16.6301 16.0886 16.6301C16.0886 16.6301 16.3088 16.5133 16.6791 16.3479C17.7501 15.8906 18.6008 15.7641 18.9511 15.7349C19.0112 15.7252 19.0612 15.7154 19.1213 15.7154C19.7318 15.6376 20.4224 15.6181 21.143 15.696C22.0939 15.803 23.1148 16.0755 24.1557 16.6301C24.1557 16.6301 23.365 15.9003 21.6635 15.3943L21.8036 15.2386C21.8036 15.2386 23.1748 15.2094 24.6161 16.2603C24.6161 16.2603 26.0573 18.8001 26.0573 21.9333C26.0573 21.9333 25.2066 23.3443 22.9947 23.4124ZM18.3406 18.8682C17.7701 18.8682 17.3197 19.3547 17.3197 19.9483C17.3197 20.5419 17.7801 21.0284 18.3406 21.0284C18.9111 21.0284 19.3615 20.5419 19.3615 19.9483C19.3715 19.3547 18.9111 18.8682 18.3406 18.8682ZM21.9938 18.8682C21.4233 18.8682 20.9729 19.3547 20.9729 19.9483C20.9729 20.5419 21.4333 21.0284 21.9938 21.0284C22.5643 21.0284 23.0147 20.5419 23.0147 19.9483C23.0147 19.3547 22.5643 18.8682 21.9938 18.8682Z" fill="white" />
		<defs>
			<filter id="filter0_b_397_3584" x="-3.30859" y="-4" width="46.9229" height="46.9229" filterUnits="userSpaceOnUse" color-interpolation-filters="sRGB">
				<feFlood flood-opacity="0" result="BackgroundImageFix" />
				<feGaussianBlur in="BackgroundImage" stdDeviation="2" />
				<feComposite in2="SourceAlpha" operator="in" result="effect1_backgroundBlur_397_3584" />
				<feBlend mode="normal" in="SourceGraphic" in2="effect1_backgroundBlur_397_3584" result="shape" />
			</filter>
		</defs>
	</symbol>

	<symbol width="40" height="39" viewBox="0 0 40 39" fill="none" id="facebook">
		<g opacity="0.5" filter="url(#filter0_b_397_3581)">
			<circle cx="20.23" cy="19.4614" r="19.4614" fill="white" fill-opacity="0.2" />
		</g>
		<path d="M28.9875 13.4468C28.9875 11.9898 27.7019 10.7041 26.2448 10.7041H15.1881C13.731 10.7041 12.4453 11.9898 12.4453 13.4468V24.5036C12.4453 25.9606 13.731 27.2463 15.1881 27.2463H20.7593V20.9894H18.7022V18.2467H20.7593V17.1324C20.7593 15.2468 22.1307 13.6183 23.8449 13.6183H26.0734V16.361H23.8449C23.5877 16.361 23.3306 16.6182 23.3306 17.1324V18.2467H26.0734V20.9894H23.3306V27.2463H26.2448C27.7019 27.2463 28.9875 25.9606 28.9875 24.5036V13.4468Z" fill="white" />
		<defs>
			<filter id="filter0_b_397_3581" x="-3.23145" y="-4" width="46.9229" height="46.9229" filterUnits="userSpaceOnUse" color-interpolation-filters="sRGB">
				<feFlood flood-opacity="0" result="BackgroundImageFix" />
				<feGaussianBlur in="BackgroundImage" stdDeviation="2" />
				<feComposite in2="SourceAlpha" operator="in" result="effect1_backgroundBlur_397_3581" />
				<feBlend mode="normal" in="SourceGraphic" in2="effect1_backgroundBlur_397_3581" result="shape" />
			</filter>
		</defs>
	</symbol>

	<symbol width="40" height="39" viewBox="0 0 40 39" fill="none" id="inst">
		<g opacity="0.5" filter="url(#filter0_b_397_3578)">
			<circle cx="20.3071" cy="19.4614" r="19.4614" fill="white" fill-opacity="0.2" />
		</g>
		<path d="M26.7106 11.6768H14.8765C13.5404 11.6768 12.5225 12.6947 12.5225 14.0308V25.8649C12.5225 27.201 13.5404 28.219 14.8765 28.219H26.7106C28.0467 28.219 29.0647 27.201 29.0647 25.8649V14.0308C29.0647 12.6947 28.0467 11.6768 26.7106 11.6768ZM20.7936 24.9105C23.5294 24.9105 25.7562 22.7473 25.7562 20.1387C25.7562 19.6934 25.6926 19.1844 25.5654 18.8026H26.9651V25.5468C26.9651 25.8649 26.7106 26.183 26.3288 26.183H15.2583C14.9402 26.183 14.6221 25.9285 14.6221 25.5468V18.739H16.0854C15.9582 19.1844 15.8945 19.6297 15.8945 20.0751C15.8309 22.7473 18.0577 24.9105 20.7936 24.9105ZM20.7936 23.0018C19.0121 23.0018 17.6124 21.6021 17.6124 19.8842C17.6124 18.1664 19.0121 16.7667 20.7936 16.7667C22.575 16.7667 23.9748 18.1664 23.9748 19.8842C23.9748 21.6657 22.575 23.0018 20.7936 23.0018ZM26.9015 16.1941C26.9015 16.5758 26.5833 16.8939 26.2016 16.8939H24.4201C24.0384 16.8939 23.7203 16.5758 23.7203 16.1941V14.4762C23.7203 14.0945 24.0384 13.7763 24.4201 13.7763H26.2016C26.5833 13.7763 26.9015 14.0945 26.9015 14.4762V16.1941Z" fill="white" />
		<defs>
			<filter id="filter0_b_397_3578" x="-3.1543" y="-4" width="46.9229" height="46.9229" filterUnits="userSpaceOnUse" color-interpolation-filters="sRGB">
				<feFlood flood-opacity="0" result="BackgroundImageFix" />
				<feGaussianBlur in="BackgroundImage" stdDeviation="2" />
				<feComposite in2="SourceAlpha" operator="in" result="effect1_backgroundBlur_397_3578" />
				<feBlend mode="normal" in="SourceGraphic" in2="effect1_backgroundBlur_397_3578" result="shape" />
			</filter>
		</defs>
	</symbol>

	<symbol width="39" height="39" viewBox="0 0 39 39" fill="none" id="telegramm">
		<g opacity="0.5" filter="url(#filter0_b_397_3572)">
			<circle cx="19.4614" cy="19.4614" r="19.4614" fill="white" fill-opacity="0.2" />
		</g>
		<path d="M9.09907 19.8253L13.5734 21.4937L15.3175 27.1055C15.3934 27.4847 15.8484 27.5605 16.1517 27.333L18.6543 25.2855C18.8818 25.058 19.261 25.058 19.5643 25.2855L24.0386 28.5464C24.3419 28.7739 24.7969 28.6222 24.8728 28.243L28.2095 12.3177C28.2853 11.9385 27.9062 11.5593 27.527 11.711L9.09907 18.8395C8.64406 18.9912 8.64406 19.6737 9.09907 19.8253ZM15.09 20.6595L23.8869 15.2752C24.0386 15.1994 24.1902 15.4269 24.0386 15.5027L16.8342 22.2521C16.6067 22.4796 16.3792 22.7829 16.3792 23.1621L16.1517 24.9821C16.1517 25.2096 15.7726 25.2855 15.6967 24.9821L14.7867 21.6454C14.5592 21.2662 14.7109 20.8112 15.09 20.6595Z" fill="white" />
		<defs>
			<filter id="filter0_b_397_3572" x="-4" y="-4" width="46.9229" height="46.9229" filterUnits="userSpaceOnUse" color-interpolation-filters="sRGB">
				<feFlood flood-opacity="0" result="BackgroundImageFix" />
				<feGaussianBlur in="BackgroundImage" stdDeviation="2" />
				<feComposite in2="SourceAlpha" operator="in" result="effect1_backgroundBlur_397_3572" />
				<feBlend mode="normal" in="SourceGraphic" in2="effect1_backgroundBlur_397_3572" result="shape" />
			</filter>
		</defs>
	</symbol>

	<symbol width="40" height="39" viewBox="0 0 40 39" fill="none" id="youtube">
		<g opacity="0.5" filter="url(#filter0_b_397_3575)">
			<circle cx="20.3843" cy="19.4614" r="19.4614" fill="white" fill-opacity="0.2" />
		</g>
		<path d="M28.8631 18.4039C28.8631 18.0264 28.8002 17.5861 28.8002 17.0829C28.7373 16.5796 28.6744 16.0764 28.6115 15.636C28.4857 15.1328 28.2969 14.7554 27.9195 14.4408C27.605 14.1263 27.1646 13.9376 26.7243 13.8747C25.2775 13.6859 23.1387 13.623 20.245 13.623C17.3514 13.623 15.1497 13.6859 13.7657 13.8747C13.3254 13.9376 12.8851 14.1263 12.5705 14.4408C12.256 14.7554 12.0044 15.1328 11.8786 15.636C11.7528 16.0764 11.6899 16.5167 11.6899 17.0829C11.627 17.5861 11.627 18.0264 11.627 18.4039C11.627 18.7813 11.627 19.2216 11.627 19.8507C11.627 20.4798 11.627 20.983 11.627 21.2975C11.627 21.675 11.6899 22.1153 11.6899 22.6186C11.7528 23.1218 11.8157 23.625 11.8786 24.0654C12.0044 24.5686 12.1931 24.9461 12.5705 25.2606C12.8851 25.5751 13.3254 25.7638 13.7657 25.8267C15.2126 26.0155 17.3514 26.0784 20.245 26.0784C23.1387 26.0784 25.3404 26.0155 26.7243 25.8267C27.1646 25.7638 27.605 25.5751 27.9195 25.2606C28.234 24.9461 28.4857 24.5686 28.6115 24.0654C28.7373 23.625 28.8002 23.1847 28.8002 22.6186C28.8631 22.1153 28.8631 21.675 28.8631 21.2975C28.8631 20.9201 28.8631 20.4798 28.8631 19.8507C28.8631 19.2216 28.8631 18.7184 28.8631 18.4039ZM23.579 20.354L18.6095 23.4363C18.5466 23.4992 18.4208 23.5621 18.295 23.5621C18.1691 23.5621 18.1062 23.5621 17.9804 23.4992C17.7917 23.3734 17.6659 23.1847 17.6659 22.9331V16.7054C17.6659 16.4538 17.7917 16.2651 17.9804 16.1393C18.1691 16.0135 18.4208 16.0135 18.6095 16.1393L23.579 19.2216C23.7677 19.3475 23.8936 19.5362 23.8936 19.7249C23.8936 19.9136 23.7677 20.2281 23.579 20.354Z" fill="white" />
		<defs>
			<filter id="filter0_b_397_3575" x="-3.07715" y="-4" width="46.9229" height="46.9229" filterUnits="userSpaceOnUse" color-interpolation-filters="sRGB">
				<feFlood flood-opacity="0" result="BackgroundImageFix" />
				<feGaussianBlur in="BackgroundImage" stdDeviation="2" />
				<feComposite in2="SourceAlpha" operator="in" result="effect1_backgroundBlur_397_3575" />
				<feBlend mode="normal" in="SourceGraphic" in2="effect1_backgroundBlur_397_3575" result="shape" />
			</filter>
		</defs>
	</symbol>


	<symbol width="16" height="17" viewBox="0 0 16 17" fill="none" id="home">
		<path d="M16 16.0925C16 16.3332 15.9064 16.564 15.7397 16.7342C15.573 16.9044 15.3469 17 15.1111 17H0.888889C0.653141 17 0.427049 16.9044 0.26035 16.7342C0.0936507 16.564 2.13965e-07 16.3332 2.13965e-07 16.0925V6.55463C-9.37633e-05 6.41633 0.0307708 6.27985 0.0902365 6.1556C0.149702 6.03134 0.236196 5.92261 0.343111 5.8377L7.45422 0.191206C7.61026 0.0672817 7.80231 0 8 0C8.19769 0 8.38974 0.0672817 8.54578 0.191206L15.6569 5.8377C15.7638 5.92261 15.8503 6.03134 15.9098 6.1556C15.9692 6.27985 16.0001 6.41633 16 6.55463V16.0925Z" fill="#8F93A4" />
	</symbol>

	<symbol width="18" height="18" viewBox="0 0 18 18" fill="none" id="search">
		<path d="M14.2049 12.952L18 16.7462L16.7462 18L12.952 14.2049C11.5402 15.3366 9.78419 15.9522 7.9748 15.9496C3.57271 15.9496 0 12.3769 0 7.9748C0 3.57271 3.57271 0 7.9748 0C12.3769 0 15.9496 3.57271 15.9496 7.9748C15.9522 9.78419 15.3366 11.5402 14.2049 12.952Z" fill="#8F93A4" />
	</symbol>

	<symbol width="19" height="18" viewBox="0 0 19 18" fill="none" id="profile">
		<path d="M9.75007 0.345215C4.85103 0.345215 0.875 4.13191 0.875 8.79766C0.875 13.4634 4.85103 17.2501 9.75007 17.2501C14.6491 17.2501 18.6251 13.4634 18.6251 8.79766C18.6251 4.13191 14.6491 0.345215 9.75007 0.345215ZM9.75007 2.88095C11.2233 2.88095 12.4126 4.01358 12.4126 5.41669C12.4126 6.81979 11.2233 7.95242 9.75007 7.95242C8.27681 7.95242 7.08755 6.81979 7.08755 5.41669C7.08755 4.01358 8.27681 2.88095 9.75007 2.88095ZM9.75007 14.8834C7.5313 14.8834 5.56991 13.8015 4.42503 12.1617C4.45165 10.4797 7.97506 9.55838 9.75007 9.55838C11.5162 9.55838 15.0485 10.4797 15.0751 12.1617C13.9302 13.8015 11.9688 14.8834 9.75007 14.8834Z" fill="#8F93A4" />
	</symbol>

	<symbol width="22" height="13" viewBox="0 0 22 13" fill="none" id="menu">
		<path d="M0 0.733333C0 0.328324 0.328325 0 0.733333 0H21.2667C21.6717 0 22 0.328325 22 0.733333V0.825C22 1.23001 21.6717 1.55833 21.2667 1.55833H0.733334C0.328325 1.55833 0 1.23001 0 0.825V0.733333ZM0 6.1875C0 5.78249 0.328325 5.45417 0.733333 5.45417H21.2667C21.6717 5.45417 22 5.78249 22 6.1875V6.27917C22 6.68418 21.6717 7.0125 21.2667 7.0125H0.733334C0.328325 7.0125 0 6.68418 0 6.27917V6.1875ZM0 11.6417C0 11.2367 0.328325 10.9083 0.733333 10.9083H21.2667C21.6717 10.9083 22 11.2367 22 11.6417V11.7333C22 12.1383 21.6717 12.4667 21.2667 12.4667H0.733334C0.328325 12.4667 0 12.1383 0 11.7333V11.6417Z" fill="#8F93A4" />
	</symbol>

	<symbol width="10" height="10" viewBox="0 0 10 10" fill="none" id="brig">
		<path d="M6.91117 0.616212C6.1161 0.199513 5.25461 0.0264256 4.41782 0.0611853C5.32792 1.50151 5.46875 3.36838 4.62162 4.98473C3.77448 6.60108 2.15918 7.54754 0.456898 7.61872C0.904457 8.32661 1.537 8.93655 2.33207 9.35324C4.74349 10.6171 7.7263 9.6857 8.99013 7.27428C10.254 4.86286 9.32259 1.88004 6.91117 0.616212Z" fill="#4D4F61" />
	</symbol>

	<symbol width="18" height="18" viewBox="0 0 18 18" fill="none" id="onof">
		<path d="M8.84912 7.07028L14.7526 1.16681C15.1431 0.776284 15.7763 0.776282 16.1668 1.16681L16.9561 1.95612C17.3466 2.34664 17.3466 2.97981 16.9561 3.37033L11.0526 9.2738L16.9561 15.1773C17.3466 15.5678 17.3466 16.201 16.9561 16.5915L16.1668 17.3808C15.7763 17.7713 15.1431 17.7713 14.7526 17.3808L8.84912 11.4773L2.94565 17.3808C2.55513 17.7713 1.92196 17.7713 1.53144 17.3808L0.742123 16.5915C0.351598 16.201 0.351599 15.5678 0.742123 15.1773L6.64559 9.2738L0.742124 3.37033C0.3516 2.97981 0.351599 2.34664 0.742123 1.95612L1.53144 1.16681C1.92196 0.776282 2.55512 0.776282 2.94565 1.16681L8.84912 7.07028Z" fill="#8F93A4" />
	</symbol>

	<symbol width="22" height="22" viewBox="0 0 22 22" fill="none" id="deck">
		<rect width="5.88235" height="5.88235" fill="white" />
		<rect y="7.88232" width="5.88235" height="5.88235" fill="white" />
		<rect y="15.7646" width="5.88235" height="5.88235" fill="white" />
		<rect x="7.88232" width="5.88235" height="5.88235" fill="white" />
		<rect x="7.88232" y="7.88232" width="5.88235" height="5.88235" fill="white" />
		<rect x="7.88232" y="15.7646" width="5.88235" height="5.88235" fill="white" />
		<rect x="15.7646" width="5.88235" height="5.88235" fill="white" />
		<rect x="15.7646" y="7.88232" width="5.88235" height="5.88235" fill="white" />
		<rect x="15.7646" y="15.7646" width="5.88235" height="5.88235" fill="white" />
	</symbol>

	<symbol width="26" height="25" viewBox="0 0 26 25" fill="none" id="acc">
		<path d="M12.7501 2.73804C6.88503 2.73804 2.125 7.2714 2.125 12.8572C2.125 18.4429 6.88503 22.9763 12.7501 22.9763C18.6151 22.9763 23.3751 18.4429 23.3751 12.8572C23.3751 7.2714 18.6151 2.73804 12.7501 2.73804ZM12.7501 5.77377C14.5138 5.77377 15.9376 7.12973 15.9376 8.80951C15.9376 10.4893 14.5138 11.8452 12.7501 11.8452C10.9863 11.8452 9.56255 10.4893 9.56255 8.80951C9.56255 7.12973 10.9863 5.77377 12.7501 5.77377ZM12.7501 20.1429C10.0938 20.1429 7.74566 18.8477 6.37503 16.8846C6.4069 14.8709 10.6251 13.7679 12.7501 13.7679C14.8645 13.7679 19.0932 14.8709 19.1251 16.8846C17.7545 18.8477 15.4063 20.1429 12.7501 20.1429Z" fill="white" />
	</symbol>

	<symbol width="13" height="14" viewBox="0 0 13 14" fill="none" id="sedes">
		<path d="M10.2591 9.93367L13 13.0384L12.0945 14L9.35419 10.8946C8.33458 11.7626 7.06636 12.2347 5.75957 12.2327C2.58029 12.2327 0 9.49261 0 6.11637C0 2.74014 2.58029 0 5.75957 0C8.93886 0 11.5191 2.74014 11.5191 6.11637C11.521 7.50411 11.0764 8.85089 10.2591 9.93367ZM8.97534 9.42941C9.78751 8.54246 10.2411 7.35353 10.2392 6.11637C10.2392 3.48769 8.23427 1.35919 5.75957 1.35919C3.28424 1.35919 1.27991 3.48769 1.27991 6.11637C1.27991 8.74437 3.28424 10.8736 5.75957 10.8736C6.92456 10.8755 8.04413 10.3938 8.87934 9.53135L8.97534 9.42941Z" fill="white" />
	</symbol>

	<symbol width="10" height="5" viewBox="0 0 10 5" fill="none" id="infinity">
		<path d="M4.704 3.11561C4.46133 3.50761 4.13933 3.85295 3.738 4.15161C3.346 4.44095 2.898 4.58561 2.394 4.58561C1.76867 4.58561 1.25533 4.38495 0.854 3.98361C0.462 3.58228 0.266 3.06428 0.266 2.42961C0.266 1.81361 0.462 1.30495 0.854 0.903613C1.25533 0.50228 1.76867 0.301613 2.394 0.301613C2.87 0.301613 3.304 0.44628 3.696 0.735613C4.088 1.01561 4.41 1.36095 4.662 1.77161C4.90467 1.37961 5.222 1.03895 5.614 0.749613C6.006 0.450946 6.46333 0.301613 6.986 0.301613C7.602 0.301613 8.106 0.50228 8.498 0.903613C8.89 1.30495 9.086 1.82295 9.086 2.45761C9.086 3.08295 8.89 3.59628 8.498 3.99761C8.106 4.38961 7.602 4.58561 6.986 4.58561C6.47267 4.58561 6.02 4.44095 5.628 4.15161C5.236 3.85295 4.928 3.50761 4.704 3.11561ZM6.846 1.19761C6.50067 1.19761 6.18333 1.32828 5.894 1.58961C5.60467 1.84161 5.36667 2.12628 5.18 2.44361C5.36667 2.79828 5.614 3.09695 5.922 3.33961C6.23933 3.57295 6.552 3.68961 6.86 3.68961C7.18667 3.68961 7.46667 3.57761 7.7 3.35361C7.93333 3.12028 8.05 2.81695 8.05 2.44361C8.05 2.09828 7.938 1.80428 7.714 1.56161C7.49 1.31895 7.20067 1.19761 6.846 1.19761ZM2.506 3.68961C2.86067 3.68961 3.18267 3.56361 3.472 3.31161C3.76133 3.05028 3.99467 2.76095 4.172 2.44361C3.99467 2.09828 3.752 1.80428 3.444 1.56161C3.14533 1.31895 2.828 1.19761 2.492 1.19761C2.13733 1.19761 1.848 1.31895 1.624 1.56161C1.40933 1.80428 1.302 2.10295 1.302 2.45761C1.302 2.84961 1.42333 3.15295 1.666 3.36761C1.918 3.58228 2.198 3.68961 2.506 3.68961Z" fill="white" />
	</symbol>

	<symbol width="25" height="26" viewBox="0 0 25 26" fill="none" id="circle">
		<circle cx="12.5" cy="12.5039" r="12.5" fill="#A6A7B0" />
	</symbol>

	<symbol width="19" height="18" viewBox="0 0 19 18" fill="none" id="menuFilter">
		<path opacity="0.6" d="M14.2531 2.53201V0.782588C14.2529 0.696482 14.2779 0.612122 14.3252 0.539402C14.3724 0.466683 14.4398 0.40862 14.5196 0.372025C14.5995 0.33543 14.6883 0.321821 14.7757 0.332792C14.8632 0.343764 14.9456 0.378863 15.0134 0.433971L18.8333 3.54255C18.9065 3.60217 18.9591 3.68238 18.984 3.77225C19.0088 3.86213 19.0047 3.9573 18.9722 4.0448C18.9396 4.1323 18.8803 4.20788 18.8022 4.26124C18.7241 4.3146 18.631 4.34316 18.5357 4.34301H0.345459V2.53201H14.2531ZM0.345459 15.209H18.889V17.02H0.345459V15.209ZM0.345459 8.87051H18.889V10.6815H0.345459V8.87051Z" fill="#A6A7B0" />
	</symbol>

	<symbol width="12" height="12" viewBox="0 0 12 12" fill="none" id="trash">
		<path d="M9 1.2H12V2.4H10.8V11.4C10.8 11.5591 10.7368 11.7117 10.6243 11.8243C10.5117 11.9368 10.3591 12 10.2 12H1.8C1.64087 12 1.48826 11.9368 1.37574 11.8243C1.26321 11.7117 1.2 11.5591 1.2 11.4V2.4H0V1.2H3V0H9V1.2ZM4.2 4.2V9H5.4V4.2H4.2ZM6.6 4.2V9H7.8V4.2H6.6Z" fill="#A6A7B0" />
	</symbol>

	<symbol width="113" height="30" viewBox="0 0 113 30" fill="none" id="apple">
		<path d="M18.1312 13.7838C18.1015 10.5608 20.8379 8.9928 20.963 8.9198C19.4133 6.7168 17.0112 6.4158 16.1671 6.3918C14.1497 6.1848 12.1927 7.5688 11.1651 7.5688C10.1168 7.5688 8.53428 6.4118 6.82864 6.4458C4.63376 6.4788 2.58043 7.7178 1.45427 9.6418C-0.86983 13.5648 0.863505 19.3298 3.09017 22.5008C4.20402 24.0538 5.50556 25.7878 7.20915 25.7268C8.87582 25.6598 9.49838 24.6908 11.5097 24.6908C13.5025 24.6908 14.0871 25.7268 15.8245 25.6878C17.6133 25.6598 18.7394 24.1278 19.8143 22.5608C21.1015 20.7808 21.6184 19.0278 21.6389 18.9378C21.5969 18.9238 18.1651 17.6468 18.1312 13.7838Z" fill="white" />
		<path d="M14.8492 4.3058C15.7456 3.2128 16.3589 1.7258 16.1886 0.216797C14.8912 0.272797 13.2686 1.0918 12.3343 2.1608C11.5076 3.1028 10.7692 4.6468 10.9599 6.0988C12.4174 6.2048 13.9138 5.3818 14.8492 4.3058Z" fill="white" />
		<path d="M42.2516 25.5043H39.9224L38.6465 21.5953H34.2116L32.9962 25.5043H30.7285L35.1224 12.1963H37.8362L42.2516 25.5043ZM38.2619 19.9553L37.108 16.4803C36.986 16.1253 36.7572 15.2893 36.4198 13.9733H36.3788C36.2444 14.5393 36.028 15.3753 35.7306 16.4803L34.5972 19.9553H38.2619V19.9553Z" fill="white" />
		<path d="M53.5512 20.5884C53.5512 22.2204 53.0989 23.5104 52.1943 24.4574C51.384 25.3004 50.3779 25.7214 49.1768 25.7214C47.8804 25.7214 46.9491 25.2674 46.382 24.3594H46.3409V29.4144H44.1543V19.0674C44.1543 18.0414 44.1266 16.9884 44.0732 15.9084H45.9963L46.1184 17.4294H46.1594C46.8886 16.2834 47.9953 15.7114 49.4804 15.7114C50.6415 15.7114 51.6107 16.1584 52.3861 17.0534C53.1635 17.9494 53.5512 19.1274 53.5512 20.5884ZM51.3235 20.6664C51.3235 19.7324 51.1081 18.9624 50.6753 18.3564C50.2025 17.7244 49.5676 17.4084 48.7717 17.4084C48.2322 17.4084 47.742 17.5844 47.304 17.9314C46.865 18.2814 46.5779 18.7384 46.4435 19.3044C46.3758 19.5684 46.342 19.7844 46.342 19.9544V21.5544C46.342 22.2524 46.5614 22.8414 47.0004 23.3224C47.4394 23.8034 48.0097 24.0434 48.7112 24.0434C49.5348 24.0434 50.1758 23.7334 50.6343 23.1154C51.0938 22.4964 51.3235 21.6804 51.3235 20.6664Z" fill="white" />
		<path d="M64.8712 20.5884C64.8712 22.2204 64.4189 23.5104 63.5133 24.4574C62.704 25.3004 61.6979 25.7214 60.4969 25.7214C59.2004 25.7214 58.2692 25.2674 57.703 24.3594H57.662V29.4144H55.4753V19.0674C55.4753 18.0414 55.4476 16.9884 55.3943 15.9084H57.3174L57.4394 17.4294H57.4804C58.2086 16.2834 59.3153 15.7114 60.8015 15.7114C61.9615 15.7114 62.9307 16.1584 63.7081 17.0534C64.4825 17.9494 64.8712 19.1274 64.8712 20.5884ZM62.6435 20.6664C62.6435 19.7324 62.4271 18.9624 61.9943 18.3564C61.5215 17.7244 60.8887 17.4084 60.0917 17.4084C59.5512 17.4084 59.062 17.5844 58.623 17.9314C58.184 18.2814 57.8979 18.7384 57.7635 19.3044C57.6969 19.5684 57.662 19.7844 57.662 19.9544V21.5544C57.662 22.2524 57.8815 22.8414 58.3184 23.3224C58.7574 23.8024 59.3276 24.0434 60.0312 24.0434C60.8548 24.0434 61.4958 23.7334 61.9543 23.1154C62.4138 22.4964 62.6435 21.6804 62.6435 20.6664Z" fill="white" />
		<path d="M77.5275 21.7725C77.5275 22.9045 77.1244 23.8255 76.3152 24.5365C75.426 25.3135 74.188 25.7015 72.5973 25.7015C71.1285 25.7015 69.9511 25.4255 69.0598 24.8725L69.5665 23.0955C70.5265 23.6615 71.5798 23.9455 72.7275 23.9455C73.5511 23.9455 74.1921 23.7635 74.6526 23.4015C75.1111 23.0395 75.3398 22.5535 75.3398 21.9475C75.3398 21.4075 75.1511 20.9525 74.7726 20.5835C74.3962 20.2145 73.7675 19.8715 72.8896 19.5545C70.4998 18.6855 69.306 17.4125 69.306 15.7385C69.306 14.6445 69.7244 13.7475 70.5624 13.0495C71.3973 12.3505 72.5111 12.0015 73.9039 12.0015C75.146 12.0015 76.1778 12.2125 77.0014 12.6335L76.4547 14.3715C75.6855 13.9635 74.8157 13.7595 73.8424 13.7595C73.0732 13.7595 72.4721 13.9445 72.0414 14.3125C71.6773 14.6415 71.4947 15.0425 71.4947 15.5175C71.4947 16.0435 71.7029 16.4785 72.1214 16.8205C72.4855 17.1365 73.147 17.4785 74.107 17.8475C75.2814 18.3085 76.1439 18.8475 76.6988 19.4655C77.2516 20.0815 77.5275 20.8525 77.5275 21.7725Z" fill="white" />
		<path d="M84.7573 17.5086H82.347V22.1676C82.347 23.3526 82.7716 23.9446 83.6229 23.9446C84.0137 23.9446 84.3378 23.9116 84.5942 23.8456L84.6547 25.4646C84.2239 25.6216 83.6568 25.7006 82.9542 25.7006C82.0906 25.7006 81.4157 25.4436 80.9286 24.9306C80.4434 24.4166 80.1993 23.5546 80.1993 22.3436V17.5066H78.7634V15.9066H80.1993V14.1496L82.347 13.5176V15.9066H84.7573V17.5086Z" fill="white" />
		<path d="M95.6319 20.6274C95.6319 22.1024 95.1991 23.3134 94.3355 24.2604C93.4299 25.2354 92.2278 25.7214 90.7294 25.7214C89.2853 25.7214 88.1355 25.2544 87.2781 24.3204C86.4207 23.3864 85.9919 22.2074 85.9919 20.7864C85.9919 19.2994 86.433 18.0814 87.3181 17.1344C88.2012 16.1864 89.393 15.7124 90.8914 15.7124C92.3355 15.7124 93.4976 16.1794 94.3745 17.1144C95.2135 18.0214 95.6319 19.1924 95.6319 20.6274ZM93.3632 20.6964C93.3632 19.8114 93.1694 19.0524 92.7766 18.4194C92.3181 17.6534 91.6627 17.2714 90.8135 17.2714C89.9345 17.2714 89.2668 17.6544 88.8084 18.4194C88.4155 19.0534 88.2217 19.8244 88.2217 20.7364C88.2217 21.6214 88.4155 22.3804 88.8084 23.0124C89.2812 23.7784 89.9417 24.1604 90.794 24.1604C91.6289 24.1604 92.2843 23.7704 92.7571 22.9924C93.1602 22.3474 93.3632 21.5804 93.3632 20.6964Z" fill="white" />
		<path d="M102.74 17.7834C102.523 17.7444 102.293 17.7244 102.051 17.7244C101.281 17.7244 100.686 18.0074 100.268 18.5744C99.9039 19.0744 99.7213 19.7064 99.7213 20.4694V25.5044H97.5357L97.5562 18.9304C97.5562 17.8244 97.5285 16.8174 97.4741 15.9094H99.3787L99.4587 17.7454H99.5193C99.75 17.1144 100.114 16.6064 100.613 16.2254C101.1 15.8824 101.626 15.7114 102.193 15.7114C102.395 15.7114 102.578 15.7254 102.74 15.7504V17.7834Z" fill="white" />
		<path d="M112.519 20.2524C112.519 20.6344 112.494 20.9564 112.439 21.2194H105.879C105.905 22.1674 106.222 22.8924 106.831 23.3924C107.384 23.8394 108.099 24.0634 108.977 24.0634C109.948 24.0634 110.834 23.9124 111.631 23.6094L111.974 25.0894C111.042 25.4854 109.943 25.6824 108.674 25.6824C107.148 25.6824 105.95 25.2444 105.078 24.3694C104.209 23.4944 103.773 22.3194 103.773 20.8454C103.773 19.3984 104.178 18.1934 104.989 17.2324C105.838 16.2064 106.986 15.6934 108.43 15.6934C109.849 15.6934 110.922 16.2064 111.652 17.2324C112.229 18.0474 112.519 19.0554 112.519 20.2524ZM110.434 19.6994C110.449 19.0674 110.306 18.5214 110.01 18.0604C109.631 17.4674 109.05 17.1714 108.267 17.1714C107.552 17.1714 106.971 17.4604 106.527 18.0404C106.162 18.5014 105.946 19.0544 105.879 19.6984H110.434V19.6994Z" fill="white" />
		<path d="M37.5387 4.00871C37.5387 5.18571 37.1766 6.07171 36.4535 6.66671C35.7838 7.21571 34.832 7.49071 33.5992 7.49071C32.9879 7.49071 32.4648 7.46471 32.0269 7.41271V0.981703C32.5981 0.891703 33.2135 0.845703 33.8781 0.845703C35.0525 0.845703 35.9376 1.0947 36.5346 1.5927C37.2033 2.1557 37.5387 2.9607 37.5387 4.00871ZM36.4053 4.03771C36.4053 3.2747 36.1981 2.6897 35.7838 2.2817C35.3694 1.8747 34.7643 1.6707 33.9674 1.6707C33.6289 1.6707 33.3407 1.6927 33.1017 1.7387V6.62771C33.234 6.64771 33.4761 6.65671 33.8279 6.65671C34.6504 6.65671 35.2853 6.43371 35.7325 5.98771C36.1797 5.54171 36.4053 4.89171 36.4053 4.03771Z" fill="white" />
		<path d="M43.5479 5.03656C43.5479 5.76156 43.3356 6.35556 42.911 6.82156C42.4658 7.30056 41.8761 7.53956 41.1397 7.53956C40.4299 7.53956 39.8648 7.31056 39.4433 6.85056C39.0228 6.39156 38.8125 5.81256 38.8125 5.11456C38.8125 4.38456 39.0289 3.78556 39.4638 3.32056C39.8987 2.85556 40.4833 2.62256 41.2197 2.62256C41.9294 2.62256 42.4997 2.85156 42.9315 3.31056C43.3417 3.75656 43.5479 4.33256 43.5479 5.03656ZM42.433 5.07056C42.433 4.63556 42.3366 4.26256 42.1448 3.95156C41.9192 3.57556 41.5981 3.38756 41.1807 3.38756C40.7489 3.38756 40.4207 3.57556 40.1951 3.95156C40.0022 4.26256 39.9069 4.64156 39.9069 5.08956C39.9069 5.52456 40.0033 5.89756 40.1951 6.20856C40.4279 6.58456 40.752 6.77256 41.1705 6.77256C41.5807 6.77256 41.9028 6.58156 42.1346 6.19856C42.3335 5.88156 42.433 5.50556 42.433 5.07056Z" fill="white" />
		<path d="M51.6052 2.71875L50.0924 7.43275H49.1078L48.4811 5.38575C48.3221 4.87475 48.1929 4.36675 48.0924 3.86275H48.0729C47.9796 4.38075 47.8504 4.88775 47.6842 5.38575L47.0186 7.43275H46.0227L44.6001 2.71875H45.7047L46.2514 4.95975C46.3837 5.48975 46.4924 5.99475 46.5796 6.47275H46.5991C46.6791 6.07875 46.8114 5.57675 46.998 4.96975L47.6842 2.71975H48.5601L49.2175 4.92175C49.3765 5.45875 49.5057 5.97575 49.6052 6.47375H49.635C49.7078 5.98875 49.8175 5.47175 49.9632 4.92175L50.5498 2.71975H51.6052V2.71875Z" fill="white" />
		<path d="M57.1779 7.43263H56.103V4.73263C56.103 3.90063 55.7789 3.48463 55.1287 3.48463C54.8097 3.48463 54.5522 3.59863 54.3522 3.82763C54.1543 4.05663 54.0538 4.32663 54.0538 4.63563V7.43163H52.9789V4.06563C52.9789 3.65163 52.9656 3.20263 52.9399 2.71663H53.8846L53.9348 3.45363H53.9646C54.0897 3.22463 54.2763 3.03563 54.5215 2.88463C54.8128 2.70863 55.1389 2.61963 55.4958 2.61963C55.9471 2.61963 56.3225 2.76163 56.621 3.04663C56.9922 3.39563 57.1779 3.91663 57.1779 4.60863V7.43263V7.43263Z" fill="white" />
		<path d="M60.1417 7.43267H59.0679V0.555664H60.1417V7.43267Z" fill="white" />
		<path d="M66.47 5.03656C66.47 5.76156 66.2577 6.35556 65.8331 6.82156C65.388 7.30056 64.7972 7.53956 64.0618 7.53956C63.351 7.53956 62.7859 7.31056 62.3654 6.85056C61.9449 6.39156 61.7346 5.81256 61.7346 5.11456C61.7346 4.38456 61.951 3.78556 62.3859 3.32056C62.8208 2.85556 63.4054 2.62256 64.1408 2.62256C64.8515 2.62256 65.4208 2.85156 65.8536 3.31056C66.2639 3.75656 66.47 4.33256 66.47 5.03656ZM65.3541 5.07056C65.3541 4.63556 65.2577 4.26256 65.0659 3.95156C64.8413 3.57556 64.5192 3.38756 64.1028 3.38756C63.67 3.38756 63.3418 3.57556 63.1172 3.95156C62.9244 4.26256 62.829 4.64156 62.829 5.08956C62.829 5.52456 62.9254 5.89756 63.1172 6.20856C63.35 6.58456 63.6741 6.77256 64.0926 6.77256C64.5028 6.77256 64.8239 6.58156 65.0556 6.19856C65.2556 5.88156 65.3541 5.50556 65.3541 5.07056Z" fill="white" />
		<path d="M71.6719 7.43256H70.7067L70.6267 6.88956H70.597C70.2667 7.32256 69.796 7.53956 69.1847 7.53956C68.7283 7.53956 68.359 7.39656 68.0811 7.11256C67.8288 6.85456 67.7026 6.53356 67.7026 6.15256C67.7026 5.57656 67.9488 5.13756 68.4442 4.83356C68.9385 4.52956 69.6339 4.38056 70.5293 4.38756V4.29956C70.5293 3.67856 70.1949 3.36856 69.5252 3.36856C69.0483 3.36856 68.6278 3.48556 68.2647 3.71756L68.0462 3.02956C68.4955 2.75856 69.0503 2.62256 69.7047 2.62256C70.9683 2.62256 71.6021 3.27256 71.6021 4.57256V6.30856C71.6021 6.77956 71.6257 7.15456 71.6719 7.43256ZM70.556 5.81256V5.08556C69.3703 5.06556 68.7775 5.38256 68.7775 6.03556C68.7775 6.28156 68.8452 6.46556 68.9837 6.58856C69.1221 6.71156 69.2985 6.77256 69.5088 6.77256C69.7447 6.77256 69.9652 6.69956 70.1662 6.55456C70.3683 6.40856 70.4924 6.22356 70.5385 5.99656C70.5498 5.94556 70.556 5.88356 70.556 5.81256Z" fill="white" />
		<path d="M77.7799 7.43267H76.8261L76.7758 6.67567H76.7461C76.4415 7.25167 75.9225 7.53967 75.1933 7.53967C74.6107 7.53967 74.1256 7.31667 73.741 6.87067C73.3563 6.42467 73.1646 5.84567 73.1646 5.13467C73.1646 4.37167 73.3728 3.75367 73.7912 3.28167C74.1963 2.84167 74.6927 2.62167 75.2835 2.62167C75.9327 2.62167 76.3871 2.83467 76.6456 3.26167H76.6661V0.555664H77.742V6.16267C77.742 6.62167 77.7543 7.04467 77.7799 7.43267ZM76.6661 5.44467V4.65867C76.6661 4.52267 76.6558 4.41267 76.6363 4.32867C76.5758 4.07667 76.4456 3.86467 76.2476 3.69367C76.0476 3.52267 75.8066 3.43667 75.5286 3.43667C75.1276 3.43667 74.8138 3.59167 74.583 3.90267C74.3543 4.21367 74.2384 4.61067 74.2384 5.09567C74.2384 5.56167 74.3481 5.93967 74.5686 6.23067C74.8015 6.54067 75.1153 6.69567 75.5081 6.69567C75.861 6.69567 76.143 6.56667 76.3574 6.30767C76.5645 6.06867 76.6661 5.78067 76.6661 5.44467Z" fill="white" />
		<path d="M86.9724 5.03656C86.9724 5.76156 86.7601 6.35556 86.3355 6.82156C85.8904 7.30056 85.3017 7.53956 84.5642 7.53956C83.8555 7.53956 83.2904 7.31056 82.8678 6.85056C82.4473 6.39156 82.2371 5.81256 82.2371 5.11456C82.2371 4.38456 82.4535 3.78556 82.8883 3.32056C83.3232 2.85556 83.9078 2.62256 84.6453 2.62256C85.354 2.62256 85.9253 2.85156 86.356 3.31056C86.7663 3.75656 86.9724 4.33256 86.9724 5.03656ZM85.8586 5.07056C85.8586 4.63556 85.7622 4.26256 85.5704 3.95156C85.3437 3.57556 85.0237 3.38756 84.6053 3.38756C84.1745 3.38756 83.8463 3.57556 83.6196 3.95156C83.4268 4.26256 83.3314 4.64156 83.3314 5.08956C83.3314 5.52456 83.4278 5.89756 83.6196 6.20856C83.8524 6.58456 84.1766 6.77256 84.595 6.77256C85.0053 6.77256 85.3283 6.58156 85.5601 6.19856C85.7581 5.88156 85.8586 5.50556 85.8586 5.07056Z" fill="white" />
		<path d="M92.7518 7.43263H91.678V4.73263C91.678 3.90063 91.3539 3.48463 90.7026 3.48463C90.3836 3.48463 90.1262 3.59863 89.9272 3.82763C89.7282 4.05663 89.6287 4.32663 89.6287 4.63563V7.43163H88.5528V4.06563C88.5528 3.65163 88.5405 3.20263 88.5149 2.71663H89.4585L89.5087 3.45363H89.5385C89.6646 3.22463 89.8513 3.03563 90.0954 2.88463C90.3877 2.70863 90.7128 2.61963 91.0708 2.61963C91.521 2.61963 91.8964 2.76163 92.1949 3.04663C92.5672 3.39563 92.7518 3.91663 92.7518 4.60863V7.43263V7.43263Z" fill="white" />
		<path d="M99.9859 3.50343H98.8023V5.79344C98.8023 6.37544 99.0125 6.66644 99.4289 6.66644C99.6218 6.66644 99.7818 6.65044 99.9079 6.61744L99.9356 7.41244C99.7233 7.49044 99.4443 7.52944 99.1007 7.52944C98.6761 7.52944 98.3459 7.40344 98.1069 7.15144C97.8669 6.89944 97.7479 6.47544 97.7479 5.88044V3.50343H97.0413V2.71843H97.7479V1.85443L98.8013 1.54443V2.71743H99.9848V3.50343H99.9859Z" fill="white" />
		<path d="M105.676 7.43267H104.6V4.75267C104.6 3.90767 104.276 3.48467 103.627 3.48467C103.128 3.48467 102.788 3.72967 102.601 4.21967C102.569 4.32267 102.551 4.44867 102.551 4.59667V7.43167H101.477V0.555664H102.551V3.39667H102.571C102.91 2.87967 103.395 2.62167 104.024 2.62167C104.469 2.62167 104.837 2.76367 105.129 3.04867C105.493 3.40367 105.676 3.93167 105.676 4.62967V7.43267V7.43267Z" fill="white" />
		<path d="M111.546 4.85228C111.546 5.04028 111.531 5.19828 111.506 5.32728H108.282C108.297 5.79328 108.45 6.14828 108.749 6.39428C109.022 6.61428 109.373 6.72428 109.804 6.72428C110.281 6.72428 110.716 6.65028 111.108 6.50128L111.276 7.22928C110.818 7.42328 110.278 7.52028 109.653 7.52028C108.905 7.52028 108.315 7.30528 107.888 6.87528C107.46 6.44528 107.247 5.86828 107.247 5.14428C107.247 4.43328 107.445 3.84128 107.844 3.36928C108.261 2.86528 108.824 2.61328 109.534 2.61328C110.23 2.61328 110.758 2.86528 111.115 3.36928C111.403 3.76928 111.546 4.26428 111.546 4.85228ZM110.52 4.58128C110.528 4.27028 110.458 4.00228 110.312 3.77628C110.125 3.48528 109.841 3.33928 109.457 3.33928C109.106 3.33928 108.82 3.48128 108.601 3.76628C108.423 3.99328 108.317 4.26428 108.282 4.58128H110.52Z" fill="white" />
	</symbol>

	<symbol width="119" height="29" viewBox="0 0 119 29" fill="none" id="google">
		<path d="M38.646 4.2435C38.646 5.0785 38.39 5.74725 37.8856 6.246C37.3056 6.83725 36.5502 7.13475 35.6246 7.13475C34.7399 7.13475 33.9845 6.83225 33.3648 6.236C32.7439 5.631 32.4341 4.8885 32.4341 3.99975C32.4341 3.111 32.7439 2.3685 33.3648 1.7685C33.9845 1.16725 34.7399 0.864746 35.6246 0.864746C36.065 0.864746 36.4849 0.953496 36.8856 1.1185C37.2851 1.28475 37.6103 1.50975 37.8459 1.78725L37.3107 2.31475C36.8997 1.841 36.3402 1.60725 35.6246 1.60725C34.9793 1.60725 34.4198 1.82725 33.9448 2.271C33.475 2.716 33.2394 3.29225 33.2394 3.99975C33.2394 4.70725 33.475 5.2885 33.9448 5.7335C34.4198 6.17225 34.9793 6.39725 35.6246 6.39725C36.3095 6.39725 36.8857 6.17225 37.3402 5.7285C37.6397 5.43475 37.81 5.02975 37.8548 4.51225H35.6246V3.78975H38.6C38.6358 3.946 38.646 4.09725 38.646 4.2435V4.2435Z" fill="white" stroke="white" stroke-width="0.123077" stroke-miterlimit="10" />
		<path d="M43.3666 1.73869H40.5717V3.63869H43.0913V4.36119H40.5717V6.26119H43.3666V6.99744H39.7805V1.00244H43.3666V1.73869Z" fill="white" stroke="white" stroke-width="0.123077" stroke-miterlimit="10" />
		<path d="M46.6979 6.99744H45.9067V1.73869H44.1924V1.00244H48.4135V1.73869H46.6979V6.99744V6.99744Z" fill="white" stroke="white" stroke-width="0.123077" stroke-miterlimit="10" />
		<path d="M51.4683 6.99744V1.00244H52.2582V6.99744H51.4683Z" fill="white" stroke="white" stroke-width="0.123077" stroke-miterlimit="10" />
		<path d="M55.7599 6.99744H54.9751V1.73869H53.2544V1.00244H57.4806V1.73869H55.7599V6.99744Z" fill="white" stroke="white" stroke-width="0.123077" stroke-miterlimit="10" />
		<path d="M65.4723 6.226C64.8668 6.83225 64.1165 7.13475 63.2216 7.13475C62.3215 7.13475 61.5713 6.83225 60.9657 6.226C60.3614 5.621 60.0605 4.8785 60.0605 3.99975C60.0605 3.121 60.3614 2.3785 60.9657 1.7735C61.5713 1.16725 62.3215 0.864746 63.2216 0.864746C64.1114 0.864746 64.8616 1.16725 65.4672 1.7785C66.0766 2.3885 66.3775 3.126 66.3775 3.99975C66.3775 4.8785 66.0766 5.621 65.4723 6.226ZM61.5508 5.7235C62.0066 6.17225 62.561 6.39725 63.2216 6.39725C63.8771 6.39725 64.4366 6.17225 64.8872 5.7235C65.3417 5.27475 65.5722 4.6985 65.5722 3.99975C65.5722 3.301 65.3417 2.72475 64.8872 2.276C64.4366 1.82725 63.8771 1.60225 63.2216 1.60225C62.561 1.60225 62.0066 1.82725 61.5508 2.276C61.0963 2.72475 60.8659 3.301 60.8659 3.99975C60.8659 4.6985 61.0963 5.27475 61.5508 5.7235V5.7235Z" fill="white" stroke="white" stroke-width="0.123077" stroke-miterlimit="10" />
		<path d="M67.4873 6.99744V1.00244H68.4475L71.4332 5.66494H71.4677L71.4332 4.51244V1.00244H72.2231V6.99744H71.3986L68.2721 2.10494H68.2376L68.2721 3.26244V6.99744H67.4873V6.99744Z" fill="white" stroke="white" stroke-width="0.123077" stroke-miterlimit="10" />
		<path d="M59.8658 15.7521C57.4601 15.7521 55.4949 17.5396 55.4949 20.0059C55.4949 22.4521 57.4601 24.2584 59.8658 24.2584C62.2766 24.2584 64.2418 22.4521 64.2418 20.0059C64.2418 17.5396 62.2766 15.7521 59.8658 15.7521ZM59.8658 22.5834C58.5458 22.5834 57.4102 21.5196 57.4102 20.0059C57.4102 18.4721 58.5458 17.4271 59.8658 17.4271C61.1858 17.4271 62.3265 18.4721 62.3265 20.0059C62.3265 21.5196 61.1858 22.5834 59.8658 22.5834V22.5834ZM50.3289 15.7521C47.9181 15.7521 45.958 17.5396 45.958 20.0059C45.958 22.4521 47.9181 24.2584 50.3289 24.2584C52.7384 24.2584 54.6998 22.4521 54.6998 20.0059C54.6998 17.5396 52.7384 15.7521 50.3289 15.7521ZM50.3289 22.5834C49.0077 22.5834 47.8682 21.5196 47.8682 20.0059C47.8682 18.4721 49.0077 17.4271 50.3289 17.4271C51.6489 17.4271 52.7845 18.4721 52.7845 20.0059C52.7845 21.5196 51.6489 22.5834 50.3289 22.5834ZM38.9804 17.0559V18.8634H43.4013C43.272 19.8734 42.9263 20.6159 42.3963 21.1334C41.751 21.7584 40.746 22.4521 38.9804 22.4521C36.2598 22.4521 34.1294 20.3084 34.1294 17.6521C34.1294 14.9959 36.2598 12.8521 38.9804 12.8521C40.4515 12.8521 41.5218 13.4134 42.3118 14.1409L43.6164 12.8671C42.5115 11.8371 41.0417 11.0459 38.9804 11.0459C35.2497 11.0459 32.1143 14.0096 32.1143 17.6521C32.1143 21.2946 35.2497 24.2584 38.9804 24.2584C40.9969 24.2584 42.5115 23.6134 43.7022 22.4034C44.9223 21.2121 45.3025 19.5371 45.3025 18.1846C45.3025 17.7646 45.2667 17.3784 45.2027 17.0559H38.9804ZM85.3858 18.4571C85.0261 17.5059 83.916 15.7521 81.6551 15.7521C79.4145 15.7521 77.5492 17.4759 77.5492 20.0059C77.5492 22.3884 79.3953 24.2584 81.8701 24.2584C83.8712 24.2584 85.0261 23.0671 85.501 22.3734L84.0159 21.4071C83.5204 22.1146 82.8457 22.5834 81.8701 22.5834C80.901 22.5834 80.2058 22.1496 79.7602 21.2946L85.5868 18.9409L85.3858 18.4571V18.4571ZM79.4453 19.8734C79.3953 18.2334 80.7499 17.3934 81.7204 17.3934C82.4808 17.3934 83.1261 17.7646 83.3412 18.2959L79.4453 19.8734V19.8734ZM74.7095 23.9996H76.6248V11.4996H74.7095V23.9996ZM71.5728 16.6996H71.5088C71.0786 16.2021 70.2579 15.7521 69.2183 15.7521C67.0367 15.7521 65.042 17.6221 65.042 20.0196C65.042 22.4034 67.0367 24.2584 69.2183 24.2584C70.2579 24.2584 71.0786 23.8046 71.5088 23.2921H71.5728V23.9021C71.5728 25.5284 70.683 26.4021 69.2478 26.4021C68.0776 26.4021 67.3517 25.5771 67.0521 24.8834L65.3864 25.5621C65.8665 26.6896 67.1378 28.0771 69.2478 28.0771C71.4934 28.0771 73.3882 26.7871 73.3882 23.6484V16.0109H71.5728V16.6996V16.6996ZM69.3822 22.5834C68.0622 22.5834 66.9573 21.5046 66.9573 20.0196C66.9573 18.5209 68.0622 17.4271 69.3822 17.4271C70.683 17.4271 71.7085 18.5209 71.7085 20.0196C71.7085 21.5046 70.683 22.5834 69.3822 22.5834V22.5834ZM94.353 11.4996H89.7721V23.9996H91.6823V19.2634H94.353C96.4744 19.2634 98.5549 17.7646 98.5549 15.3809C98.5549 12.9984 96.4693 11.4996 94.353 11.4996V11.4996ZM94.4029 17.5246H91.6823V13.2384H94.4029C95.8291 13.2384 96.6434 14.3946 96.6434 15.3809C96.6434 16.3484 95.8291 17.5246 94.4029 17.5246ZM106.211 15.7284C104.831 15.7284 103.396 16.3234 102.805 17.6421L104.501 18.3359C104.865 17.6421 105.536 17.4171 106.246 17.4171C107.237 17.4171 108.242 17.9984 108.257 19.0246V19.1559C107.911 18.9609 107.171 18.6721 106.261 18.6721C104.435 18.6721 102.575 19.6534 102.575 21.4846C102.575 23.1596 104.07 24.2384 105.751 24.2384C107.037 24.2384 107.746 23.6721 108.192 23.0134H108.257V23.9796H110.102V19.1846C110.102 16.9684 108.407 15.7284 106.211 15.7284ZM105.981 22.5784C105.356 22.5784 104.485 22.2759 104.485 21.5196C104.485 20.5521 105.571 20.1809 106.511 20.1809C107.352 20.1809 107.746 20.3621 108.257 20.6009C108.107 21.7584 107.087 22.5784 105.981 22.5784V22.5784ZM116.823 16.0021L114.628 21.4209H114.562L112.292 16.0021H110.232L113.643 23.5746L111.697 27.7884H113.693L118.949 16.0021H116.823V16.0021ZM99.6047 23.9996H101.52V11.4996H99.6047V23.9996Z" fill="white" />
		<path d="M0.767467 1.53867C0.466599 1.84617 0.29248 2.32492 0.29248 2.94492V25.0599C0.29248 25.6799 0.466599 26.1587 0.767467 26.4662L0.841724 26.5337L13.5345 14.1462V13.8537L0.841724 1.46617L0.767467 1.53867Z" fill="url(#paint0_linear_901_1410)" />
		<path d="M17.7607 18.2773L13.5344 14.1461V13.8536L17.7658 9.72234L17.8605 9.77609L22.8716 12.5598C24.3017 13.3498 24.3017 14.6498 22.8716 15.4448L17.8605 18.2236L17.7607 18.2773V18.2773Z" fill="url(#paint1_linear_901_1410)" />
		<path d="M17.8607 18.2235L13.5346 13.9997L0.767578 26.466C1.24257 26.9535 2.01714 27.0122 2.89798 26.5247L17.8607 18.2235" fill="url(#paint2_linear_901_1410)" />
		<path d="M17.8607 9.77576L2.89798 1.47451C2.01714 0.992007 1.24257 1.05076 0.767578 1.53826L13.5346 13.9995L17.8607 9.77576Z" fill="url(#paint3_linear_901_1410)" />
		<defs>
			<linearGradient id="paint0_linear_901_1410" x1="12.4075" y1="25.2902" x2="-4.37005" y2="8.10611" gradientUnits="userSpaceOnUse">
				<stop stop-color="#00A0FF" />
				<stop offset="0.0066" stop-color="#00A1FF" />
				<stop offset="0.2601" stop-color="#00BEFF" />
				<stop offset="0.5122" stop-color="#00D2FF" />
				<stop offset="0.7604" stop-color="#00DFFF" />
				<stop offset="1" stop-color="#00E3FF" />
			</linearGradient>
			<linearGradient id="paint1_linear_901_1410" x1="24.7338" y1="13.9984" x2="-0.0494486" y2="13.9984" gradientUnits="userSpaceOnUse">
				<stop stop-color="#FFE000" />
				<stop offset="0.4087" stop-color="#FFBD00" />
				<stop offset="0.7754" stop-color="#FFA500" />
				<stop offset="1" stop-color="#FF9C00" />
			</linearGradient>
			<linearGradient id="paint2_linear_901_1410" x1="15.5083" y1="11.7036" x2="-7.24347" y2="-11.5995" gradientUnits="userSpaceOnUse">
				<stop stop-color="#FF3A44" />
				<stop offset="1" stop-color="#C31162" />
			</linearGradient>
			<linearGradient id="paint3_linear_901_1410" x1="-2.44615" y1="33.8233" x2="7.71354" y2="23.4175" gradientUnits="userSpaceOnUse">
				<stop stop-color="#32A071" />
				<stop offset="0.0685" stop-color="#2DA771" />
				<stop offset="0.4762" stop-color="#15CF74" />
				<stop offset="0.8009" stop-color="#06E775" />
				<stop offset="1" stop-color="#00F076" />
			</linearGradient>
		</defs>
	</symbol>

	<symbol width="26" height="15" viewBox="0 0 26 15" fill="none" id="noauth">
			<path d="M0 0.866666C0 0.38802 0.38802 0 0.866667 0H17.4863C17.9649 0 18.3529 0.38802 18.3529 0.866667V0.975C18.3529 1.45365 17.9649 1.84167 17.4863 1.84167H0.866665C0.388018 1.84167 0 1.45365 0 0.975V0.866666ZM0 7.3125C0 6.83385 0.38802 6.44583 0.866667 6.44583H25.1333C25.612 6.44583 26 6.83385 26 7.3125V7.42083C26 7.89948 25.612 8.2875 25.1333 8.2875H0.866667C0.388021 8.2875 0 7.89948 0 7.42083V7.3125ZM0 13.7583C0 13.2797 0.38802 12.8917 0.866667 12.8917H12.1333C12.612 12.8917 13 13.2797 13 13.7583V13.8667C13 14.3453 12.612 14.7333 12.1333 14.7333H0.866667C0.38802 14.7333 0 14.3453 0 13.8667V13.7583Z" fill="white" />
	</symbol>
</svg>
