<svg width="22" height="22" viewBox="0 0 22 22" fill="none" xmlns="http://www.w3.org/2000/svg">
<path d="M17.3615 15.6101L22 20.4889L20.4676 22L15.8302 17.1201C14.1047 18.4841 11.9585 19.226 9.74697 19.2229C4.36664 19.2229 0 14.917 0 9.61144C0 4.30593 4.36664 0 9.74697 0C15.1273 0 19.4939 4.30593 19.4939 9.61144C19.4971 11.7922 18.7447 13.9085 17.3615 15.6101ZM15.189 14.8176C16.5635 13.4239 17.3311 11.5555 17.328 9.61144C17.328 5.48066 13.9349 2.13588 9.74697 2.13588C5.55794 2.13588 2.16599 5.48066 2.16599 9.61144C2.16599 13.7412 5.55794 17.087 9.74697 17.087C11.7185 17.0901 13.6131 16.3332 15.0266 14.9778L15.189 14.8176Z" fill="white"/>
</svg>
