<svg width="26" height="25" viewBox="0 0 26 25" fill="none" xmlns="http://www.w3.org/2000/svg">
<path d="M12.7501 2.73804C6.88503 2.73804 2.125 7.2714 2.125 12.8572C2.125 18.4429 6.88503 22.9763 12.7501 22.9763C18.6151 22.9763 23.3751 18.4429 23.3751 12.8572C23.3751 7.2714 18.6151 2.73804 12.7501 2.73804ZM12.7501 5.77377C14.5138 5.77377 15.9376 7.12973 15.9376 8.80951C15.9376 10.4893 14.5138 11.8452 12.7501 11.8452C10.9863 11.8452 9.56255 10.4893 9.56255 8.80951C9.56255 7.12973 10.9863 5.77377 12.7501 5.77377ZM12.7501 20.1429C10.0938 20.1429 7.74566 18.8477 6.37503 16.8846C6.4069 14.8709 10.6251 13.7679 12.7501 13.7679C14.8645 13.7679 19.0932 14.8709 19.1251 16.8846C17.7545 18.8477 15.4063 20.1429 12.7501 20.1429Z" fill="white"/>
</svg>
