<svg width="13" height="13" viewBox="0 0 13 13" fill="none" xmlns="http://www.w3.org/2000/svg">
<path d="M6.41016 4.78033L10.5932 0.59727C10.9837 0.206745 11.6169 0.206746 12.0074 0.59727L12.2233 0.813111C12.6138 1.20364 12.6138 1.8368 12.2233 2.22733L8.04021 6.41038L12.2233 10.5934C12.6138 10.984 12.6138 11.6171 12.2233 12.0077L12.0074 12.2235C11.6169 12.614 10.9837 12.614 10.5932 12.2235L6.41016 8.04044L2.2271 12.2235C1.83657 12.614 1.20341 12.614 0.812886 12.2235L0.597045 12.0077C0.206521 11.6171 0.20652 10.984 0.597045 10.5934L4.7801 6.41038L0.597044 2.22732C0.20652 1.8368 0.206521 1.20364 0.597045 0.813111L0.812886 0.597271C1.20341 0.206746 1.83658 0.206746 2.2271 0.59727L6.41016 4.78033Z" fill="#8F93A4"/>
</svg>
