<svg width="26" height="15" viewBox="0 0 26 15" fill="none" xmlns="http://www.w3.org/2000/svg">
<path d="M0 0.866666C0 0.38802 0.38802 0 0.866667 0H17.4863C17.9649 0 18.3529 0.38802 18.3529 0.866667V0.975C18.3529 1.45365 17.9649 1.84167 17.4863 1.84167H0.866665C0.388018 1.84167 0 1.45365 0 0.975V0.866666ZM0 7.3125C0 6.83385 0.38802 6.44583 0.866667 6.44583H25.1333C25.612 6.44583 26 6.83385 26 7.3125V7.42083C26 7.89948 25.612 8.2875 25.1333 8.2875H0.866667C0.388021 8.2875 0 7.89948 0 7.42083V7.3125ZM0 13.7583C0 13.2797 0.38802 12.8917 0.866667 12.8917H12.1333C12.612 12.8917 13 13.2797 13 13.7583V13.8667C13 14.3453 12.612 14.7333 12.1333 14.7333H0.866667C0.38802 14.7333 0 14.3453 0 13.8667V13.7583Z" fill="white"/>
</svg>
