<svg width="22" height="13" viewBox="0 0 22 13" fill="none" xmlns="http://www.w3.org/2000/svg">
<path d="M0 0.733333C0 0.328324 0.328325 0 0.733333 0H21.2667C21.6717 0 22 0.328325 22 0.733333V0.825C22 1.23001 21.6717 1.55833 21.2667 1.55833H0.733334C0.328325 1.55833 0 1.23001 0 0.825V0.733333ZM0 6.1875C0 5.78249 0.328325 5.45417 0.733333 5.45417H21.2667C21.6717 5.45417 22 5.78249 22 6.1875V6.27917C22 6.68418 21.6717 7.0125 21.2667 7.0125H0.733334C0.328325 7.0125 0 6.68418 0 6.27917V6.1875ZM0 11.6417C0 11.2367 0.328325 10.9083 0.733333 10.9083H21.2667C21.6717 10.9083 22 11.2367 22 11.6417V11.7333C22 12.1383 21.6717 12.4667 21.2667 12.4667H0.733334C0.328325 12.4667 0 12.1383 0 11.7333V11.6417Z" fill="#8F93A4"/>
</svg>
