<svg width="18" height="18" viewBox="0 0 18 18" fill="none" xmlns="http://www.w3.org/2000/svg">
<path d="M8.84912 7.07028L14.7526 1.16681C15.1431 0.776284 15.7763 0.776282 16.1668 1.16681L16.9561 1.95612C17.3466 2.34664 17.3466 2.97981 16.9561 3.37033L11.0526 9.2738L16.9561 15.1773C17.3466 15.5678 17.3466 16.201 16.9561 16.5915L16.1668 17.3808C15.7763 17.7713 15.1431 17.7713 14.7526 17.3808L8.84912 11.4773L2.94565 17.3808C2.55513 17.7713 1.92196 17.7713 1.53144 17.3808L0.742123 16.5915C0.351598 16.201 0.351599 15.5678 0.742123 15.1773L6.64559 9.2738L0.742124 3.37033C0.3516 2.97981 0.351599 2.34664 0.742123 1.95612L1.53144 1.16681C1.92196 0.776282 2.55512 0.776282 2.94565 1.16681L8.84912 7.07028Z" fill="#8F93A4"/>
</svg>
