<svg width="19" height="18" viewBox="0 0 19 18" fill="none" xmlns="http://www.w3.org/2000/svg">
<path d="M9.75007 0.345215C4.85103 0.345215 0.875 4.13191 0.875 8.79766C0.875 13.4634 4.85103 17.2501 9.75007 17.2501C14.6491 17.2501 18.6251 13.4634 18.6251 8.79766C18.6251 4.13191 14.6491 0.345215 9.75007 0.345215ZM9.75007 2.88095C11.2233 2.88095 12.4126 4.01358 12.4126 5.41669C12.4126 6.81979 11.2233 7.95242 9.75007 7.95242C8.27681 7.95242 7.08755 6.81979 7.08755 5.41669C7.08755 4.01358 8.27681 2.88095 9.75007 2.88095ZM9.75007 14.8834C7.5313 14.8834 5.56991 13.8015 4.42503 12.1617C4.45165 10.4797 7.97506 9.55838 9.75007 9.55838C11.5162 9.55838 15.0485 10.4797 15.0751 12.1617C13.9302 13.8015 11.9688 14.8834 9.75007 14.8834Z" fill="#8F93A4"/>
</svg>
