<svg width="13" height="14" viewBox="0 0 13 14" fill="none" xmlns="http://www.w3.org/2000/svg">
<path d="M10.2591 9.93367L13 13.0384L12.0945 14L9.35419 10.8946C8.33458 11.7626 7.06636 12.2347 5.75957 12.2327C2.58029 12.2327 0 9.49261 0 6.11637C0 2.74014 2.58029 0 5.75957 0C8.93886 0 11.5191 2.74014 11.5191 6.11637C11.521 7.50411 11.0764 8.85089 10.2591 9.93367ZM8.97534 9.42941C9.78751 8.54246 10.2411 7.35353 10.2392 6.11637C10.2392 3.48769 8.23427 1.35919 5.75957 1.35919C3.28424 1.35919 1.27991 3.48769 1.27991 6.11637C1.27991 8.74437 3.28424 10.8736 5.75957 10.8736C6.92456 10.8755 8.04413 10.3938 8.87934 9.53135L8.97534 9.42941Z" fill="white"/>
</svg>
