<svg width="113" height="30" viewBox="0 0 113 30" fill="none" xmlns="http://www.w3.org/2000/svg">
<path d="M18.1312 13.7838C18.1015 10.5608 20.8379 8.9928 20.963 8.9198C19.4133 6.7168 17.0112 6.4158 16.1671 6.3918C14.1497 6.1848 12.1927 7.5688 11.1651 7.5688C10.1168 7.5688 8.53428 6.4118 6.82864 6.4458C4.63376 6.4788 2.58043 7.7178 1.45427 9.6418C-0.86983 13.5648 0.863505 19.3298 3.09017 22.5008C4.20402 24.0538 5.50556 25.7878 7.20915 25.7268C8.87582 25.6598 9.49838 24.6908 11.5097 24.6908C13.5025 24.6908 14.0871 25.7268 15.8245 25.6878C17.6133 25.6598 18.7394 24.1278 19.8143 22.5608C21.1015 20.7808 21.6184 19.0278 21.6389 18.9378C21.5969 18.9238 18.1651 17.6468 18.1312 13.7838Z" fill="white"/>
<path d="M14.8492 4.3058C15.7456 3.2128 16.3589 1.7258 16.1886 0.216797C14.8912 0.272797 13.2686 1.0918 12.3343 2.1608C11.5076 3.1028 10.7692 4.6468 10.9599 6.0988C12.4174 6.2048 13.9138 5.3818 14.8492 4.3058Z" fill="white"/>
<path d="M42.2516 25.5043H39.9224L38.6465 21.5953H34.2116L32.9962 25.5043H30.7285L35.1224 12.1963H37.8362L42.2516 25.5043ZM38.2619 19.9553L37.108 16.4803C36.986 16.1253 36.7572 15.2893 36.4198 13.9733H36.3788C36.2444 14.5393 36.028 15.3753 35.7306 16.4803L34.5972 19.9553H38.2619V19.9553Z" fill="white"/>
<path d="M53.5512 20.5884C53.5512 22.2204 53.0989 23.5104 52.1943 24.4574C51.384 25.3004 50.3779 25.7214 49.1768 25.7214C47.8804 25.7214 46.9491 25.2674 46.382 24.3594H46.3409V29.4144H44.1543V19.0674C44.1543 18.0414 44.1266 16.9884 44.0732 15.9084H45.9963L46.1184 17.4294H46.1594C46.8886 16.2834 47.9953 15.7114 49.4804 15.7114C50.6415 15.7114 51.6107 16.1584 52.3861 17.0534C53.1635 17.9494 53.5512 19.1274 53.5512 20.5884ZM51.3235 20.6664C51.3235 19.7324 51.1081 18.9624 50.6753 18.3564C50.2025 17.7244 49.5676 17.4084 48.7717 17.4084C48.2322 17.4084 47.742 17.5844 47.304 17.9314C46.865 18.2814 46.5779 18.7384 46.4435 19.3044C46.3758 19.5684 46.342 19.7844 46.342 19.9544V21.5544C46.342 22.2524 46.5614 22.8414 47.0004 23.3224C47.4394 23.8034 48.0097 24.0434 48.7112 24.0434C49.5348 24.0434 50.1758 23.7334 50.6343 23.1154C51.0938 22.4964 51.3235 21.6804 51.3235 20.6664Z" fill="white"/>
<path d="M64.8712 20.5884C64.8712 22.2204 64.4189 23.5104 63.5133 24.4574C62.704 25.3004 61.6979 25.7214 60.4969 25.7214C59.2004 25.7214 58.2692 25.2674 57.703 24.3594H57.662V29.4144H55.4753V19.0674C55.4753 18.0414 55.4476 16.9884 55.3943 15.9084H57.3174L57.4394 17.4294H57.4804C58.2086 16.2834 59.3153 15.7114 60.8015 15.7114C61.9615 15.7114 62.9307 16.1584 63.7081 17.0534C64.4825 17.9494 64.8712 19.1274 64.8712 20.5884ZM62.6435 20.6664C62.6435 19.7324 62.4271 18.9624 61.9943 18.3564C61.5215 17.7244 60.8887 17.4084 60.0917 17.4084C59.5512 17.4084 59.062 17.5844 58.623 17.9314C58.184 18.2814 57.8979 18.7384 57.7635 19.3044C57.6969 19.5684 57.662 19.7844 57.662 19.9544V21.5544C57.662 22.2524 57.8815 22.8414 58.3184 23.3224C58.7574 23.8024 59.3276 24.0434 60.0312 24.0434C60.8548 24.0434 61.4958 23.7334 61.9543 23.1154C62.4138 22.4964 62.6435 21.6804 62.6435 20.6664Z" fill="white"/>
<path d="M77.5275 21.7725C77.5275 22.9045 77.1244 23.8255 76.3152 24.5365C75.426 25.3135 74.188 25.7015 72.5973 25.7015C71.1285 25.7015 69.9511 25.4255 69.0598 24.8725L69.5665 23.0955C70.5265 23.6615 71.5798 23.9455 72.7275 23.9455C73.5511 23.9455 74.1921 23.7635 74.6526 23.4015C75.1111 23.0395 75.3398 22.5535 75.3398 21.9475C75.3398 21.4075 75.1511 20.9525 74.7726 20.5835C74.3962 20.2145 73.7675 19.8715 72.8896 19.5545C70.4998 18.6855 69.306 17.4125 69.306 15.7385C69.306 14.6445 69.7244 13.7475 70.5624 13.0495C71.3973 12.3505 72.5111 12.0015 73.9039 12.0015C75.146 12.0015 76.1778 12.2125 77.0014 12.6335L76.4547 14.3715C75.6855 13.9635 74.8157 13.7595 73.8424 13.7595C73.0732 13.7595 72.4721 13.9445 72.0414 14.3125C71.6773 14.6415 71.4947 15.0425 71.4947 15.5175C71.4947 16.0435 71.7029 16.4785 72.1214 16.8205C72.4855 17.1365 73.147 17.4785 74.107 17.8475C75.2814 18.3085 76.1439 18.8475 76.6988 19.4655C77.2516 20.0815 77.5275 20.8525 77.5275 21.7725Z" fill="white"/>
<path d="M84.7573 17.5086H82.347V22.1676C82.347 23.3526 82.7716 23.9446 83.6229 23.9446C84.0137 23.9446 84.3378 23.9116 84.5942 23.8456L84.6547 25.4646C84.2239 25.6216 83.6568 25.7006 82.9542 25.7006C82.0906 25.7006 81.4157 25.4436 80.9286 24.9306C80.4434 24.4166 80.1993 23.5546 80.1993 22.3436V17.5066H78.7634V15.9066H80.1993V14.1496L82.347 13.5176V15.9066H84.7573V17.5086Z" fill="white"/>
<path d="M95.6319 20.6274C95.6319 22.1024 95.1991 23.3134 94.3355 24.2604C93.4299 25.2354 92.2278 25.7214 90.7294 25.7214C89.2853 25.7214 88.1355 25.2544 87.2781 24.3204C86.4207 23.3864 85.9919 22.2074 85.9919 20.7864C85.9919 19.2994 86.433 18.0814 87.3181 17.1344C88.2012 16.1864 89.393 15.7124 90.8914 15.7124C92.3355 15.7124 93.4976 16.1794 94.3745 17.1144C95.2135 18.0214 95.6319 19.1924 95.6319 20.6274ZM93.3632 20.6964C93.3632 19.8114 93.1694 19.0524 92.7766 18.4194C92.3181 17.6534 91.6627 17.2714 90.8135 17.2714C89.9345 17.2714 89.2668 17.6544 88.8084 18.4194C88.4155 19.0534 88.2217 19.8244 88.2217 20.7364C88.2217 21.6214 88.4155 22.3804 88.8084 23.0124C89.2812 23.7784 89.9417 24.1604 90.794 24.1604C91.6289 24.1604 92.2843 23.7704 92.7571 22.9924C93.1602 22.3474 93.3632 21.5804 93.3632 20.6964Z" fill="white"/>
<path d="M102.74 17.7834C102.523 17.7444 102.293 17.7244 102.051 17.7244C101.281 17.7244 100.686 18.0074 100.268 18.5744C99.9039 19.0744 99.7213 19.7064 99.7213 20.4694V25.5044H97.5357L97.5562 18.9304C97.5562 17.8244 97.5285 16.8174 97.4741 15.9094H99.3787L99.4587 17.7454H99.5193C99.75 17.1144 100.114 16.6064 100.613 16.2254C101.1 15.8824 101.626 15.7114 102.193 15.7114C102.395 15.7114 102.578 15.7254 102.74 15.7504V17.7834Z" fill="white"/>
<path d="M112.519 20.2524C112.519 20.6344 112.494 20.9564 112.439 21.2194H105.879C105.905 22.1674 106.222 22.8924 106.831 23.3924C107.384 23.8394 108.099 24.0634 108.977 24.0634C109.948 24.0634 110.834 23.9124 111.631 23.6094L111.974 25.0894C111.042 25.4854 109.943 25.6824 108.674 25.6824C107.148 25.6824 105.95 25.2444 105.078 24.3694C104.209 23.4944 103.773 22.3194 103.773 20.8454C103.773 19.3984 104.178 18.1934 104.989 17.2324C105.838 16.2064 106.986 15.6934 108.43 15.6934C109.849 15.6934 110.922 16.2064 111.652 17.2324C112.229 18.0474 112.519 19.0554 112.519 20.2524ZM110.434 19.6994C110.449 19.0674 110.306 18.5214 110.01 18.0604C109.631 17.4674 109.05 17.1714 108.267 17.1714C107.552 17.1714 106.971 17.4604 106.527 18.0404C106.162 18.5014 105.946 19.0544 105.879 19.6984H110.434V19.6994Z" fill="white"/>
<path d="M37.5387 4.00871C37.5387 5.18571 37.1766 6.07171 36.4535 6.66671C35.7838 7.21571 34.832 7.49071 33.5992 7.49071C32.9879 7.49071 32.4648 7.46471 32.0269 7.41271V0.981703C32.5981 0.891703 33.2135 0.845703 33.8781 0.845703C35.0525 0.845703 35.9376 1.0947 36.5346 1.5927C37.2033 2.1557 37.5387 2.9607 37.5387 4.00871ZM36.4053 4.03771C36.4053 3.2747 36.1981 2.6897 35.7838 2.2817C35.3694 1.8747 34.7643 1.6707 33.9674 1.6707C33.6289 1.6707 33.3407 1.6927 33.1017 1.7387V6.62771C33.234 6.64771 33.4761 6.65671 33.8279 6.65671C34.6504 6.65671 35.2853 6.43371 35.7325 5.98771C36.1797 5.54171 36.4053 4.89171 36.4053 4.03771Z" fill="white"/>
<path d="M43.5479 5.03656C43.5479 5.76156 43.3356 6.35556 42.911 6.82156C42.4658 7.30056 41.8761 7.53956 41.1397 7.53956C40.4299 7.53956 39.8648 7.31056 39.4433 6.85056C39.0228 6.39156 38.8125 5.81256 38.8125 5.11456C38.8125 4.38456 39.0289 3.78556 39.4638 3.32056C39.8987 2.85556 40.4833 2.62256 41.2197 2.62256C41.9294 2.62256 42.4997 2.85156 42.9315 3.31056C43.3417 3.75656 43.5479 4.33256 43.5479 5.03656ZM42.433 5.07056C42.433 4.63556 42.3366 4.26256 42.1448 3.95156C41.9192 3.57556 41.5981 3.38756 41.1807 3.38756C40.7489 3.38756 40.4207 3.57556 40.1951 3.95156C40.0022 4.26256 39.9069 4.64156 39.9069 5.08956C39.9069 5.52456 40.0033 5.89756 40.1951 6.20856C40.4279 6.58456 40.752 6.77256 41.1705 6.77256C41.5807 6.77256 41.9028 6.58156 42.1346 6.19856C42.3335 5.88156 42.433 5.50556 42.433 5.07056Z" fill="white"/>
<path d="M51.6052 2.71875L50.0924 7.43275H49.1078L48.4811 5.38575C48.3221 4.87475 48.1929 4.36675 48.0924 3.86275H48.0729C47.9796 4.38075 47.8504 4.88775 47.6842 5.38575L47.0186 7.43275H46.0227L44.6001 2.71875H45.7047L46.2514 4.95975C46.3837 5.48975 46.4924 5.99475 46.5796 6.47275H46.5991C46.6791 6.07875 46.8114 5.57675 46.998 4.96975L47.6842 2.71975H48.5601L49.2175 4.92175C49.3765 5.45875 49.5057 5.97575 49.6052 6.47375H49.635C49.7078 5.98875 49.8175 5.47175 49.9632 4.92175L50.5498 2.71975H51.6052V2.71875Z" fill="white"/>
<path d="M57.1779 7.43263H56.103V4.73263C56.103 3.90063 55.7789 3.48463 55.1287 3.48463C54.8097 3.48463 54.5522 3.59863 54.3522 3.82763C54.1543 4.05663 54.0538 4.32663 54.0538 4.63563V7.43163H52.9789V4.06563C52.9789 3.65163 52.9656 3.20263 52.9399 2.71663H53.8846L53.9348 3.45363H53.9646C54.0897 3.22463 54.2763 3.03563 54.5215 2.88463C54.8128 2.70863 55.1389 2.61963 55.4958 2.61963C55.9471 2.61963 56.3225 2.76163 56.621 3.04663C56.9922 3.39563 57.1779 3.91663 57.1779 4.60863V7.43263V7.43263Z" fill="white"/>
<path d="M60.1417 7.43267H59.0679V0.555664H60.1417V7.43267Z" fill="white"/>
<path d="M66.47 5.03656C66.47 5.76156 66.2577 6.35556 65.8331 6.82156C65.388 7.30056 64.7972 7.53956 64.0618 7.53956C63.351 7.53956 62.7859 7.31056 62.3654 6.85056C61.9449 6.39156 61.7346 5.81256 61.7346 5.11456C61.7346 4.38456 61.951 3.78556 62.3859 3.32056C62.8208 2.85556 63.4054 2.62256 64.1408 2.62256C64.8515 2.62256 65.4208 2.85156 65.8536 3.31056C66.2639 3.75656 66.47 4.33256 66.47 5.03656ZM65.3541 5.07056C65.3541 4.63556 65.2577 4.26256 65.0659 3.95156C64.8413 3.57556 64.5192 3.38756 64.1028 3.38756C63.67 3.38756 63.3418 3.57556 63.1172 3.95156C62.9244 4.26256 62.829 4.64156 62.829 5.08956C62.829 5.52456 62.9254 5.89756 63.1172 6.20856C63.35 6.58456 63.6741 6.77256 64.0926 6.77256C64.5028 6.77256 64.8239 6.58156 65.0556 6.19856C65.2556 5.88156 65.3541 5.50556 65.3541 5.07056Z" fill="white"/>
<path d="M71.6719 7.43256H70.7067L70.6267 6.88956H70.597C70.2667 7.32256 69.796 7.53956 69.1847 7.53956C68.7283 7.53956 68.359 7.39656 68.0811 7.11256C67.8288 6.85456 67.7026 6.53356 67.7026 6.15256C67.7026 5.57656 67.9488 5.13756 68.4442 4.83356C68.9385 4.52956 69.6339 4.38056 70.5293 4.38756V4.29956C70.5293 3.67856 70.1949 3.36856 69.5252 3.36856C69.0483 3.36856 68.6278 3.48556 68.2647 3.71756L68.0462 3.02956C68.4955 2.75856 69.0503 2.62256 69.7047 2.62256C70.9683 2.62256 71.6021 3.27256 71.6021 4.57256V6.30856C71.6021 6.77956 71.6257 7.15456 71.6719 7.43256ZM70.556 5.81256V5.08556C69.3703 5.06556 68.7775 5.38256 68.7775 6.03556C68.7775 6.28156 68.8452 6.46556 68.9837 6.58856C69.1221 6.71156 69.2985 6.77256 69.5088 6.77256C69.7447 6.77256 69.9652 6.69956 70.1662 6.55456C70.3683 6.40856 70.4924 6.22356 70.5385 5.99656C70.5498 5.94556 70.556 5.88356 70.556 5.81256Z" fill="white"/>
<path d="M77.7799 7.43267H76.8261L76.7758 6.67567H76.7461C76.4415 7.25167 75.9225 7.53967 75.1933 7.53967C74.6107 7.53967 74.1256 7.31667 73.741 6.87067C73.3563 6.42467 73.1646 5.84567 73.1646 5.13467C73.1646 4.37167 73.3728 3.75367 73.7912 3.28167C74.1963 2.84167 74.6927 2.62167 75.2835 2.62167C75.9327 2.62167 76.3871 2.83467 76.6456 3.26167H76.6661V0.555664H77.742V6.16267C77.742 6.62167 77.7543 7.04467 77.7799 7.43267ZM76.6661 5.44467V4.65867C76.6661 4.52267 76.6558 4.41267 76.6363 4.32867C76.5758 4.07667 76.4456 3.86467 76.2476 3.69367C76.0476 3.52267 75.8066 3.43667 75.5286 3.43667C75.1276 3.43667 74.8138 3.59167 74.583 3.90267C74.3543 4.21367 74.2384 4.61067 74.2384 5.09567C74.2384 5.56167 74.3481 5.93967 74.5686 6.23067C74.8015 6.54067 75.1153 6.69567 75.5081 6.69567C75.861 6.69567 76.143 6.56667 76.3574 6.30767C76.5645 6.06867 76.6661 5.78067 76.6661 5.44467Z" fill="white"/>
<path d="M86.9724 5.03656C86.9724 5.76156 86.7601 6.35556 86.3355 6.82156C85.8904 7.30056 85.3017 7.53956 84.5642 7.53956C83.8555 7.53956 83.2904 7.31056 82.8678 6.85056C82.4473 6.39156 82.2371 5.81256 82.2371 5.11456C82.2371 4.38456 82.4535 3.78556 82.8883 3.32056C83.3232 2.85556 83.9078 2.62256 84.6453 2.62256C85.354 2.62256 85.9253 2.85156 86.356 3.31056C86.7663 3.75656 86.9724 4.33256 86.9724 5.03656ZM85.8586 5.07056C85.8586 4.63556 85.7622 4.26256 85.5704 3.95156C85.3437 3.57556 85.0237 3.38756 84.6053 3.38756C84.1745 3.38756 83.8463 3.57556 83.6196 3.95156C83.4268 4.26256 83.3314 4.64156 83.3314 5.08956C83.3314 5.52456 83.4278 5.89756 83.6196 6.20856C83.8524 6.58456 84.1766 6.77256 84.595 6.77256C85.0053 6.77256 85.3283 6.58156 85.5601 6.19856C85.7581 5.88156 85.8586 5.50556 85.8586 5.07056Z" fill="white"/>
<path d="M92.7518 7.43263H91.678V4.73263C91.678 3.90063 91.3539 3.48463 90.7026 3.48463C90.3836 3.48463 90.1262 3.59863 89.9272 3.82763C89.7282 4.05663 89.6287 4.32663 89.6287 4.63563V7.43163H88.5528V4.06563C88.5528 3.65163 88.5405 3.20263 88.5149 2.71663H89.4585L89.5087 3.45363H89.5385C89.6646 3.22463 89.8513 3.03563 90.0954 2.88463C90.3877 2.70863 90.7128 2.61963 91.0708 2.61963C91.521 2.61963 91.8964 2.76163 92.1949 3.04663C92.5672 3.39563 92.7518 3.91663 92.7518 4.60863V7.43263V7.43263Z" fill="white"/>
<path d="M99.9859 3.50343H98.8023V5.79344C98.8023 6.37544 99.0125 6.66644 99.4289 6.66644C99.6218 6.66644 99.7818 6.65044 99.9079 6.61744L99.9356 7.41244C99.7233 7.49044 99.4443 7.52944 99.1007 7.52944C98.6761 7.52944 98.3459 7.40344 98.1069 7.15144C97.8669 6.89944 97.7479 6.47544 97.7479 5.88044V3.50343H97.0413V2.71843H97.7479V1.85443L98.8013 1.54443V2.71743H99.9848V3.50343H99.9859Z" fill="white"/>
<path d="M105.676 7.43267H104.6V4.75267C104.6 3.90767 104.276 3.48467 103.627 3.48467C103.128 3.48467 102.788 3.72967 102.601 4.21967C102.569 4.32267 102.551 4.44867 102.551 4.59667V7.43167H101.477V0.555664H102.551V3.39667H102.571C102.91 2.87967 103.395 2.62167 104.024 2.62167C104.469 2.62167 104.837 2.76367 105.129 3.04867C105.493 3.40367 105.676 3.93167 105.676 4.62967V7.43267V7.43267Z" fill="white"/>
<path d="M111.546 4.85228C111.546 5.04028 111.531 5.19828 111.506 5.32728H108.282C108.297 5.79328 108.45 6.14828 108.749 6.39428C109.022 6.61428 109.373 6.72428 109.804 6.72428C110.281 6.72428 110.716 6.65028 111.108 6.50128L111.276 7.22928C110.818 7.42328 110.278 7.52028 109.653 7.52028C108.905 7.52028 108.315 7.30528 107.888 6.87528C107.46 6.44528 107.247 5.86828 107.247 5.14428C107.247 4.43328 107.445 3.84128 107.844 3.36928C108.261 2.86528 108.824 2.61328 109.534 2.61328C110.23 2.61328 110.758 2.86528 111.115 3.36928C111.403 3.76928 111.546 4.26428 111.546 4.85228ZM110.52 4.58128C110.528 4.27028 110.458 4.00228 110.312 3.77628C110.125 3.48528 109.841 3.33928 109.457 3.33928C109.106 3.33928 108.82 3.48128 108.601 3.76628C108.423 3.99328 108.317 4.26428 108.282 4.58128H110.52Z" fill="white"/>
</svg>
