<svg width="137" height="49" viewBox="0 0 137 49" fill="none" xmlns="http://www.w3.org/2000/svg">
<path d="M137 44.0882C137 46.8019 135.236 49 133.055 49H3.95024C1.76984 49 0 46.8019 0 44.0882V4.91821C0 2.20582 1.76984 0 3.95024 0H133.054C135.236 0 136.999 2.20582 136.999 4.91821L137 44.0882Z" fill="#37394D"/>
<path d="M30.1312 25.7838C30.1015 22.5608 32.8379 20.9928 32.963 20.9198C31.4133 18.7168 29.0112 18.4158 28.1671 18.3918C26.1497 18.1848 24.1927 19.5688 23.1651 19.5688C22.1168 19.5688 20.5343 18.4118 18.8286 18.4458C16.6338 18.4788 14.5804 19.7178 13.4543 21.6418C11.1302 25.5648 12.8635 31.3298 15.0902 34.5008C16.204 36.0538 17.5056 37.7878 19.2092 37.7268C20.8758 37.6598 21.4984 36.6908 23.5097 36.6908C25.5025 36.6908 26.0871 37.7268 27.8245 37.6878C29.6133 37.6598 30.7394 36.1278 31.8143 34.5608C33.1015 32.7808 33.6184 31.0278 33.6389 30.9378C33.5969 30.9238 30.1651 29.6468 30.1312 25.7838Z" fill="white"/>
<path d="M26.8492 16.3058C27.7456 15.2128 28.3589 13.7258 28.1886 12.2168C26.8912 12.2728 25.2686 13.0918 24.3343 14.1608C23.5076 15.1028 22.7692 16.6468 22.9599 18.0988C24.4174 18.2048 25.9138 17.3818 26.8492 16.3058Z" fill="white"/>
<path d="M54.2514 37.5043H51.9221L50.6462 33.5953H46.2113L44.996 37.5043H42.7283L47.1221 24.1963H49.836L54.2514 37.5043ZM50.2616 31.9553L49.1078 28.4803C48.9857 28.1253 48.757 27.2893 48.4196 25.9733H48.3785C48.2442 26.5393 48.0278 27.3753 47.7303 28.4803L46.597 31.9553H50.2616Z" fill="white"/>
<path d="M65.551 32.5884C65.551 34.2204 65.0986 35.5104 64.194 36.4574C63.3838 37.3004 62.3776 37.7214 61.1766 37.7214C59.8802 37.7214 58.9489 37.2674 58.3817 36.3594H58.3407V41.4144H56.154V31.0674C56.154 30.0414 56.1263 28.9884 56.073 27.9084H57.9961L58.1181 29.4294H58.1592C58.8884 28.2834 59.9951 27.7114 61.4802 27.7114C62.6412 27.7114 63.6104 28.1584 64.3858 29.0534C65.1633 29.9494 65.551 31.1274 65.551 32.5884ZM63.3233 32.6664C63.3233 31.7324 63.1079 30.9624 62.6751 30.3564C62.2022 29.7244 61.5674 29.4084 60.7715 29.4084C60.232 29.4084 59.7417 29.5844 59.3038 29.9314C58.8648 30.2814 58.5776 30.7384 58.4433 31.3044C58.3756 31.5684 58.3417 31.7844 58.3417 31.9544V33.5544C58.3417 34.2524 58.5612 34.8414 59.0002 35.3224C59.4392 35.8034 60.0094 36.0434 60.7109 36.0434C61.5345 36.0434 62.1756 35.7334 62.634 35.1154C63.0935 34.4964 63.3233 33.6804 63.3233 32.6664Z" fill="white"/>
<path d="M76.871 32.5884C76.871 34.2204 76.4187 35.5104 75.513 36.4574C74.7038 37.3004 73.6976 37.7214 72.4966 37.7214C71.2002 37.7214 70.2689 37.2674 69.7028 36.3594H69.6617V41.4144H67.4751V31.0674C67.4751 30.0414 67.4474 28.9884 67.394 27.9084H69.3171L69.4392 29.4294H69.4802C70.2084 28.2834 71.3151 27.7114 72.8012 27.7114C73.9612 27.7114 74.9305 28.1584 75.7079 29.0534C76.4823 29.9494 76.871 31.1274 76.871 32.5884ZM74.6433 32.6664C74.6433 31.7324 74.4269 30.9624 73.994 30.3564C73.5212 29.7244 72.8884 29.4084 72.0915 29.4084C71.551 29.4084 71.0617 29.5844 70.6228 29.9314C70.1838 30.2814 69.8976 30.7384 69.7633 31.3044C69.6966 31.5684 69.6617 31.7844 69.6617 31.9544V33.5544C69.6617 34.2524 69.8812 34.8414 70.3181 35.3224C70.7571 35.8024 71.3274 36.0434 72.031 36.0434C72.8546 36.0434 73.4956 35.7334 73.9541 35.1154C74.4135 34.4964 74.6433 33.6804 74.6433 32.6664Z" fill="white"/>
<path d="M89.5273 33.7725C89.5273 34.9045 89.1242 35.8255 88.315 36.5365C87.4257 37.3135 86.1878 37.7015 84.597 37.7015C83.1283 37.7015 81.9509 37.4255 81.0596 36.8725L81.5662 35.0955C82.5262 35.6615 83.5796 35.9455 84.7273 35.9455C85.5509 35.9455 86.1919 35.7635 86.6524 35.4015C87.1109 35.0395 87.3396 34.5535 87.3396 33.9475C87.3396 33.4075 87.1509 32.9525 86.7724 32.5835C86.396 32.2145 85.7673 31.8715 84.8893 31.5545C82.4996 30.6855 81.3057 29.4125 81.3057 27.7385C81.3057 26.6445 81.7242 25.7475 82.5621 25.0495C83.397 24.3505 84.5109 24.0015 85.9037 24.0015C87.1457 24.0015 88.1775 24.2125 89.0011 24.6335L88.4544 26.3715C87.6852 25.9635 86.8155 25.7595 85.8421 25.7595C85.0729 25.7595 84.4719 25.9445 84.0411 26.3125C83.677 26.6415 83.4944 27.0425 83.4944 27.5175C83.4944 28.0435 83.7026 28.4785 84.1211 28.8205C84.4852 29.1365 85.1468 29.4785 86.1068 29.8475C87.2811 30.3085 88.1437 30.8475 88.6986 31.4655C89.2514 32.0815 89.5273 32.8525 89.5273 33.7725Z" fill="white"/>
<path d="M96.757 29.5086H94.3468V34.1676C94.3468 35.3526 94.7714 35.9446 95.6227 35.9446C96.0134 35.9446 96.3375 35.9116 96.594 35.8456L96.6545 37.4646C96.2237 37.6216 95.6565 37.7006 94.954 37.7006C94.0904 37.7006 93.4155 37.4436 92.9283 36.9306C92.4432 36.4166 92.1991 35.5546 92.1991 34.3436V29.5066H90.7632V27.9066H92.1991V26.1496L94.3468 25.5176V27.9066H96.757V29.5086Z" fill="white"/>
<path d="M107.632 32.6274C107.632 34.1024 107.199 35.3134 106.335 36.2604C105.43 37.2354 104.228 37.7214 102.729 37.7214C101.285 37.7214 100.135 37.2544 99.2779 36.3204C98.4204 35.3864 97.9917 34.2074 97.9917 32.7864C97.9917 31.2994 98.4327 30.0814 99.3179 29.1344C100.201 28.1864 101.393 27.7124 102.891 27.7124C104.335 27.7124 105.497 28.1794 106.374 29.1144C107.213 30.0214 107.632 31.1924 107.632 32.6274ZM105.363 32.6964C105.363 31.8114 105.169 31.0524 104.776 30.4194C104.318 29.6534 103.662 29.2714 102.813 29.2714C101.934 29.2714 101.267 29.6544 100.808 30.4194C100.415 31.0534 100.221 31.8244 100.221 32.7364C100.221 33.6214 100.415 34.3804 100.808 35.0124C101.281 35.7784 101.941 36.1604 102.794 36.1604C103.629 36.1604 104.284 35.7704 104.757 34.9924C105.16 34.3474 105.363 33.5804 105.363 32.6964Z" fill="white"/>
<path d="M114.74 29.7834C114.523 29.7444 114.292 29.7244 114.05 29.7244C113.281 29.7244 112.686 30.0074 112.268 30.5744C111.904 31.0744 111.721 31.7064 111.721 32.4694V37.5044H109.535L109.556 30.9304C109.556 29.8244 109.528 28.8174 109.474 27.9094H111.379L111.459 29.7454H111.519C111.75 29.1144 112.114 28.6064 112.612 28.2254C113.1 27.8824 113.626 27.7114 114.193 27.7114C114.395 27.7114 114.577 27.7254 114.74 27.7504V29.7834Z" fill="white"/>
<path d="M124.519 32.2524C124.519 32.6344 124.493 32.9564 124.439 33.2194H117.879C117.905 34.1674 118.222 34.8924 118.831 35.3924C119.384 35.8394 120.099 36.0634 120.977 36.0634C121.948 36.0634 122.834 35.9124 123.631 35.6094L123.973 37.0894C123.042 37.4854 121.943 37.6824 120.674 37.6824C119.148 37.6824 117.95 37.2444 117.078 36.3694C116.208 35.4944 115.772 34.3194 115.772 32.8454C115.772 31.3984 116.178 30.1934 116.989 29.2324C117.838 28.2064 118.986 27.6934 120.43 27.6934C121.848 27.6934 122.922 28.2064 123.651 29.2324C124.229 30.0474 124.519 31.0554 124.519 32.2524ZM122.434 31.6994C122.448 31.0674 122.306 30.5214 122.009 30.0604C121.631 29.4674 121.049 29.1714 120.267 29.1714C119.552 29.1714 118.97 29.4604 118.526 30.0404C118.162 30.5014 117.946 31.0544 117.879 31.6984H122.434V31.6994Z" fill="white"/>
<path d="M49.5387 16.0087C49.5387 17.1857 49.1766 18.0717 48.4535 18.6667C47.7838 19.2157 46.832 19.4907 45.5992 19.4907C44.9879 19.4907 44.4648 19.4647 44.0269 19.4127V12.9817C44.5981 12.8917 45.2135 12.8457 45.8781 12.8457C47.0525 12.8457 47.9376 13.0947 48.5346 13.5927C49.2033 14.1557 49.5387 14.9607 49.5387 16.0087ZM48.4053 16.0377C48.4053 15.2747 48.1981 14.6897 47.7838 14.2817C47.3694 13.8747 46.7643 13.6707 45.9674 13.6707C45.6289 13.6707 45.3407 13.6927 45.1017 13.7387V18.6277C45.234 18.6477 45.4761 18.6567 45.8279 18.6567C46.6504 18.6567 47.2853 18.4337 47.7325 17.9877C48.1797 17.5417 48.4053 16.8917 48.4053 16.0377Z" fill="white"/>
<path d="M55.5479 17.0366C55.5479 17.7616 55.3356 18.3556 54.911 18.8216C54.4658 19.3006 53.8761 19.5396 53.1397 19.5396C52.4299 19.5396 51.8648 19.3106 51.4433 18.8506C51.0228 18.3916 50.8125 17.8126 50.8125 17.1146C50.8125 16.3846 51.0289 15.7856 51.4638 15.3206C51.8987 14.8556 52.4833 14.6226 53.2197 14.6226C53.9294 14.6226 54.4997 14.8516 54.9315 15.3106C55.3417 15.7566 55.5479 16.3326 55.5479 17.0366ZM54.433 17.0706C54.433 16.6356 54.3366 16.2626 54.1448 15.9516C53.9192 15.5756 53.5981 15.3876 53.1807 15.3876C52.7489 15.3876 52.4207 15.5756 52.1951 15.9516C52.0022 16.2626 51.9069 16.6416 51.9069 17.0896C51.9069 17.5246 52.0033 17.8976 52.1951 18.2086C52.4279 18.5846 52.752 18.7726 53.1705 18.7726C53.5807 18.7726 53.9028 18.5816 54.1346 18.1986C54.3335 17.8816 54.433 17.5056 54.433 17.0706Z" fill="white"/>
<path d="M63.6052 14.7188L62.0924 19.4328H61.1078L60.4811 17.3858C60.3221 16.8748 60.1929 16.3668 60.0924 15.8628H60.0729C59.9796 16.3808 59.8504 16.8878 59.6842 17.3858L59.0186 19.4328H58.0227L56.6001 14.7188H57.7047L58.2514 16.9598C58.3837 17.4898 58.4924 17.9948 58.5796 18.4728H58.5991C58.6791 18.0788 58.8114 17.5768 58.998 16.9698L59.6842 14.7198H60.5601L61.2175 16.9218C61.3765 17.4588 61.5057 17.9758 61.6052 18.4738H61.635C61.7078 17.9888 61.8175 17.4718 61.9632 16.9218L62.5498 14.7198H63.6052V14.7188Z" fill="white"/>
<path d="M69.1779 19.4326H68.103V16.7326C68.103 15.9006 67.7789 15.4846 67.1287 15.4846C66.8097 15.4846 66.5522 15.5986 66.3522 15.8276C66.1543 16.0566 66.0538 16.3266 66.0538 16.6356V19.4316H64.9789V16.0656C64.9789 15.6516 64.9656 15.2026 64.9399 14.7166H65.8846L65.9348 15.4536H65.9646C66.0897 15.2246 66.2763 15.0356 66.5215 14.8846C66.8128 14.7086 67.1389 14.6196 67.4958 14.6196C67.9471 14.6196 68.3225 14.7616 68.621 15.0466C68.9922 15.3956 69.1779 15.9166 69.1779 16.6086V19.4326Z" fill="white"/>
<path d="M72.1417 19.4327H71.0679V12.5557H72.1417V19.4327Z" fill="white"/>
<path d="M78.47 17.0366C78.47 17.7616 78.2577 18.3556 77.8331 18.8216C77.388 19.3006 76.7972 19.5396 76.0618 19.5396C75.351 19.5396 74.7859 19.3106 74.3654 18.8506C73.9449 18.3916 73.7346 17.8126 73.7346 17.1146C73.7346 16.3846 73.951 15.7856 74.3859 15.3206C74.8208 14.8556 75.4054 14.6226 76.1408 14.6226C76.8515 14.6226 77.4208 14.8516 77.8536 15.3106C78.2639 15.7566 78.47 16.3326 78.47 17.0366ZM77.3541 17.0706C77.3541 16.6356 77.2577 16.2626 77.0659 15.9516C76.8413 15.5756 76.5192 15.3876 76.1028 15.3876C75.67 15.3876 75.3418 15.5756 75.1172 15.9516C74.9244 16.2626 74.829 16.6416 74.829 17.0896C74.829 17.5246 74.9254 17.8976 75.1172 18.2086C75.35 18.5846 75.6741 18.7726 76.0926 18.7726C76.5028 18.7726 76.8239 18.5816 77.0556 18.1986C77.2556 17.8816 77.3541 17.5056 77.3541 17.0706Z" fill="white"/>
<path d="M83.6719 19.4326H82.7067L82.6267 18.8896H82.597C82.2667 19.3226 81.796 19.5396 81.1847 19.5396C80.7283 19.5396 80.359 19.3966 80.0811 19.1126C79.8288 18.8546 79.7026 18.5336 79.7026 18.1526C79.7026 17.5766 79.9488 17.1376 80.4442 16.8336C80.9385 16.5296 81.6339 16.3806 82.5293 16.3876V16.2996C82.5293 15.6786 82.1949 15.3686 81.5252 15.3686C81.0483 15.3686 80.6278 15.4856 80.2647 15.7176L80.0462 15.0296C80.4955 14.7586 81.0503 14.6226 81.7047 14.6226C82.9683 14.6226 83.6021 15.2726 83.6021 16.5726V18.3086C83.6021 18.7796 83.6257 19.1546 83.6719 19.4326ZM82.556 17.8126V17.0856C81.3703 17.0656 80.7775 17.3826 80.7775 18.0356C80.7775 18.2816 80.8452 18.4656 80.9837 18.5886C81.1221 18.7116 81.2985 18.7726 81.5088 18.7726C81.7447 18.7726 81.9652 18.6996 82.1662 18.5546C82.3683 18.4086 82.4924 18.2236 82.5385 17.9966C82.5498 17.9456 82.556 17.8836 82.556 17.8126Z" fill="white"/>
<path d="M89.7799 19.4327H88.8261L88.7758 18.6757H88.7461C88.4415 19.2517 87.9225 19.5397 87.1933 19.5397C86.6107 19.5397 86.1256 19.3167 85.741 18.8707C85.3563 18.4247 85.1646 17.8457 85.1646 17.1347C85.1646 16.3717 85.3728 15.7537 85.7912 15.2817C86.1963 14.8417 86.6927 14.6217 87.2835 14.6217C87.9327 14.6217 88.3871 14.8347 88.6456 15.2617H88.6661V12.5557H89.742V18.1627C89.742 18.6217 89.7543 19.0447 89.7799 19.4327ZM88.6661 17.4447V16.6587C88.6661 16.5227 88.6558 16.4127 88.6363 16.3287C88.5758 16.0767 88.4456 15.8647 88.2476 15.6937C88.0476 15.5227 87.8066 15.4367 87.5286 15.4367C87.1276 15.4367 86.8138 15.5917 86.583 15.9027C86.3543 16.2137 86.2384 16.6107 86.2384 17.0957C86.2384 17.5617 86.3481 17.9397 86.5686 18.2307C86.8015 18.5407 87.1153 18.6957 87.5081 18.6957C87.861 18.6957 88.143 18.5667 88.3574 18.3077C88.5645 18.0687 88.6661 17.7807 88.6661 17.4447Z" fill="white"/>
<path d="M98.9724 17.0366C98.9724 17.7616 98.7601 18.3556 98.3355 18.8216C97.8904 19.3006 97.3017 19.5396 96.5642 19.5396C95.8555 19.5396 95.2904 19.3106 94.8678 18.8506C94.4473 18.3916 94.2371 17.8126 94.2371 17.1146C94.2371 16.3846 94.4535 15.7856 94.8883 15.3206C95.3232 14.8556 95.9078 14.6226 96.6453 14.6226C97.354 14.6226 97.9253 14.8516 98.356 15.3106C98.7663 15.7566 98.9724 16.3326 98.9724 17.0366ZM97.8586 17.0706C97.8586 16.6356 97.7622 16.2626 97.5704 15.9516C97.3437 15.5756 97.0237 15.3876 96.6053 15.3876C96.1745 15.3876 95.8463 15.5756 95.6196 15.9516C95.4268 16.2626 95.3314 16.6416 95.3314 17.0896C95.3314 17.5246 95.4278 17.8976 95.6196 18.2086C95.8524 18.5846 96.1766 18.7726 96.595 18.7726C97.0053 18.7726 97.3283 18.5816 97.5601 18.1986C97.7581 17.8816 97.8586 17.5056 97.8586 17.0706Z" fill="white"/>
<path d="M104.752 19.4326H103.678V16.7326C103.678 15.9006 103.354 15.4846 102.703 15.4846C102.384 15.4846 102.126 15.5986 101.927 15.8276C101.728 16.0566 101.629 16.3266 101.629 16.6356V19.4316H100.553V16.0656C100.553 15.6516 100.541 15.2026 100.515 14.7166H101.458L101.509 15.4536H101.538C101.665 15.2246 101.851 15.0356 102.095 14.8846C102.388 14.7086 102.713 14.6196 103.071 14.6196C103.521 14.6196 103.896 14.7616 104.195 15.0466C104.567 15.3956 104.752 15.9166 104.752 16.6086V19.4326Z" fill="white"/>
<path d="M111.986 15.5034H110.802V17.7934C110.802 18.3754 111.013 18.6664 111.429 18.6664C111.622 18.6664 111.782 18.6504 111.908 18.6174L111.936 19.4124C111.723 19.4904 111.444 19.5294 111.101 19.5294C110.676 19.5294 110.346 19.4034 110.107 19.1514C109.867 18.8994 109.748 18.4754 109.748 17.8804V15.5034H109.041V14.7184H109.748V13.8544L110.801 13.5444V14.7174H111.985V15.5034H111.986Z" fill="white"/>
<path d="M117.676 19.4327H116.6V16.7527C116.6 15.9077 116.276 15.4847 115.627 15.4847C115.128 15.4847 114.788 15.7297 114.601 16.2197C114.569 16.3227 114.551 16.4487 114.551 16.5967V19.4317H113.477V12.5557H114.551V15.3967H114.571C114.91 14.8797 115.395 14.6217 116.024 14.6217C116.469 14.6217 116.837 14.7637 117.129 15.0487C117.493 15.4037 117.676 15.9317 117.676 16.6297V19.4327Z" fill="white"/>
<path d="M123.546 16.8523C123.546 17.0403 123.531 17.1983 123.506 17.3273H120.282C120.297 17.7933 120.45 18.1483 120.749 18.3943C121.022 18.6143 121.373 18.7243 121.804 18.7243C122.281 18.7243 122.716 18.6503 123.108 18.5013L123.276 19.2293C122.818 19.4233 122.278 19.5203 121.653 19.5203C120.905 19.5203 120.315 19.3053 119.888 18.8753C119.46 18.4453 119.247 17.8683 119.247 17.1443C119.247 16.4333 119.445 15.8413 119.844 15.3693C120.261 14.8653 120.824 14.6133 121.534 14.6133C122.23 14.6133 122.758 14.8653 123.115 15.3693C123.403 15.7693 123.546 16.2643 123.546 16.8523ZM122.52 16.5813C122.528 16.2703 122.458 16.0023 122.312 15.7763C122.125 15.4853 121.841 15.3393 121.457 15.3393C121.106 15.3393 120.82 15.4813 120.601 15.7663C120.423 15.9933 120.317 16.2643 120.282 16.5813H122.52Z" fill="white"/>
</svg>
