<svg width="40" height="39" viewBox="0 0 40 39" fill="none" xmlns="http://www.w3.org/2000/svg">
<g opacity="0.5" filter="url(#filter0_b_397_3584)">
<path d="M39.6143 19.4614C39.6143 30.2097 30.9011 38.9229 20.1528 38.9229C9.40459 38.9229 0.691406 30.2097 0.691406 19.4614C0.691406 8.71318 9.40459 0 20.1528 0C30.9011 0 39.6143 8.71318 39.6143 19.4614Z" fill="white" fill-opacity="0.2"/>
</g>
<path d="M26.858 10.7041H13.4463C12.3153 10.7041 11.3945 11.5993 11.3945 12.7086V25.8646C11.3945 26.9739 12.3153 27.8691 13.4463 27.8691H24.7962L24.2658 26.0689L25.5469 27.2269L26.7579 28.3167L28.9098 30.1655V12.7086C28.9098 11.5993 27.989 10.7041 26.858 10.7041ZM22.9947 23.4124C22.9947 23.4124 22.6343 22.994 22.3341 22.6242C23.6452 22.2642 24.1457 21.4663 24.1457 21.4663C23.7353 21.729 23.345 21.9139 22.9947 22.0404C22.4942 22.2447 22.0138 22.381 21.5434 22.4588C20.5826 22.634 19.7018 22.5853 18.9511 22.4491C18.3806 22.342 17.8902 22.1863 17.4798 22.0307C17.2496 21.9431 16.9994 21.836 16.7492 21.6998C16.7192 21.6804 16.6892 21.6706 16.6591 21.6512C16.6391 21.6414 16.6291 21.6317 16.6191 21.622C16.4389 21.5247 16.3388 21.4565 16.3388 21.4565C16.3388 21.4565 16.8193 22.235 18.0904 22.6048C17.7901 22.9745 17.4198 23.4124 17.4198 23.4124C15.2079 23.3443 14.3671 21.9333 14.3671 21.9333C14.3671 18.8001 15.8084 16.2603 15.8084 16.2603C17.2496 15.2094 18.6208 15.2386 18.6208 15.2386L18.7209 15.3554C16.9194 15.8614 16.0886 16.6301 16.0886 16.6301C16.0886 16.6301 16.3088 16.5133 16.6791 16.3479C17.7501 15.8906 18.6008 15.7641 18.9511 15.7349C19.0112 15.7252 19.0612 15.7154 19.1213 15.7154C19.7318 15.6376 20.4224 15.6181 21.143 15.696C22.0939 15.803 23.1148 16.0755 24.1557 16.6301C24.1557 16.6301 23.365 15.9003 21.6635 15.3943L21.8036 15.2386C21.8036 15.2386 23.1748 15.2094 24.6161 16.2603C24.6161 16.2603 26.0573 18.8001 26.0573 21.9333C26.0573 21.9333 25.2066 23.3443 22.9947 23.4124ZM18.3406 18.8682C17.7701 18.8682 17.3197 19.3547 17.3197 19.9483C17.3197 20.5419 17.7801 21.0284 18.3406 21.0284C18.9111 21.0284 19.3615 20.5419 19.3615 19.9483C19.3715 19.3547 18.9111 18.8682 18.3406 18.8682ZM21.9938 18.8682C21.4233 18.8682 20.9729 19.3547 20.9729 19.9483C20.9729 20.5419 21.4333 21.0284 21.9938 21.0284C22.5643 21.0284 23.0147 20.5419 23.0147 19.9483C23.0147 19.3547 22.5643 18.8682 21.9938 18.8682Z" fill="white"/>
<defs>
<filter id="filter0_b_397_3584" x="-3.30859" y="-4" width="46.9229" height="46.9229" filterUnits="userSpaceOnUse" color-interpolation-filters="sRGB">
<feFlood flood-opacity="0" result="BackgroundImageFix"/>
<feGaussianBlur in="BackgroundImage" stdDeviation="2"/>
<feComposite in2="SourceAlpha" operator="in" result="effect1_backgroundBlur_397_3584"/>
<feBlend mode="normal" in="SourceGraphic" in2="effect1_backgroundBlur_397_3584" result="shape"/>
</filter>
</defs>
</svg>
