<svg width="138" height="49" viewBox="0 0 138 49" fill="none" xmlns="http://www.w3.org/2000/svg">
<path d="M132.889 49H5.11111C2.30128 49 0 46.2422 0 42.875V6.125C0 2.75778 2.30128 2.27536e-07 5.11111 2.27536e-07H132.889C135.699 2.27536e-07 138 2.75778 138 6.125V42.875C138 46.2422 135.699 49 132.889 49Z" fill="#37394D"/>
<path d="M48.6463 16.244C48.6463 17.079 48.3902 17.7477 47.8858 18.2465C47.3058 18.8377 46.5505 19.1352 45.6248 19.1352C44.7401 19.1352 43.9848 18.8327 43.3651 18.2365C42.7442 17.6315 42.4343 16.889 42.4343 16.0002C42.4343 15.1115 42.7442 14.369 43.3651 13.769C43.9848 13.1677 44.7401 12.8652 45.6248 12.8652C46.0652 12.8652 46.4852 12.954 46.8859 13.119C47.2853 13.2852 47.6105 13.5102 47.8461 13.7877L47.3109 14.3152C46.9 13.8415 46.3405 13.6077 45.6248 13.6077C44.9795 13.6077 44.4201 13.8277 43.9451 14.2715C43.4752 14.7165 43.2396 15.2927 43.2396 16.0002C43.2396 16.7077 43.4752 17.289 43.9451 17.734C44.4201 18.1727 44.9795 18.3977 45.6248 18.3977C46.3098 18.3977 46.8859 18.1727 47.3404 17.729C47.64 17.4352 47.8103 17.0302 47.8551 16.5127H45.6248V15.7902H48.6002C48.636 15.9465 48.6463 16.0977 48.6463 16.244Z" fill="white" stroke="white" stroke-width="0.123077" stroke-miterlimit="10"/>
<path d="M53.3666 13.7387H50.5717V15.6387H53.0913V16.3612H50.5717V18.2612H53.3666V18.9974H49.7805V13.0024H53.3666V13.7387Z" fill="white" stroke="white" stroke-width="0.123077" stroke-miterlimit="10"/>
<path d="M56.6979 18.9974H55.9067V13.7387H54.1924V13.0024H58.4135V13.7387H56.6979V18.9974Z" fill="white" stroke="white" stroke-width="0.123077" stroke-miterlimit="10"/>
<path d="M61.4683 18.9974V13.0024H62.2582V18.9974H61.4683Z" fill="white" stroke="white" stroke-width="0.123077" stroke-miterlimit="10"/>
<path d="M65.7599 18.9974H64.9751V13.7387H63.2544V13.0024H67.4806V13.7387H65.7599V18.9974Z" fill="white" stroke="white" stroke-width="0.123077" stroke-miterlimit="10"/>
<path d="M75.4723 18.2265C74.8668 18.8327 74.1165 19.1352 73.2216 19.1352C72.3215 19.1352 71.5713 18.8327 70.9657 18.2265C70.3614 17.6215 70.0605 16.879 70.0605 16.0002C70.0605 15.1215 70.3614 14.379 70.9657 13.774C71.5713 13.1677 72.3215 12.8652 73.2216 12.8652C74.1114 12.8652 74.8616 13.1677 75.4672 13.779C76.0766 14.389 76.3775 15.1265 76.3775 16.0002C76.3775 16.879 76.0766 17.6215 75.4723 18.2265ZM71.5508 17.724C72.0066 18.1727 72.561 18.3977 73.2216 18.3977C73.8771 18.3977 74.4366 18.1727 74.8872 17.724C75.3417 17.2752 75.5722 16.699 75.5722 16.0002C75.5722 15.3015 75.3417 14.7252 74.8872 14.2765C74.4366 13.8277 73.8771 13.6027 73.2216 13.6027C72.561 13.6027 72.0066 13.8277 71.5508 14.2765C71.0963 14.7252 70.8659 15.3015 70.8659 16.0002C70.8659 16.699 71.0963 17.2752 71.5508 17.724Z" fill="white" stroke="white" stroke-width="0.123077" stroke-miterlimit="10"/>
<path d="M77.4873 18.9974V13.0024H78.4475L81.4332 17.6649H81.4677L81.4332 16.5124V13.0024H82.2231V18.9974H81.3986L78.2721 14.1049H78.2376L78.2721 15.2624V18.9974H77.4873Z" fill="white" stroke="white" stroke-width="0.123077" stroke-miterlimit="10"/>
<path d="M69.8658 27.7526C67.4601 27.7526 65.4949 29.5401 65.4949 32.0064C65.4949 34.4526 67.4601 36.2589 69.8658 36.2589C72.2766 36.2589 74.2418 34.4526 74.2418 32.0064C74.2418 29.5401 72.2766 27.7526 69.8658 27.7526ZM69.8658 34.5839C68.5458 34.5839 67.4102 33.5201 67.4102 32.0064C67.4102 30.4726 68.5458 29.4276 69.8658 29.4276C71.1858 29.4276 72.3265 30.4726 72.3265 32.0064C72.3265 33.5201 71.1858 34.5839 69.8658 34.5839ZM60.3289 27.7526C57.9181 27.7526 55.958 29.5401 55.958 32.0064C55.958 34.4526 57.9181 36.2589 60.3289 36.2589C62.7384 36.2589 64.6998 34.4526 64.6998 32.0064C64.6998 29.5401 62.7384 27.7526 60.3289 27.7526ZM60.3289 34.5839C59.0077 34.5839 57.8682 33.5201 57.8682 32.0064C57.8682 30.4726 59.0077 29.4276 60.3289 29.4276C61.6489 29.4276 62.7845 30.4726 62.7845 32.0064C62.7845 33.5201 61.6489 34.5839 60.3289 34.5839ZM48.9804 29.0564V30.8639H53.4013C53.272 31.8739 52.9263 32.6164 52.3963 33.1339C51.751 33.7589 50.746 34.4526 48.9804 34.4526C46.2598 34.4526 44.1294 32.3089 44.1294 29.6526C44.1294 26.9964 46.2598 24.8526 48.9804 24.8526C50.4515 24.8526 51.5218 25.4139 52.3118 26.1414L53.6164 24.8676C52.5115 23.8376 51.0417 23.0464 48.9804 23.0464C45.2497 23.0464 42.1143 26.0101 42.1143 29.6526C42.1143 33.2951 45.2497 36.2589 48.9804 36.2589C50.9969 36.2589 52.5115 35.6139 53.7022 34.4039C54.9223 33.2126 55.3025 31.5376 55.3025 30.1851C55.3025 29.7651 55.2667 29.3789 55.2027 29.0564H48.9804ZM95.3858 30.4576C95.0261 29.5064 93.916 27.7526 91.6551 27.7526C89.4145 27.7526 87.5492 29.4764 87.5492 32.0064C87.5492 34.3889 89.3953 36.2589 91.8701 36.2589C93.8712 36.2589 95.0261 35.0676 95.501 34.3739L94.0159 33.4076C93.5204 34.1151 92.8457 34.5839 91.8701 34.5839C90.901 34.5839 90.2058 34.1501 89.7602 33.2951L95.5868 30.9414L95.3858 30.4576ZM89.4453 31.8739C89.3953 30.2339 90.7499 29.3939 91.7204 29.3939C92.4808 29.3939 93.1261 29.7651 93.3412 30.2964L89.4453 31.8739ZM84.7095 36.0001H86.6248V23.5001H84.7095V36.0001ZM81.5728 28.7001H81.5088C81.0786 28.2026 80.2579 27.7526 79.2183 27.7526C77.0367 27.7526 75.042 29.6226 75.042 32.0201C75.042 34.4039 77.0367 36.2589 79.2183 36.2589C80.2579 36.2589 81.0786 35.8051 81.5088 35.2926H81.5728V35.9026C81.5728 37.5289 80.683 38.4026 79.2478 38.4026C78.0776 38.4026 77.3517 37.5776 77.0521 36.8839L75.3864 37.5626C75.8665 38.6901 77.1378 40.0776 79.2478 40.0776C81.4934 40.0776 83.3882 38.7876 83.3882 35.6489V28.0114H81.5728V28.7001ZM79.3822 34.5839C78.0622 34.5839 76.9573 33.5051 76.9573 32.0201C76.9573 30.5214 78.0622 29.4276 79.3822 29.4276C80.683 29.4276 81.7085 30.5214 81.7085 32.0201C81.7085 33.5051 80.683 34.5839 79.3822 34.5839ZM104.353 23.5001H99.7721V36.0001H101.682V31.2639H104.353C106.474 31.2639 108.555 29.7651 108.555 27.3814C108.555 24.9989 106.469 23.5001 104.353 23.5001ZM104.403 29.5251H101.682V25.2389H104.403C105.829 25.2389 106.643 26.3951 106.643 27.3814C106.643 28.3489 105.829 29.5251 104.403 29.5251ZM116.211 27.7289C114.831 27.7289 113.396 28.3239 112.805 29.6426L114.501 30.3364C114.865 29.6426 115.536 29.4176 116.246 29.4176C117.237 29.4176 118.242 29.9989 118.257 31.0251V31.1564C117.911 30.9614 117.171 30.6726 116.261 30.6726C114.435 30.6726 112.575 31.6539 112.575 33.4851C112.575 35.1601 114.07 36.2389 115.751 36.2389C117.037 36.2389 117.746 35.6726 118.192 35.0139H118.257V35.9801H120.102V31.1851C120.102 28.9689 118.407 27.7289 116.211 27.7289ZM115.981 34.5789C115.356 34.5789 114.485 34.2764 114.485 33.5201C114.485 32.5526 115.571 32.1814 116.511 32.1814C117.352 32.1814 117.746 32.3626 118.257 32.6014C118.107 33.7589 117.087 34.5789 115.981 34.5789ZM126.823 28.0026L124.628 33.4214H124.562L122.292 28.0026H120.232L123.643 35.5751L121.697 39.7889H123.693L128.949 28.0026H126.823ZM109.605 36.0001H111.52V23.5001H109.605V36.0001Z" fill="white"/>
<path d="M10.7675 13.5387C10.4666 13.8462 10.2925 14.3249 10.2925 14.9449V37.0599C10.2925 37.6799 10.4666 38.1587 10.7675 38.4662L10.8417 38.5337L23.5345 26.1462V25.8537L10.8417 13.4662L10.7675 13.5387Z" fill="url(#paint0_linear_901_1410)"/>
<path d="M27.7609 30.2778L23.5347 26.1466V25.8541L27.766 21.7228L27.8608 21.7766L32.8718 24.5603C34.3019 25.3503 34.3019 26.6503 32.8718 27.4453L27.8608 30.2241L27.7609 30.2778Z" fill="url(#paint1_linear_901_1410)"/>
<path d="M27.8607 30.224L23.5346 26.0002L10.7676 38.4665C11.2426 38.954 12.0171 39.0127 12.898 38.5252L27.8607 30.224Z" fill="url(#paint2_linear_901_1410)"/>
<path d="M27.8607 21.7762L12.898 13.475C12.0171 12.9925 11.2426 13.0512 10.7676 13.5387L23.5346 26L27.8607 21.7762Z" fill="url(#paint3_linear_901_1410)"/>
<defs>
<linearGradient id="paint0_linear_901_1410" x1="22.4075" y1="37.2902" x2="5.62995" y2="20.1061" gradientUnits="userSpaceOnUse">
<stop stop-color="#00A0FF"/>
<stop offset="0.0066" stop-color="#00A1FF"/>
<stop offset="0.2601" stop-color="#00BEFF"/>
<stop offset="0.5122" stop-color="#00D2FF"/>
<stop offset="0.7604" stop-color="#00DFFF"/>
<stop offset="1" stop-color="#00E3FF"/>
</linearGradient>
<linearGradient id="paint1_linear_901_1410" x1="34.734" y1="25.9989" x2="9.9508" y2="25.9989" gradientUnits="userSpaceOnUse">
<stop stop-color="#FFE000"/>
<stop offset="0.4087" stop-color="#FFBD00"/>
<stop offset="0.7754" stop-color="#FFA500"/>
<stop offset="1" stop-color="#FF9C00"/>
</linearGradient>
<linearGradient id="paint2_linear_901_1410" x1="25.5083" y1="23.7041" x2="2.75653" y2="0.401019" gradientUnits="userSpaceOnUse">
<stop stop-color="#FF3A44"/>
<stop offset="1" stop-color="#C31162"/>
</linearGradient>
<linearGradient id="paint3_linear_901_1410" x1="7.55385" y1="45.8238" x2="17.7135" y2="35.418" gradientUnits="userSpaceOnUse">
<stop stop-color="#32A071"/>
<stop offset="0.0685" stop-color="#2DA771"/>
<stop offset="0.4762" stop-color="#15CF74"/>
<stop offset="0.8009" stop-color="#06E775"/>
<stop offset="1" stop-color="#00F076"/>
</linearGradient>
</defs>
</svg>
