<svg width="119" height="29" viewBox="0 0 119 29" fill="none" xmlns="http://www.w3.org/2000/svg">
	<path d="M38.646 4.2435C38.646 5.0785 38.39 5.74725 37.8856 6.246C37.3056 6.83725 36.5502 7.13475 35.6246 7.13475C34.7399 7.13475 33.9845 6.83225 33.3648 6.236C32.7439 5.631 32.4341 4.8885 32.4341 3.99975C32.4341 3.111 32.7439 2.3685 33.3648 1.7685C33.9845 1.16725 34.7399 0.864746 35.6246 0.864746C36.065 0.864746 36.4849 0.953496 36.8856 1.1185C37.2851 1.28475 37.6103 1.50975 37.8459 1.78725L37.3107 2.31475C36.8997 1.841 36.3402 1.60725 35.6246 1.60725C34.9793 1.60725 34.4198 1.82725 33.9448 2.271C33.475 2.716 33.2394 3.29225 33.2394 3.99975C33.2394 4.70725 33.475 5.2885 33.9448 5.7335C34.4198 6.17225 34.9793 6.39725 35.6246 6.39725C36.3095 6.39725 36.8857 6.17225 37.3402 5.7285C37.6397 5.43475 37.81 5.02975 37.8548 4.51225H35.6246V3.78975H38.6C38.6358 3.946 38.646 4.09725 38.646 4.2435V4.2435Z" fill="white" stroke="white" stroke-width="0.123077" stroke-miterlimit="10" />
	<path d="M43.3666 1.73869H40.5717V3.63869H43.0913V4.36119H40.5717V6.26119H43.3666V6.99744H39.7805V1.00244H43.3666V1.73869Z" fill="white" stroke="white" stroke-width="0.123077" stroke-miterlimit="10" />
	<path d="M46.6979 6.99744H45.9067V1.73869H44.1924V1.00244H48.4135V1.73869H46.6979V6.99744V6.99744Z" fill="white" stroke="white" stroke-width="0.123077" stroke-miterlimit="10" />
	<path d="M51.4683 6.99744V1.00244H52.2582V6.99744H51.4683Z" fill="white" stroke="white" stroke-width="0.123077" stroke-miterlimit="10" />
	<path d="M55.7599 6.99744H54.9751V1.73869H53.2544V1.00244H57.4806V1.73869H55.7599V6.99744Z" fill="white" stroke="white" stroke-width="0.123077" stroke-miterlimit="10" />
	<path d="M65.4723 6.226C64.8668 6.83225 64.1165 7.13475 63.2216 7.13475C62.3215 7.13475 61.5713 6.83225 60.9657 6.226C60.3614 5.621 60.0605 4.8785 60.0605 3.99975C60.0605 3.121 60.3614 2.3785 60.9657 1.7735C61.5713 1.16725 62.3215 0.864746 63.2216 0.864746C64.1114 0.864746 64.8616 1.16725 65.4672 1.7785C66.0766 2.3885 66.3775 3.126 66.3775 3.99975C66.3775 4.8785 66.0766 5.621 65.4723 6.226ZM61.5508 5.7235C62.0066 6.17225 62.561 6.39725 63.2216 6.39725C63.8771 6.39725 64.4366 6.17225 64.8872 5.7235C65.3417 5.27475 65.5722 4.6985 65.5722 3.99975C65.5722 3.301 65.3417 2.72475 64.8872 2.276C64.4366 1.82725 63.8771 1.60225 63.2216 1.60225C62.561 1.60225 62.0066 1.82725 61.5508 2.276C61.0963 2.72475 60.8659 3.301 60.8659 3.99975C60.8659 4.6985 61.0963 5.27475 61.5508 5.7235V5.7235Z" fill="white" stroke="white" stroke-width="0.123077" stroke-miterlimit="10" />
	<path d="M67.4873 6.99744V1.00244H68.4475L71.4332 5.66494H71.4677L71.4332 4.51244V1.00244H72.2231V6.99744H71.3986L68.2721 2.10494H68.2376L68.2721 3.26244V6.99744H67.4873V6.99744Z" fill="white" stroke="white" stroke-width="0.123077" stroke-miterlimit="10" />
	<path d="M59.8658 15.7521C57.4601 15.7521 55.4949 17.5396 55.4949 20.0059C55.4949 22.4521 57.4601 24.2584 59.8658 24.2584C62.2766 24.2584 64.2418 22.4521 64.2418 20.0059C64.2418 17.5396 62.2766 15.7521 59.8658 15.7521ZM59.8658 22.5834C58.5458 22.5834 57.4102 21.5196 57.4102 20.0059C57.4102 18.4721 58.5458 17.4271 59.8658 17.4271C61.1858 17.4271 62.3265 18.4721 62.3265 20.0059C62.3265 21.5196 61.1858 22.5834 59.8658 22.5834V22.5834ZM50.3289 15.7521C47.9181 15.7521 45.958 17.5396 45.958 20.0059C45.958 22.4521 47.9181 24.2584 50.3289 24.2584C52.7384 24.2584 54.6998 22.4521 54.6998 20.0059C54.6998 17.5396 52.7384 15.7521 50.3289 15.7521ZM50.3289 22.5834C49.0077 22.5834 47.8682 21.5196 47.8682 20.0059C47.8682 18.4721 49.0077 17.4271 50.3289 17.4271C51.6489 17.4271 52.7845 18.4721 52.7845 20.0059C52.7845 21.5196 51.6489 22.5834 50.3289 22.5834ZM38.9804 17.0559V18.8634H43.4013C43.272 19.8734 42.9263 20.6159 42.3963 21.1334C41.751 21.7584 40.746 22.4521 38.9804 22.4521C36.2598 22.4521 34.1294 20.3084 34.1294 17.6521C34.1294 14.9959 36.2598 12.8521 38.9804 12.8521C40.4515 12.8521 41.5218 13.4134 42.3118 14.1409L43.6164 12.8671C42.5115 11.8371 41.0417 11.0459 38.9804 11.0459C35.2497 11.0459 32.1143 14.0096 32.1143 17.6521C32.1143 21.2946 35.2497 24.2584 38.9804 24.2584C40.9969 24.2584 42.5115 23.6134 43.7022 22.4034C44.9223 21.2121 45.3025 19.5371 45.3025 18.1846C45.3025 17.7646 45.2667 17.3784 45.2027 17.0559H38.9804ZM85.3858 18.4571C85.0261 17.5059 83.916 15.7521 81.6551 15.7521C79.4145 15.7521 77.5492 17.4759 77.5492 20.0059C77.5492 22.3884 79.3953 24.2584 81.8701 24.2584C83.8712 24.2584 85.0261 23.0671 85.501 22.3734L84.0159 21.4071C83.5204 22.1146 82.8457 22.5834 81.8701 22.5834C80.901 22.5834 80.2058 22.1496 79.7602 21.2946L85.5868 18.9409L85.3858 18.4571V18.4571ZM79.4453 19.8734C79.3953 18.2334 80.7499 17.3934 81.7204 17.3934C82.4808 17.3934 83.1261 17.7646 83.3412 18.2959L79.4453 19.8734V19.8734ZM74.7095 23.9996H76.6248V11.4996H74.7095V23.9996ZM71.5728 16.6996H71.5088C71.0786 16.2021 70.2579 15.7521 69.2183 15.7521C67.0367 15.7521 65.042 17.6221 65.042 20.0196C65.042 22.4034 67.0367 24.2584 69.2183 24.2584C70.2579 24.2584 71.0786 23.8046 71.5088 23.2921H71.5728V23.9021C71.5728 25.5284 70.683 26.4021 69.2478 26.4021C68.0776 26.4021 67.3517 25.5771 67.0521 24.8834L65.3864 25.5621C65.8665 26.6896 67.1378 28.0771 69.2478 28.0771C71.4934 28.0771 73.3882 26.7871 73.3882 23.6484V16.0109H71.5728V16.6996V16.6996ZM69.3822 22.5834C68.0622 22.5834 66.9573 21.5046 66.9573 20.0196C66.9573 18.5209 68.0622 17.4271 69.3822 17.4271C70.683 17.4271 71.7085 18.5209 71.7085 20.0196C71.7085 21.5046 70.683 22.5834 69.3822 22.5834V22.5834ZM94.353 11.4996H89.7721V23.9996H91.6823V19.2634H94.353C96.4744 19.2634 98.5549 17.7646 98.5549 15.3809C98.5549 12.9984 96.4693 11.4996 94.353 11.4996V11.4996ZM94.4029 17.5246H91.6823V13.2384H94.4029C95.8291 13.2384 96.6434 14.3946 96.6434 15.3809C96.6434 16.3484 95.8291 17.5246 94.4029 17.5246ZM106.211 15.7284C104.831 15.7284 103.396 16.3234 102.805 17.6421L104.501 18.3359C104.865 17.6421 105.536 17.4171 106.246 17.4171C107.237 17.4171 108.242 17.9984 108.257 19.0246V19.1559C107.911 18.9609 107.171 18.6721 106.261 18.6721C104.435 18.6721 102.575 19.6534 102.575 21.4846C102.575 23.1596 104.07 24.2384 105.751 24.2384C107.037 24.2384 107.746 23.6721 108.192 23.0134H108.257V23.9796H110.102V19.1846C110.102 16.9684 108.407 15.7284 106.211 15.7284ZM105.981 22.5784C105.356 22.5784 104.485 22.2759 104.485 21.5196C104.485 20.5521 105.571 20.1809 106.511 20.1809C107.352 20.1809 107.746 20.3621 108.257 20.6009C108.107 21.7584 107.087 22.5784 105.981 22.5784V22.5784ZM116.823 16.0021L114.628 21.4209H114.562L112.292 16.0021H110.232L113.643 23.5746L111.697 27.7884H113.693L118.949 16.0021H116.823V16.0021ZM99.6047 23.9996H101.52V11.4996H99.6047V23.9996Z" fill="white" />
	<path d="M0.767467 1.53867C0.466599 1.84617 0.29248 2.32492 0.29248 2.94492V25.0599C0.29248 25.6799 0.466599 26.1587 0.767467 26.4662L0.841724 26.5337L13.5345 14.1462V13.8537L0.841724 1.46617L0.767467 1.53867Z" fill="url(#paint0_linear_901_1410)" />
	<path d="M17.7607 18.2773L13.5344 14.1461V13.8536L17.7658 9.72234L17.8605 9.77609L22.8716 12.5598C24.3017 13.3498 24.3017 14.6498 22.8716 15.4448L17.8605 18.2236L17.7607 18.2773V18.2773Z" fill="url(#paint1_linear_901_1410)" />
	<path d="M17.8607 18.2235L13.5346 13.9997L0.767578 26.466C1.24257 26.9535 2.01714 27.0122 2.89798 26.5247L17.8607 18.2235" fill="url(#paint2_linear_901_1410)" />
	<path d="M17.8607 9.77576L2.89798 1.47451C2.01714 0.992007 1.24257 1.05076 0.767578 1.53826L13.5346 13.9995L17.8607 9.77576Z" fill="url(#paint3_linear_901_1410)" />
	<defs>
		<linearGradient id="paint0_linear_901_1410" x1="12.4075" y1="25.2902" x2="-4.37005" y2="8.10611" gradientUnits="userSpaceOnUse">
			<stop stop-color="#00A0FF" />
			<stop offset="0.0066" stop-color="#00A1FF" />
			<stop offset="0.2601" stop-color="#00BEFF" />
			<stop offset="0.5122" stop-color="#00D2FF" />
			<stop offset="0.7604" stop-color="#00DFFF" />
			<stop offset="1" stop-color="#00E3FF" />
		</linearGradient>
		<linearGradient id="paint1_linear_901_1410" x1="24.7338" y1="13.9984" x2="-0.0494486" y2="13.9984" gradientUnits="userSpaceOnUse">
			<stop stop-color="#FFE000" />
			<stop offset="0.4087" stop-color="#FFBD00" />
			<stop offset="0.7754" stop-color="#FFA500" />
			<stop offset="1" stop-color="#FF9C00" />
		</linearGradient>
		<linearGradient id="paint2_linear_901_1410" x1="15.5083" y1="11.7036" x2="-7.24347" y2="-11.5995" gradientUnits="userSpaceOnUse">
			<stop stop-color="#FF3A44" />
			<stop offset="1" stop-color="#C31162" />
		</linearGradient>
		<linearGradient id="paint3_linear_901_1410" x1="-2.44615" y1="33.8233" x2="7.71354" y2="23.4175" gradientUnits="userSpaceOnUse">
			<stop stop-color="#32A071" />
			<stop offset="0.0685" stop-color="#2DA771" />
			<stop offset="0.4762" stop-color="#15CF74" />
			<stop offset="0.8009" stop-color="#06E775" />
			<stop offset="1" stop-color="#00F076" />
		</linearGradient>
	</defs>
</svg>
