<svg width="40" height="39" viewBox="0 0 40 39" fill="none" xmlns="http://www.w3.org/2000/svg">
<g opacity="0.5" filter="url(#filter0_b_397_3578)">
<circle cx="20.3071" cy="19.4614" r="19.4614" fill="white" fill-opacity="0.2"/>
</g>
<path d="M26.7106 11.6768H14.8765C13.5404 11.6768 12.5225 12.6947 12.5225 14.0308V25.8649C12.5225 27.201 13.5404 28.219 14.8765 28.219H26.7106C28.0467 28.219 29.0647 27.201 29.0647 25.8649V14.0308C29.0647 12.6947 28.0467 11.6768 26.7106 11.6768ZM20.7936 24.9105C23.5294 24.9105 25.7562 22.7473 25.7562 20.1387C25.7562 19.6934 25.6926 19.1844 25.5654 18.8026H26.9651V25.5468C26.9651 25.8649 26.7106 26.183 26.3288 26.183H15.2583C14.9402 26.183 14.6221 25.9285 14.6221 25.5468V18.739H16.0854C15.9582 19.1844 15.8945 19.6297 15.8945 20.0751C15.8309 22.7473 18.0577 24.9105 20.7936 24.9105ZM20.7936 23.0018C19.0121 23.0018 17.6124 21.6021 17.6124 19.8842C17.6124 18.1664 19.0121 16.7667 20.7936 16.7667C22.575 16.7667 23.9748 18.1664 23.9748 19.8842C23.9748 21.6657 22.575 23.0018 20.7936 23.0018ZM26.9015 16.1941C26.9015 16.5758 26.5833 16.8939 26.2016 16.8939H24.4201C24.0384 16.8939 23.7203 16.5758 23.7203 16.1941V14.4762C23.7203 14.0945 24.0384 13.7763 24.4201 13.7763H26.2016C26.5833 13.7763 26.9015 14.0945 26.9015 14.4762V16.1941Z" fill="white"/>
<defs>
<filter id="filter0_b_397_3578" x="-3.1543" y="-4" width="46.9229" height="46.9229" filterUnits="userSpaceOnUse" color-interpolation-filters="sRGB">
<feFlood flood-opacity="0" result="BackgroundImageFix"/>
<feGaussianBlur in="BackgroundImage" stdDeviation="2"/>
<feComposite in2="SourceAlpha" operator="in" result="effect1_backgroundBlur_397_3578"/>
<feBlend mode="normal" in="SourceGraphic" in2="effect1_backgroundBlur_397_3578" result="shape"/>
</filter>
</defs>
</svg>
