<svg width="40" height="39" viewBox="0 0 40 39" fill="none" xmlns="http://www.w3.org/2000/svg">
<g opacity="0.5" filter="url(#filter0_b_397_3575)">
<circle cx="20.3843" cy="19.4614" r="19.4614" fill="white" fill-opacity="0.2"/>
</g>
<path d="M28.8631 18.4039C28.8631 18.0264 28.8002 17.5861 28.8002 17.0829C28.7373 16.5796 28.6744 16.0764 28.6115 15.636C28.4857 15.1328 28.2969 14.7554 27.9195 14.4408C27.605 14.1263 27.1646 13.9376 26.7243 13.8747C25.2775 13.6859 23.1387 13.623 20.245 13.623C17.3514 13.623 15.1497 13.6859 13.7657 13.8747C13.3254 13.9376 12.8851 14.1263 12.5705 14.4408C12.256 14.7554 12.0044 15.1328 11.8786 15.636C11.7528 16.0764 11.6899 16.5167 11.6899 17.0829C11.627 17.5861 11.627 18.0264 11.627 18.4039C11.627 18.7813 11.627 19.2216 11.627 19.8507C11.627 20.4798 11.627 20.983 11.627 21.2975C11.627 21.675 11.6899 22.1153 11.6899 22.6186C11.7528 23.1218 11.8157 23.625 11.8786 24.0654C12.0044 24.5686 12.1931 24.9461 12.5705 25.2606C12.8851 25.5751 13.3254 25.7638 13.7657 25.8267C15.2126 26.0155 17.3514 26.0784 20.245 26.0784C23.1387 26.0784 25.3404 26.0155 26.7243 25.8267C27.1646 25.7638 27.605 25.5751 27.9195 25.2606C28.234 24.9461 28.4857 24.5686 28.6115 24.0654C28.7373 23.625 28.8002 23.1847 28.8002 22.6186C28.8631 22.1153 28.8631 21.675 28.8631 21.2975C28.8631 20.9201 28.8631 20.4798 28.8631 19.8507C28.8631 19.2216 28.8631 18.7184 28.8631 18.4039ZM23.579 20.354L18.6095 23.4363C18.5466 23.4992 18.4208 23.5621 18.295 23.5621C18.1691 23.5621 18.1062 23.5621 17.9804 23.4992C17.7917 23.3734 17.6659 23.1847 17.6659 22.9331V16.7054C17.6659 16.4538 17.7917 16.2651 17.9804 16.1393C18.1691 16.0135 18.4208 16.0135 18.6095 16.1393L23.579 19.2216C23.7677 19.3475 23.8936 19.5362 23.8936 19.7249C23.8936 19.9136 23.7677 20.2281 23.579 20.354Z" fill="white"/>
<defs>
<filter id="filter0_b_397_3575" x="-3.07715" y="-4" width="46.9229" height="46.9229" filterUnits="userSpaceOnUse" color-interpolation-filters="sRGB">
<feFlood flood-opacity="0" result="BackgroundImageFix"/>
<feGaussianBlur in="BackgroundImage" stdDeviation="2"/>
<feComposite in2="SourceAlpha" operator="in" result="effect1_backgroundBlur_397_3575"/>
<feBlend mode="normal" in="SourceGraphic" in2="effect1_backgroundBlur_397_3575" result="shape"/>
</filter>
</defs>
</svg>
